# 3ds Max Wavefront OBJ Exporter v0.97b - (c)2007 guruware
# File Created: 20.11.2013 16:23:11

#
# object e_chimney01_asset_005
#

v  24.3255 160.8179 904.4927
v  22.9628 160.8179 901.2821
v  22.0394 142.4782 901.3629
v  23.6261 142.4782 905.1008
v  27.3152 160.8179 906.2891
v  27.1068 142.4782 907.1923
v  30.7899 160.8179 905.9851
v  31.1520 142.4782 906.8384
v  33.4223 160.8179 903.6968
v  34.2167 142.4782 904.1743
v  34.2068 160.8179 900.2983
v  35.1302 142.4782 900.2175
v  32.8441 160.8179 897.0877
v  33.5435 142.4782 896.4796
v  29.8544 160.8179 895.2913
v  30.0627 142.4782 894.3882
v  26.3796 160.8179 895.5953
v  26.0175 142.4782 894.7421
v  23.7473 160.8179 897.8835
v  22.9529 142.4782 897.4062
v  25.0652 149.7650 903.8499
v  27.5358 149.7650 905.3344
v  30.4072 149.7650 905.0831
v  24.5874 149.7650 898.3882
v  32.5824 149.7650 903.1921
v  33.2307 149.7650 900.3837
v  32.1046 149.7650 897.7306
v  29.6340 149.7650 896.2460
v  26.7626 149.7650 896.4973
v  23.9389 149.7650 901.1967
v  23.9113 162.2992 904.8528
v  22.4161 162.2992 901.3298
v  22.4161 161.1059 901.3298
v  23.9113 161.1059 904.8528
v  27.1919 162.2992 906.8239
v  27.1919 161.1059 906.8239
v  31.0044 162.2992 906.4902
v  31.0044 161.1059 906.4902
v  33.8925 162.2992 903.9795
v  33.8925 161.1059 903.9795
v  34.7536 162.2992 900.2505
v  34.7536 161.1059 900.2505
v  33.2582 162.2992 896.7277
v  33.2582 161.1059 896.7277
v  29.9778 162.2992 894.7566
v  29.9778 161.1059 894.7566
v  26.1653 162.2992 895.0901
v  26.1653 161.1059 895.0901
v  23.2768 162.2992 897.6010
v  23.2768 161.1059 897.6010
v  24.3255 162.5872 904.4927
v  22.9628 162.5872 901.2821
v  23.7473 162.5872 897.8835
v  26.3796 162.5872 895.5953
v  29.8544 162.5872 895.2913
v  32.8441 162.5872 897.0877
v  34.2068 162.5872 900.2983
v  33.4223 162.5872 903.6968
v  30.7899 162.5872 905.9851
v  27.3152 162.5872 906.2891
v  25.0652 162.5872 903.8499
v  23.9389 162.5872 901.1967
v  27.5358 162.5872 905.3344
v  30.4072 162.5872 905.0831
v  32.5824 162.5872 903.1921
v  33.2307 162.5872 900.3837
v  32.1046 162.5872 897.7306
v  29.6340 162.5872 896.2460
v  26.7626 162.5872 896.4973
v  24.5874 162.5872 898.3882
v  6.3434 170.0026 906.0659
v  4.9806 170.0026 902.8553
v  4.0572 142.4782 902.9361
v  5.6439 142.4782 906.6741
v  9.3331 170.0026 907.8624
v  9.1246 142.4782 908.7655
v  12.8078 170.0026 907.5583
v  13.1700 142.4782 908.4116
v  15.4402 170.0026 905.2701
v  16.2346 142.4782 905.7474
v  16.2246 170.0026 901.8716
v  17.1480 142.4782 901.7908
v  14.8619 170.0026 898.6609
v  15.5615 142.4782 898.0529
v  11.8722 170.0026 896.8646
v  12.0807 142.4782 895.9614
v  8.3975 170.0026 897.1686
v  8.0354 142.4782 896.3153
v  5.7652 170.0026 899.4568
v  4.9707 142.4782 898.9794
v  7.0830 158.9498 905.4231
v  9.5536 158.9498 906.9076
v  12.4250 158.9498 906.6564
v  6.6052 158.9498 899.9615
v  14.6002 158.9498 904.7654
v  15.2486 158.9498 901.9570
v  14.1224 158.9498 899.3038
v  11.6518 158.9498 897.8193
v  8.7804 158.9498 898.0705
v  5.9567 158.9498 902.7699
v  5.9293 171.4839 906.4260
v  4.4339 171.4839 902.9031
v  4.4339 170.2906 902.9031
v  5.9293 170.2906 906.4260
v  9.2097 171.4839 908.3971
v  9.2097 170.2906 908.3971
v  13.0222 171.4839 908.0635
v  13.0222 170.2906 908.0635
v  15.9105 171.4839 905.5527
v  15.9105 170.2906 905.5527
v  16.7715 171.4839 901.8237
v  16.7715 170.2906 901.8237
v  15.2761 171.4839 898.3009
v  15.2761 170.2906 898.3009
v  11.9956 171.4839 896.3298
v  11.9956 170.2906 896.3298
v  8.1831 171.4839 896.6633
v  8.1831 170.2906 896.6633
v  5.2948 171.4839 899.1742
v  5.2948 170.2906 899.1742
v  6.3434 171.7719 906.0659
v  4.9806 171.7719 902.8553
v  5.7652 171.7719 899.4568
v  8.3975 171.7719 897.1686
v  11.8722 171.7719 896.8646
v  14.8619 171.7719 898.6609
v  16.2246 171.7719 901.8716
v  15.4402 171.7719 905.2701
v  12.8078 171.7719 907.5583
v  9.3331 171.7719 907.8624
v  7.0830 171.7719 905.4231
v  5.9567 171.7719 902.7699
v  9.5536 171.7719 906.9076
v  12.4250 171.7719 906.6564
v  14.6002 171.7719 904.7654
v  15.2486 171.7719 901.9570
v  14.1224 171.7719 899.3038
v  11.6518 171.7719 897.8193
v  8.7804 171.7719 898.0705
v  6.6052 171.7719 899.9615
v  2.1913 144.4038 910.4226
v  37.0048 144.4038 907.3768
v  35.6713 144.4038 892.1345
v  0.8578 144.4038 895.1804
v  0.6994 142.5869 893.3704
v  35.5130 142.5869 890.3246
v  35.5130 7.1983 890.3246
v  0.6995 7.1983 893.3704
v  0.6758 142.5869 910.5552
v  -0.6577 142.5869 895.3130
v  -0.6577 7.1983 895.3129
v  0.6758 7.1983 910.5551
v  37.1632 142.5869 909.1868
v  2.3496 142.5869 912.2325
v  2.3497 7.1983 912.2325
v  37.1632 7.1983 909.1866
v  37.1869 142.5869 892.0020
v  38.5204 142.5869 907.2442
v  38.5204 7.1983 907.2441
v  37.1869 7.1983 892.0020
# 160 vertices

vn -0.9194 0.0480 0.3903
vn -0.5145 0.0480 0.8562
vn 0.0871 0.0480 0.9950
vn 0.6553 0.0480 0.7538
vn 0.9732 0.0480 0.2247
vn 0.9194 0.0480 -0.3903
vn 0.5144 0.0480 -0.8562
vn -0.0871 0.0480 -0.9950
vn -0.6553 0.0480 -0.7538
vn -0.9732 0.0480 -0.2247
vn 0.0000 1.0000 -0.0000
vn -0.9205 0.0000 0.3907
vn -0.5150 0.0000 0.8572
vn 0.0872 0.0000 0.9962
vn 0.6561 0.0000 0.7547
vn 0.9744 0.0000 0.2250
vn 0.9205 0.0000 -0.3907
vn 0.5150 0.0000 -0.8572
vn -0.0872 0.0000 -0.9962
vn -0.6560 0.0000 -0.7547
vn -0.9744 0.0000 -0.2249
vn -0.4448 0.8755 0.1888
vn -0.4708 0.8755 -0.1087
vn -0.3170 0.8755 -0.3647
vn -0.0421 0.8755 -0.4813
vn 0.2489 0.8755 -0.4142
vn 0.4448 0.8755 -0.1888
vn 0.4708 0.8755 0.1087
vn 0.3170 0.8755 0.3647
vn 0.0421 0.8755 0.4813
vn -0.2489 0.8755 0.4142
vn -0.4448 -0.8755 0.1888
vn -0.2489 -0.8755 0.4142
vn 0.0421 -0.8755 0.4813
vn 0.3170 -0.8755 0.3647
vn 0.4708 -0.8755 0.1087
vn 0.4448 -0.8755 -0.1888
vn 0.2489 -0.8755 -0.4142
vn -0.0421 -0.8755 -0.4813
vn -0.3170 -0.8755 -0.3647
vn -0.4708 -0.8755 -0.1087
vn 0.9205 0.0000 -0.3908
vn -0.6561 0.0000 -0.7547
vn -0.9200 0.0320 0.3905
vn -0.5148 0.0320 0.8567
vn 0.0871 0.0320 0.9957
vn 0.6557 0.0320 0.7543
vn 0.9739 0.0320 0.2248
vn 0.9200 0.0320 -0.3905
vn 0.5148 0.0320 -0.8567
vn -0.0871 0.0320 -0.9957
vn -0.6557 0.0320 -0.7543
vn -0.9739 0.0320 -0.2248
vn -0.9744 0.0000 -0.2250
vn -0.4447 0.8755 0.1888
vn -0.3170 0.8755 -0.3646
vn 0.2488 0.8755 -0.4141
vn 0.4447 0.8755 -0.1888
vn 0.4707 0.8755 0.1087
vn 0.4447 -0.8755 -0.1888
vn -0.9962 -0.0000 0.0872
vn 0.0872 -0.0000 0.9962
vn 0.9962 0.0000 -0.0872
vn 0.5957 0.5402 -0.5944
vn -0.6898 0.5402 -0.4819
vn 0.6898 0.5402 0.4820
vn -0.5957 0.5402 0.5944
vn -0.0616 0.7071 -0.7044
vn -0.7638 0.6420 0.0668
vn 0.0616 0.7071 0.7044
vn 0.7638 0.6420 -0.0668
vn -0.8198 -0.0000 -0.5727
vn 0.7078 0.0000 -0.7064
vn -0.7079 -0.0000 0.7064
vn 0.8197 -0.0000 0.5727
# 75 vertex normals

vt 0.5941 0.8317 0.0000
vt 0.5650 0.8317 0.0000
vt 0.5650 0.6685 0.0000
vt 0.5941 0.6685 0.0000
vt 0.6245 0.8317 0.0000
vt 0.6245 0.6685 0.0000
vt 0.6564 0.8317 0.0000
vt 0.6564 0.6685 0.0000
vt 0.3830 0.8317 0.0000
vt 0.3517 0.8317 0.0000
vt 0.3517 0.6685 0.0000
vt 0.3830 0.6685 0.0000
vt 0.4127 0.8317 0.0000
vt 0.4127 0.6685 0.0000
vt 0.4418 0.8317 0.0000
vt 0.4418 0.6685 0.0000
vt 0.4722 0.8317 0.0000
vt 0.4722 0.6685 0.0000
vt 0.5040 0.8317 0.0000
vt 0.5040 0.6685 0.0000
vt 0.5354 0.8317 0.0000
vt 0.5354 0.6685 0.0000
vt 0.7956 0.9601 0.0000
vt 0.7784 0.9770 0.0000
vt 0.7541 0.9811 0.0000
vt 0.7874 0.9161 0.0000
vt 0.7319 0.9708 0.0000
vt 0.7203 0.9500 0.0000
vt 0.7238 0.9268 0.0000
vt 0.7409 0.9099 0.0000
vt 0.7652 0.9058 0.0000
vt 0.7990 0.9368 0.0000
vt 0.5941 0.8449 0.0000
vt 0.5650 0.8449 0.0000
vt 0.5650 0.8343 0.0000
vt 0.5941 0.8343 0.0000
vt 0.6245 0.8449 0.0000
vt 0.6245 0.8343 0.0000
vt 0.6564 0.8449 0.0000
vt 0.6564 0.8343 0.0000
vt 0.3830 0.8449 0.0000
vt 0.3517 0.8449 0.0000
vt 0.3517 0.8343 0.0000
vt 0.3830 0.8343 0.0000
vt 0.4127 0.8449 0.0000
vt 0.4127 0.8343 0.0000
vt 0.4418 0.8449 0.0000
vt 0.4418 0.8343 0.0000
vt 0.4722 0.8449 0.0000
vt 0.4722 0.8343 0.0000
vt 0.5040 0.8449 0.0000
vt 0.5040 0.8343 0.0000
vt 0.5354 0.8449 0.0000
vt 0.5354 0.8343 0.0000
vt 0.5941 0.8475 0.0000
vt 0.5650 0.8475 0.0000
vt 0.5354 0.8475 0.0000
vt 0.5040 0.8475 0.0000
vt 0.4722 0.8475 0.0000
vt 0.4418 0.8475 0.0000
vt 0.4127 0.8475 0.0000
vt 0.3830 0.8475 0.0000
vt 0.3517 0.8475 0.0000
vt 0.6564 0.8475 0.0000
vt 0.6245 0.8475 0.0000
vt 0.6364 0.9124 0.0000
vt 0.6323 0.9406 0.0000
vt 0.6247 0.9371 0.0000
vt 0.6282 0.9138 0.0000
vt 0.6115 0.9610 0.0000
vt 0.6076 0.9540 0.0000
vt 0.5821 0.9659 0.0000
vt 0.5833 0.9580 0.0000
vt 0.5553 0.9535 0.0000
vt 0.5611 0.9477 0.0000
vt 0.5413 0.9284 0.0000
vt 0.5495 0.9270 0.0000
vt 0.5454 0.9003 0.0000
vt 0.5530 0.9038 0.0000
vt 0.5662 0.8798 0.0000
vt 0.5701 0.8869 0.0000
vt 0.5956 0.8749 0.0000
vt 0.5944 0.8828 0.0000
vt 0.6224 0.8874 0.0000
vt 0.6166 0.8931 0.0000
vt 0.8887 0.8795 0.0000
vt 0.9137 0.8795 0.0000
vt 0.9137 0.7813 0.0000
vt 0.8887 0.7813 0.0000
vt 0.9399 0.8795 0.0000
vt 0.9399 0.7813 0.0000
vt 0.9673 0.8795 0.0000
vt 0.9673 0.7813 0.0000
vt 0.7050 0.8795 0.0000
vt 0.7320 0.8795 0.0000
vt 0.7320 0.7813 0.0000
vt 0.7050 0.7813 0.0000
vt 0.7575 0.8795 0.0000
vt 0.7575 0.7813 0.0000
vt 0.7826 0.8795 0.0000
vt 0.7826 0.7813 0.0000
vt 0.8088 0.8795 0.0000
vt 0.8088 0.7813 0.0000
vt 0.8362 0.8795 0.0000
vt 0.8362 0.7813 0.0000
vt 0.8631 0.8795 0.0000
vt 0.8631 0.7813 0.0000
vt 0.2909 0.9120 0.0000
vt 0.2602 0.9120 0.0000
vt 0.2602 0.6717 0.0000
vt 0.2909 0.6717 0.0000
vt 0.3230 0.9120 0.0000
vt 0.3230 0.6717 0.0000
vt 0.0470 0.9120 0.0000
vt 0.0153 0.9120 0.0000
vt 0.0153 0.6717 0.0000
vt 0.0470 0.6717 0.0000
vt 0.0770 0.9120 0.0000
vt 0.0770 0.6717 0.0000
vt 0.1064 0.9120 0.0000
vt 0.1064 0.6717 0.0000
vt 0.1370 0.9120 0.0000
vt 0.1370 0.6717 0.0000
vt 0.1692 0.9120 0.0000
vt 0.1692 0.6717 0.0000
vt 0.2008 0.9120 0.0000
vt 0.2008 0.6717 0.0000
vt 0.2308 0.9120 0.0000
vt 0.2308 0.6717 0.0000
vt 0.9207 0.9715 0.0000
vt 0.8964 0.9760 0.0000
vt 0.8741 0.9661 0.0000
vt 0.9405 0.9311 0.0000
vt 0.8621 0.9455 0.0000
vt 0.8651 0.9222 0.0000
vt 0.8820 0.9051 0.0000
vt 0.9062 0.9006 0.0000
vt 0.9285 0.9105 0.0000
vt 0.9375 0.9544 0.0000
vt 0.2909 0.9249 0.0000
vt 0.2602 0.9249 0.0000
vt 0.2602 0.9145 0.0000
vt 0.2909 0.9145 0.0000
vt 0.3230 0.9249 0.0000
vt 0.3230 0.9145 0.0000
vt 0.0470 0.9249 0.0000
vt 0.0153 0.9249 0.0000
vt 0.0153 0.9145 0.0000
vt 0.0470 0.9145 0.0000
vt 0.0770 0.9249 0.0000
vt 0.0770 0.9145 0.0000
vt 0.1064 0.9249 0.0000
vt 0.1064 0.9145 0.0000
vt 0.1370 0.9249 0.0000
vt 0.1370 0.9145 0.0000
vt 0.1692 0.9249 0.0000
vt 0.1692 0.9145 0.0000
vt 0.2008 0.9249 0.0000
vt 0.2008 0.9145 0.0000
vt 0.2308 0.9249 0.0000
vt 0.2308 0.9145 0.0000
vt 0.2909 0.9274 0.0000
vt 0.2602 0.9274 0.0000
vt 0.2308 0.9274 0.0000
vt 0.2008 0.9274 0.0000
vt 0.1692 0.9274 0.0000
vt 0.1370 0.9274 0.0000
vt 0.1064 0.9274 0.0000
vt 0.0770 0.9274 0.0000
vt 0.0470 0.9274 0.0000
vt 0.0153 0.9274 0.0000
vt 0.3230 0.9274 0.0000
vt 0.4771 0.9434 0.0000
vt 0.4567 0.9642 0.0000
vt 0.4527 0.9572 0.0000
vt 0.4695 0.9400 0.0000
vt 0.4274 0.9696 0.0000
vt 0.4284 0.9617 0.0000
vt 0.4004 0.9576 0.0000
vt 0.4061 0.9518 0.0000
vt 0.3859 0.9328 0.0000
vt 0.3941 0.9312 0.0000
vt 0.3895 0.9046 0.0000
vt 0.3971 0.9079 0.0000
vt 0.4099 0.8838 0.0000
vt 0.4139 0.8908 0.0000
vt 0.4392 0.8784 0.0000
vt 0.4382 0.8863 0.0000
vt 0.4663 0.8904 0.0000
vt 0.4605 0.8962 0.0000
vt 0.4807 0.9152 0.0000
vt 0.4725 0.9168 0.0000
vt 0.9158 0.7727 0.0000
vt 0.9423 0.7727 0.0000
vt 0.9423 0.6758 0.0000
vt 0.9158 0.6758 0.0000
vt 0.9701 0.7727 0.0000
vt 0.9701 0.6758 0.0000
vt 0.7039 0.7727 0.0000
vt 0.7313 0.7727 0.0000
vt 0.7313 0.6758 0.0000
vt 0.7039 0.6758 0.0000
vt 0.7573 0.7727 0.0000
vt 0.7573 0.6758 0.0000
vt 0.7827 0.7727 0.0000
vt 0.7827 0.6758 0.0000
vt 0.8092 0.7727 0.0000
vt 0.8092 0.6758 0.0000
vt 0.8370 0.7727 0.0000
vt 0.8370 0.6758 0.0000
vt 0.8644 0.7727 0.0000
vt 0.8644 0.6758 0.0000
vt 0.8903 0.7727 0.0000
vt 0.8903 0.6758 0.0000
vt 0.0122 0.2360 0.0000
vt 0.0122 0.0156 0.0000
vt 0.0948 0.0158 0.0000
vt 0.0948 0.2362 0.0000
vt 0.1044 0.2362 0.0000
vt 0.1044 0.0158 0.0000
vt 0.9781 0.0158 0.0000
vt 0.9781 0.2362 0.0000
vt 0.1043 0.3273 0.0000
vt 0.1043 0.2465 0.0000
vt 0.9780 0.2465 0.0000
vt 0.9780 0.3273 0.0000
vt 0.1043 0.5578 0.0000
vt 0.1043 0.3374 0.0000
vt 0.9780 0.3374 0.0000
vt 0.9780 0.5578 0.0000
vt 0.1043 0.6486 0.0000
vt 0.1043 0.5679 0.0000
vt 0.9781 0.5679 0.0000
vt 0.9781 0.6487 0.0000
vt 0.1043 0.6582 0.0000
vt 0.0957 0.6533 0.0000
vt 0.0958 0.2413 0.0000
vt 0.0949 0.5629 0.0000
vt 0.0958 0.3327 0.0000
vt 0.0947 0.2465 0.0000
vt 0.0947 0.3273 0.0000
vt 0.0947 0.3374 0.0000
vt 0.0947 0.5578 0.0000
vt 0.0947 0.5679 0.0000
vt 0.0947 0.6487 0.0000
vt 0.9781 0.6582 0.0000
# 246 texture coords

g e_chimney01_asset_005
s off
f 1/1/1 2/2/1 3/3/1 4/4/1 
f 5/5/2 1/1/2 4/4/2 6/6/2 
f 7/7/3 5/5/3 6/6/3 8/8/3 
f 9/9/4 7/10/4 8/11/4 10/12/4 
f 11/13/5 9/9/5 10/12/5 12/14/5 
f 13/15/6 11/13/6 12/14/6 14/16/6 
f 15/17/7 13/15/7 14/16/7 16/18/7 
f 17/19/8 15/17/8 16/18/8 18/20/8 
f 19/21/9 17/19/9 18/20/9 20/22/9 
f 19/21/10 20/22/10 3/3/10 2/2/10 
f 21/23/11 22/24/11 23/25/11 24/26/11 
f 23/25/11 25/27/11 26/28/11 24/26/11 
f 26/28/11 27/29/11 28/30/11 24/26/11 
f 28/30/11 29/31/11 24/26/11 
f 30/32/11 21/23/11 24/26/11 
f 31/33/12 32/34/12 33/35/12 34/36/12 
f 35/37/13 31/33/13 34/36/13 36/38/13 
f 37/39/14 35/37/14 36/38/14 38/40/14 
f 39/41/15 37/42/15 38/43/15 40/44/15 
f 41/45/16 39/41/16 40/44/16 42/46/16 
f 43/47/17 41/45/17 42/46/17 44/48/17 
f 45/49/18 43/47/18 44/48/18 46/50/18 
f 47/51/19 45/49/19 46/50/19 48/52/19 
f 49/53/20 47/51/20 48/52/20 50/54/20 
f 32/34/21 49/53/21 50/54/21 33/35/21 
f 51/55/22 52/56/22 32/34/22 31/33/22 
f 52/56/23 53/57/23 49/53/23 32/34/23 
f 53/57/24 54/58/24 47/51/24 49/53/24 
f 54/58/25 55/59/25 45/49/25 47/51/25 
f 55/59/26 56/60/26 43/47/26 45/49/26 
f 56/60/27 57/61/27 41/45/27 43/47/27 
f 57/61/28 58/62/28 39/41/28 41/45/28 
f 58/62/29 59/63/29 37/42/29 39/41/29 
f 59/64/30 60/65/30 35/37/30 37/39/30 
f 60/65/31 51/55/31 31/33/31 35/37/31 
f 2/2/32 1/1/32 34/36/32 33/35/32 
f 1/1/33 5/5/33 36/38/33 34/36/33 
f 5/5/34 7/7/34 38/40/34 36/38/34 
f 7/10/35 9/9/35 40/44/35 38/43/35 
f 9/9/36 11/13/36 42/46/36 40/44/36 
f 11/13/37 13/15/37 44/48/37 42/46/37 
f 13/15/38 15/17/38 46/50/38 44/48/38 
f 15/17/39 17/19/39 48/52/39 46/50/39 
f 17/19/40 19/21/40 50/54/40 48/52/40 
f 19/21/41 2/2/41 33/35/41 50/54/41 
f 52/66/11 51/67/11 61/68/11 62/69/11 
f 51/67/11 60/70/11 63/71/11 61/68/11 
f 60/70/11 59/72/11 64/73/11 63/71/11 
f 59/72/11 58/74/11 65/75/11 64/73/11 
f 58/74/11 57/76/11 66/77/11 65/75/11 
f 57/76/11 56/78/11 67/79/11 66/77/11 
f 56/78/11 55/80/11 68/81/11 67/79/11 
f 55/80/11 54/82/11 69/83/11 68/81/11 
f 54/82/11 53/84/11 70/85/11 69/83/11 
f 53/84/11 52/66/11 62/69/11 70/85/11 
f 62/86/42 61/87/42 21/88/42 30/89/42 
f 61/87/18 63/90/18 22/91/18 21/88/18 
f 63/90/19 64/92/19 23/93/19 22/91/19 
f 64/94/43 65/95/43 25/96/43 23/97/43 
f 65/95/21 66/98/21 26/99/21 25/96/21 
f 66/98/12 67/100/12 27/101/12 26/99/12 
f 67/100/13 68/102/13 28/103/13 27/101/13 
f 68/102/14 69/104/14 29/105/14 28/103/14 
f 69/104/15 70/106/15 24/107/15 29/105/15 
f 70/106/16 62/86/16 30/89/16 24/107/16 
f 71/108/44 72/109/44 73/110/44 74/111/44 
f 75/112/45 71/108/45 74/111/45 76/113/45 
f 77/114/46 75/115/46 76/116/46 78/117/46 
f 79/118/47 77/114/47 78/117/47 80/119/47 
f 81/120/48 79/118/48 80/119/48 82/121/48 
f 83/122/49 81/120/49 82/121/49 84/123/49 
f 85/124/50 83/122/50 84/123/50 86/125/50 
f 87/126/51 85/124/51 86/125/51 88/127/51 
f 89/128/52 87/126/52 88/127/52 90/129/52 
f 89/128/53 90/129/53 73/110/53 72/109/53 
f 91/130/11 92/131/11 93/132/11 94/133/11 
f 93/132/11 95/134/11 96/135/11 94/133/11 
f 96/135/11 97/136/11 98/137/11 94/133/11 
f 98/137/11 99/138/11 94/133/11 
f 100/139/11 91/130/11 94/133/11 
f 101/140/12 102/141/12 103/142/12 104/143/12 
f 105/144/13 101/140/13 104/143/13 106/145/13 
f 107/146/14 105/147/14 106/148/14 108/149/14 
f 109/150/15 107/146/15 108/149/15 110/151/15 
f 111/152/16 109/150/16 110/151/16 112/153/16 
f 113/154/17 111/152/17 112/153/17 114/155/17 
f 115/156/18 113/154/18 114/155/18 116/157/18 
f 117/158/19 115/156/19 116/157/19 118/159/19 
f 119/160/43 117/158/43 118/159/43 120/161/43 
f 102/141/54 119/160/54 120/161/54 103/142/54 
f 121/162/55 122/163/55 102/141/55 101/140/55 
f 122/163/23 123/164/23 119/160/23 102/141/23 
f 123/164/56 124/165/56 117/158/56 119/160/56 
f 124/165/25 125/166/25 115/156/25 117/158/25 
f 125/166/57 126/167/57 113/154/57 115/156/57 
f 126/167/58 127/168/58 111/152/58 113/154/58 
f 127/168/59 128/169/59 109/150/59 111/152/59 
f 128/169/29 129/170/29 107/146/29 109/150/29 
f 129/170/30 130/171/30 105/147/30 107/146/30 
f 130/172/31 121/162/31 101/140/31 105/144/31 
f 72/109/32 71/108/32 104/143/32 103/142/32 
f 71/108/33 75/112/33 106/145/33 104/143/33 
f 75/115/34 77/114/34 108/149/34 106/148/34 
f 77/114/35 79/118/35 110/151/35 108/149/35 
f 79/118/36 81/120/36 112/153/36 110/151/36 
f 81/120/60 83/122/60 114/155/60 112/153/60 
f 83/122/38 85/124/38 116/157/38 114/155/38 
f 85/124/39 87/126/39 118/159/39 116/157/39 
f 87/126/40 89/128/40 120/161/40 118/159/40 
f 89/128/41 72/109/41 103/142/41 120/161/41 
f 122/173/11 121/174/11 131/175/11 132/176/11 
f 121/174/11 130/177/11 133/178/11 131/175/11 
f 130/177/11 129/179/11 134/180/11 133/178/11 
f 129/179/11 128/181/11 135/182/11 134/180/11 
f 128/181/11 127/183/11 136/184/11 135/182/11 
f 127/183/11 126/185/11 137/186/11 136/184/11 
f 126/185/11 125/187/11 138/188/11 137/186/11 
f 125/187/11 124/189/11 139/190/11 138/188/11 
f 124/189/11 123/191/11 140/192/11 139/190/11 
f 123/191/11 122/173/11 132/176/11 140/192/11 
f 132/193/17 131/194/17 91/195/17 100/196/17 
f 131/194/18 133/197/18 92/198/18 91/195/18 
f 133/199/19 134/200/19 93/201/19 92/202/19 
f 134/200/43 135/203/43 95/204/43 93/201/43 
f 135/203/21 136/205/21 96/206/21 95/204/21 
f 136/205/12 137/207/12 97/208/12 96/206/12 
f 137/207/13 138/209/13 98/210/13 97/208/13 
f 138/209/14 139/211/14 99/212/14 98/210/14 
f 139/211/15 140/213/15 94/214/15 99/212/15 
f 140/213/16 132/193/16 100/196/16 94/214/16 
f 141/215/11 142/216/11 143/217/11 144/218/11 
f 145/219/19 146/220/19 147/221/19 148/222/19 
f 149/223/61 150/224/61 151/225/61 152/226/61 
f 153/227/62 154/228/62 155/229/62 156/230/62 
f 157/231/63 158/232/63 159/233/63 160/234/63 
f 146/235/64 143/236/64 157/231/64 
f 150/224/65 144/237/65 145/219/65 
f 158/232/66 142/238/66 153/227/66 
f 154/228/67 141/239/67 149/223/67 
f 143/217/68 146/220/68 145/219/68 144/218/68 
f 144/240/69 150/224/69 149/223/69 141/241/69 
f 141/242/70 154/228/70 153/227/70 142/243/70 
f 142/244/71 158/232/71 157/231/71 143/245/71 
f 148/222/72 151/225/72 150/224/72 145/219/72 
f 146/235/73 157/231/73 160/234/73 147/246/73 
f 152/226/74 155/229/74 154/228/74 149/223/74 
f 156/230/75 159/233/75 158/232/75 153/227/75 
# 139 polygons - 8 triangles

