# 3ds Max Wavefront OBJ Exporter v0.97b - (c)2007 guruware
# File Created: 20.11.2013 16:20:41

#
# object e_chimney01_asset_001
#

v  424.8354 160.8179 984.1992
v  424.4102 160.8179 987.6611
v  425.2502 142.4782 988.0529
v  425.7451 142.4782 984.0223
v  423.1444 160.8179 981.1486
v  423.7765 142.4782 980.4707
v  419.9832 160.8179 979.6746
v  420.0963 142.4782 978.7546
v  416.5594 160.8179 980.3401
v  416.1101 142.4782 979.5294
v  414.1807 160.8179 982.8910
v  413.3406 142.4782 982.4993
v  413.7556 160.8179 986.3528
v  412.8458 142.4782 986.5298
v  415.4465 160.8179 989.4034
v  414.8145 142.4782 990.0814
v  418.6077 160.8179 990.8775
v  418.4948 142.4782 991.7975
v  422.0316 160.8179 990.2120
v  422.4808 142.4782 991.0226
v  423.8734 149.7650 984.3861
v  422.4760 149.7650 981.8652
v  419.8637 149.7650 980.6471
v  421.5563 149.7650 989.3549
v  417.0344 149.7650 981.1970
v  415.0687 149.7650 983.3051
v  414.7174 149.7650 986.1659
v  416.1147 149.7650 988.6868
v  418.7270 149.7650 989.9049
v  423.5222 149.7650 987.2470
v  425.3740 162.2992 984.0945
v  424.9075 162.2992 987.8930
v  424.9075 161.1059 987.8930
v  425.3740 161.1059 984.0945
v  423.5186 162.2992 980.7473
v  423.5186 161.1059 980.7473
v  420.0501 162.2992 979.1299
v  420.0501 161.1059 979.1299
v  416.2935 162.2992 979.8601
v  416.2935 161.1059 979.8601
v  413.6832 162.2992 982.6591
v  413.6832 161.1059 982.6591
v  413.2169 162.2992 986.4576
v  413.2169 161.1059 986.4576
v  415.0723 162.2992 989.8048
v  415.0723 161.1059 989.8048
v  418.5408 162.2992 991.4222
v  418.5408 161.1059 991.4222
v  422.2977 162.2992 990.6920
v  422.2977 161.1059 990.6920
v  424.8354 162.5872 984.1992
v  424.4102 162.5872 987.6611
v  422.0316 162.5872 990.2120
v  418.6077 162.5872 990.8775
v  415.4465 162.5872 989.4034
v  413.7556 162.5872 986.3528
v  414.1807 162.5872 982.8910
v  416.5594 162.5872 980.3401
v  419.9832 162.5872 979.6746
v  423.1444 162.5872 981.1486
v  423.8734 162.5872 984.3861
v  423.5222 162.5872 987.2470
v  422.4760 162.5872 981.8652
v  419.8637 162.5872 980.6471
v  417.0344 162.5872 981.1970
v  415.0687 162.5872 983.3051
v  414.7174 162.5872 986.1659
v  416.1147 162.5872 988.6868
v  418.7270 162.5872 989.9049
v  421.5563 162.5872 989.3549
v  441.1949 170.0026 991.8278
v  440.7698 170.0026 995.2897
v  441.6099 142.4782 995.6815
v  442.1048 142.4782 991.6509
v  439.5040 170.0026 988.7772
v  440.1361 142.4782 988.0993
v  436.3428 170.0026 987.3032
v  436.4558 142.4782 986.3832
v  432.9190 170.0026 987.9687
v  432.4696 142.4782 987.1580
v  430.5403 170.0026 990.5197
v  429.7003 142.4782 990.1279
v  430.1152 170.0026 993.9814
v  429.2053 142.4782 994.1583
v  431.8062 170.0026 997.0320
v  431.1740 142.4782 997.7100
v  434.9673 170.0026 998.5061
v  434.8543 142.4782 999.4261
v  438.3911 170.0026 997.8406
v  438.8405 142.4782 998.6512
v  440.2330 158.9498 992.0148
v  438.8357 158.9498 989.4938
v  436.2234 158.9498 988.2757
v  437.9160 158.9498 996.9836
v  433.3940 158.9498 988.8257
v  431.4283 158.9498 990.9337
v  431.0770 158.9498 993.7945
v  432.4744 158.9498 996.3154
v  435.0867 158.9498 997.5336
v  439.8818 158.9498 994.8756
v  441.7336 171.4839 991.7231
v  441.2672 171.4839 995.5217
v  441.2672 170.2906 995.5217
v  441.7336 170.2906 991.7231
v  439.8782 171.4839 988.3759
v  439.8782 170.2906 988.3759
v  436.4097 171.4839 986.7585
v  436.4097 170.2906 986.7585
v  432.6530 171.4839 987.4887
v  432.6530 170.2906 987.4887
v  430.0428 171.4839 990.2877
v  430.0428 170.2906 990.2877
v  429.5765 171.4839 994.0862
v  429.5765 170.2906 994.0862
v  431.4319 171.4839 997.4335
v  431.4319 170.2906 997.4335
v  434.9004 171.4839 999.0508
v  434.9004 170.2906 999.0508
v  438.6572 171.4839 998.3206
v  438.6572 170.2906 998.3206
v  441.1949 171.7719 991.8278
v  440.7698 171.7719 995.2897
v  438.3911 171.7719 997.8406
v  434.9673 171.7719 998.5061
v  431.8062 171.7719 997.0320
v  430.1152 171.7719 993.9814
v  430.5403 171.7719 990.5197
v  432.9190 171.7719 987.9687
v  436.3428 171.7719 987.3032
v  439.5040 171.7719 988.7772
v  440.2330 171.7719 992.0148
v  439.8818 171.7719 994.8756
v  438.8357 171.7719 989.4938
v  436.2234 171.7719 988.2757
v  433.3940 171.7719 988.8257
v  431.4283 171.7719 990.9337
v  431.0770 171.7719 993.7945
v  432.4744 171.7719 996.3154
v  435.0867 171.7719 997.5336
v  437.9160 171.7719 996.9836
v  446.9691 144.4038 990.1309
v  415.2968 144.4038 975.3619
v  408.8305 144.4038 989.2288
v  440.5029 144.4038 1003.9978
v  439.7350 142.5869 1005.6445
v  408.0627 142.5869 990.8754
v  408.0627 7.1983 990.8755
v  439.7350 7.1983 1005.6445
v  448.3478 142.5869 990.7738
v  441.8816 142.5869 1004.6407
v  441.8815 7.1983 1004.6407
v  448.3477 7.1983 990.7739
v  416.0646 142.5869 973.7152
v  447.7369 142.5869 988.4843
v  447.7369 7.1983 988.4843
v  416.0646 7.1983 973.7153
v  407.4517 142.5869 988.5858
v  413.9180 142.5869 974.7189
v  413.9179 7.1983 974.7189
v  407.4517 7.1983 988.5858
# 160 vertices

vn 0.9914 0.0480 0.1217
vn 0.8736 0.0480 -0.4842
vn 0.4221 0.0480 -0.9053
vn -0.1906 0.0480 -0.9805
vn -0.7305 0.0480 -0.6812
vn -0.9914 0.0480 -0.1217
vn -0.8736 0.0480 0.4843
vn -0.4221 0.0480 0.9053
vn 0.1906 0.0480 0.9805
vn 0.7305 0.0480 0.6812
vn 0.0000 1.0000 -0.0000
vn 0.9925 0.0000 0.1219
vn 0.8746 0.0000 -0.4848
vn 0.4226 0.0000 -0.9063
vn -0.1908 0.0000 -0.9816
vn -0.7313 0.0000 -0.6820
vn -0.9925 0.0000 -0.1219
vn -0.8746 0.0000 0.4848
vn -0.4226 0.0000 0.9063
vn 0.1908 0.0000 0.9816
vn 0.7314 0.0000 0.6820
vn 0.4796 0.8755 0.0589
vn 0.3534 0.8755 0.3295
vn 0.0922 0.8755 0.4743
vn -0.2042 0.8755 0.4379
vn -0.4226 0.8755 0.2342
vn -0.4796 0.8755 -0.0589
vn -0.3534 0.8755 -0.3296
vn -0.0922 0.8755 -0.4743
vn 0.2042 0.8755 -0.4379
vn 0.4226 0.8755 -0.2343
vn 0.4796 -0.8755 0.0589
vn 0.4226 -0.8755 -0.2343
vn 0.2042 -0.8755 -0.4379
vn -0.0922 -0.8755 -0.4743
vn -0.3534 -0.8755 -0.3296
vn -0.4796 -0.8755 -0.0589
vn -0.4226 -0.8755 0.2342
vn -0.2042 -0.8755 0.4379
vn 0.0922 -0.8755 0.4743
vn 0.3534 -0.8755 0.3295
vn -0.9926 0.0000 -0.1218
vn 0.9920 0.0320 0.1218
vn 0.8742 0.0320 -0.4846
vn 0.4224 0.0320 -0.9058
vn -0.1907 0.0320 -0.9811
vn -0.7310 0.0320 -0.6816
vn -0.9920 0.0320 -0.1218
vn -0.8742 0.0320 0.4846
vn -0.4224 0.0320 0.9058
vn 0.1907 0.0320 0.9811
vn 0.7310 0.0320 0.6816
vn -0.7314 0.0000 -0.6820
vn 0.4795 0.8755 0.0589
vn 0.3533 0.8755 0.3295
vn -0.4795 0.8755 -0.0589
vn -0.3533 0.8755 -0.3295
vn 0.4226 0.8755 -0.2342
vn 0.4226 -0.8755 -0.2342
vn -0.3534 -0.8755 -0.3295
vn -0.4795 -0.8755 -0.0589
vn 0.9063 -0.0000 0.4226
vn 0.4226 -0.0000 -0.9063
vn -0.9063 0.0000 -0.4226
vn -0.8131 0.5402 0.2170
vn 0.3565 0.5402 0.7623
vn -0.3564 0.5402 -0.7623
vn 0.8131 0.5402 -0.2169
vn -0.2988 0.7071 0.6409
vn 0.6949 0.6420 0.3240
vn 0.2988 0.7071 -0.6409
vn -0.6949 0.6420 -0.3240
vn 0.4236 -0.0000 0.9059
vn -0.9662 0.0000 0.2578
vn 0.9662 -0.0000 -0.2578
vn -0.4235 -0.0000 -0.9059
# 76 vertex normals

vt 0.5941 0.8317 0.0000
vt 0.5650 0.8317 0.0000
vt 0.5650 0.6685 0.0000
vt 0.5941 0.6685 0.0000
vt 0.6245 0.8317 0.0000
vt 0.6245 0.6685 0.0000
vt 0.6564 0.8317 0.0000
vt 0.6564 0.6685 0.0000
vt 0.3830 0.8317 0.0000
vt 0.3517 0.8317 0.0000
vt 0.3517 0.6685 0.0000
vt 0.3830 0.6685 0.0000
vt 0.4127 0.8317 0.0000
vt 0.4127 0.6685 0.0000
vt 0.4418 0.8317 0.0000
vt 0.4418 0.6685 0.0000
vt 0.4722 0.8317 0.0000
vt 0.4722 0.6685 0.0000
vt 0.5040 0.8317 0.0000
vt 0.5040 0.6685 0.0000
vt 0.5354 0.8317 0.0000
vt 0.5354 0.6685 0.0000
vt 0.7956 0.9601 0.0000
vt 0.7784 0.9770 0.0000
vt 0.7541 0.9811 0.0000
vt 0.7874 0.9161 0.0000
vt 0.7319 0.9708 0.0000
vt 0.7203 0.9500 0.0000
vt 0.7238 0.9268 0.0000
vt 0.7409 0.9099 0.0000
vt 0.7652 0.9058 0.0000
vt 0.7990 0.9368 0.0000
vt 0.5941 0.8449 0.0000
vt 0.5650 0.8449 0.0000
vt 0.5650 0.8343 0.0000
vt 0.5941 0.8343 0.0000
vt 0.6245 0.8449 0.0000
vt 0.6245 0.8343 0.0000
vt 0.6564 0.8449 0.0000
vt 0.6564 0.8343 0.0000
vt 0.3830 0.8449 0.0000
vt 0.3517 0.8449 0.0000
vt 0.3517 0.8343 0.0000
vt 0.3830 0.8343 0.0000
vt 0.4127 0.8449 0.0000
vt 0.4127 0.8343 0.0000
vt 0.4418 0.8449 0.0000
vt 0.4418 0.8343 0.0000
vt 0.4722 0.8449 0.0000
vt 0.4722 0.8343 0.0000
vt 0.5040 0.8449 0.0000
vt 0.5040 0.8343 0.0000
vt 0.5354 0.8449 0.0000
vt 0.5354 0.8343 0.0000
vt 0.5941 0.8475 0.0000
vt 0.5650 0.8475 0.0000
vt 0.5354 0.8475 0.0000
vt 0.5040 0.8475 0.0000
vt 0.4722 0.8475 0.0000
vt 0.4418 0.8475 0.0000
vt 0.4127 0.8475 0.0000
vt 0.3830 0.8475 0.0000
vt 0.3517 0.8475 0.0000
vt 0.6564 0.8475 0.0000
vt 0.6245 0.8475 0.0000
vt 0.6364 0.9124 0.0000
vt 0.6323 0.9406 0.0000
vt 0.6247 0.9371 0.0000
vt 0.6282 0.9138 0.0000
vt 0.6115 0.9610 0.0000
vt 0.6076 0.9540 0.0000
vt 0.5821 0.9659 0.0000
vt 0.5833 0.9580 0.0000
vt 0.5553 0.9535 0.0000
vt 0.5611 0.9477 0.0000
vt 0.5413 0.9284 0.0000
vt 0.5495 0.9270 0.0000
vt 0.5454 0.9003 0.0000
vt 0.5530 0.9038 0.0000
vt 0.5662 0.8798 0.0000
vt 0.5701 0.8869 0.0000
vt 0.5956 0.8749 0.0000
vt 0.5944 0.8828 0.0000
vt 0.6224 0.8874 0.0000
vt 0.6166 0.8931 0.0000
vt 0.8887 0.8795 0.0000
vt 0.9137 0.8795 0.0000
vt 0.9137 0.7813 0.0000
vt 0.8887 0.7813 0.0000
vt 0.9399 0.8795 0.0000
vt 0.9399 0.7813 0.0000
vt 0.9673 0.8795 0.0000
vt 0.9673 0.7813 0.0000
vt 0.7050 0.8795 0.0000
vt 0.7320 0.8795 0.0000
vt 0.7320 0.7813 0.0000
vt 0.7050 0.7813 0.0000
vt 0.7575 0.8795 0.0000
vt 0.7575 0.7813 0.0000
vt 0.7826 0.8795 0.0000
vt 0.7826 0.7813 0.0000
vt 0.8088 0.8795 0.0000
vt 0.8088 0.7813 0.0000
vt 0.8362 0.8795 0.0000
vt 0.8362 0.7813 0.0000
vt 0.8631 0.8795 0.0000
vt 0.8631 0.7813 0.0000
vt 0.2909 0.9120 0.0000
vt 0.2602 0.9120 0.0000
vt 0.2602 0.6717 0.0000
vt 0.2909 0.6717 0.0000
vt 0.3230 0.9120 0.0000
vt 0.3230 0.6717 0.0000
vt 0.0470 0.9120 0.0000
vt 0.0153 0.9120 0.0000
vt 0.0153 0.6717 0.0000
vt 0.0470 0.6717 0.0000
vt 0.0770 0.9120 0.0000
vt 0.0770 0.6717 0.0000
vt 0.1064 0.9120 0.0000
vt 0.1064 0.6717 0.0000
vt 0.1370 0.9120 0.0000
vt 0.1370 0.6717 0.0000
vt 0.1692 0.9120 0.0000
vt 0.1692 0.6717 0.0000
vt 0.2008 0.9120 0.0000
vt 0.2008 0.6717 0.0000
vt 0.2308 0.9120 0.0000
vt 0.2308 0.6717 0.0000
vt 0.9207 0.9715 0.0000
vt 0.8964 0.9760 0.0000
vt 0.8741 0.9661 0.0000
vt 0.9405 0.9311 0.0000
vt 0.8621 0.9455 0.0000
vt 0.8651 0.9222 0.0000
vt 0.8820 0.9051 0.0000
vt 0.9062 0.9006 0.0000
vt 0.9285 0.9105 0.0000
vt 0.9375 0.9544 0.0000
vt 0.2909 0.9249 0.0000
vt 0.2602 0.9249 0.0000
vt 0.2602 0.9145 0.0000
vt 0.2909 0.9145 0.0000
vt 0.3230 0.9249 0.0000
vt 0.3230 0.9145 0.0000
vt 0.0470 0.9249 0.0000
vt 0.0153 0.9249 0.0000
vt 0.0153 0.9145 0.0000
vt 0.0470 0.9145 0.0000
vt 0.0770 0.9249 0.0000
vt 0.0770 0.9145 0.0000
vt 0.1064 0.9249 0.0000
vt 0.1064 0.9145 0.0000
vt 0.1370 0.9249 0.0000
vt 0.1370 0.9145 0.0000
vt 0.1692 0.9249 0.0000
vt 0.1692 0.9145 0.0000
vt 0.2008 0.9249 0.0000
vt 0.2008 0.9145 0.0000
vt 0.2308 0.9249 0.0000
vt 0.2308 0.9145 0.0000
vt 0.2909 0.9274 0.0000
vt 0.2602 0.9274 0.0000
vt 0.2308 0.9274 0.0000
vt 0.2008 0.9274 0.0000
vt 0.1692 0.9274 0.0000
vt 0.1370 0.9274 0.0000
vt 0.1064 0.9274 0.0000
vt 0.0770 0.9274 0.0000
vt 0.0470 0.9274 0.0000
vt 0.0153 0.9274 0.0000
vt 0.3230 0.9274 0.0000
vt 0.4771 0.9434 0.0000
vt 0.4567 0.9642 0.0000
vt 0.4527 0.9572 0.0000
vt 0.4695 0.9400 0.0000
vt 0.4274 0.9696 0.0000
vt 0.4284 0.9617 0.0000
vt 0.4004 0.9576 0.0000
vt 0.4061 0.9518 0.0000
vt 0.3859 0.9328 0.0000
vt 0.3941 0.9312 0.0000
vt 0.3895 0.9046 0.0000
vt 0.3971 0.9079 0.0000
vt 0.4099 0.8838 0.0000
vt 0.4139 0.8908 0.0000
vt 0.4392 0.8784 0.0000
vt 0.4382 0.8863 0.0000
vt 0.4663 0.8904 0.0000
vt 0.4605 0.8962 0.0000
vt 0.4807 0.9152 0.0000
vt 0.4725 0.9168 0.0000
vt 0.9158 0.7727 0.0000
vt 0.9423 0.7727 0.0000
vt 0.9423 0.6758 0.0000
vt 0.9158 0.6758 0.0000
vt 0.9701 0.7727 0.0000
vt 0.9701 0.6758 0.0000
vt 0.7039 0.7727 0.0000
vt 0.7313 0.7727 0.0000
vt 0.7313 0.6758 0.0000
vt 0.7039 0.6758 0.0000
vt 0.7573 0.7727 0.0000
vt 0.7573 0.6758 0.0000
vt 0.7827 0.7727 0.0000
vt 0.7827 0.6758 0.0000
vt 0.8092 0.7727 0.0000
vt 0.8092 0.6758 0.0000
vt 0.8370 0.7727 0.0000
vt 0.8370 0.6758 0.0000
vt 0.8644 0.7727 0.0000
vt 0.8644 0.6758 0.0000
vt 0.8903 0.7727 0.0000
vt 0.8903 0.6758 0.0000
vt 0.0122 0.2360 0.0000
vt 0.0122 0.0156 0.0000
vt 0.0948 0.0158 0.0000
vt 0.0948 0.2362 0.0000
vt 0.1044 0.2362 0.0000
vt 0.1044 0.0158 0.0000
vt 0.9781 0.0158 0.0000
vt 0.9781 0.2362 0.0000
vt 0.1043 0.3273 0.0000
vt 0.1043 0.2465 0.0000
vt 0.9780 0.2465 0.0000
vt 0.9780 0.3273 0.0000
vt 0.1043 0.5578 0.0000
vt 0.1043 0.3374 0.0000
vt 0.9780 0.3374 0.0000
vt 0.9780 0.5578 0.0000
vt 0.1043 0.6486 0.0000
vt 0.1043 0.5679 0.0000
vt 0.9781 0.5679 0.0000
vt 0.9781 0.6487 0.0000
vt 0.1043 0.6582 0.0000
vt 0.0957 0.6533 0.0000
vt 0.0958 0.2413 0.0000
vt 0.0949 0.5629 0.0000
vt 0.0958 0.3327 0.0000
vt 0.0947 0.2465 0.0000
vt 0.0947 0.3273 0.0000
vt 0.0947 0.3374 0.0000
vt 0.0947 0.5578 0.0000
vt 0.0947 0.5679 0.0000
vt 0.0947 0.6487 0.0000
vt 0.9781 0.6582 0.0000
# 246 texture coords

g e_chimney01_asset_001
s off
f 1/1/1 2/2/1 3/3/1 4/4/1 
f 5/5/2 1/1/2 4/4/2 6/6/2 
f 7/7/3 5/5/3 6/6/3 8/8/3 
f 9/9/4 7/10/4 8/11/4 10/12/4 
f 11/13/5 9/9/5 10/12/5 12/14/5 
f 13/15/6 11/13/6 12/14/6 14/16/6 
f 15/17/7 13/15/7 14/16/7 16/18/7 
f 17/19/8 15/17/8 16/18/8 18/20/8 
f 19/21/9 17/19/9 18/20/9 20/22/9 
f 19/21/10 20/22/10 3/3/10 2/2/10 
f 21/23/11 22/24/11 23/25/11 24/26/11 
f 23/25/11 25/27/11 26/28/11 24/26/11 
f 26/28/11 27/29/11 28/30/11 24/26/11 
f 28/30/11 29/31/11 24/26/11 
f 30/32/11 21/23/11 24/26/11 
f 31/33/12 32/34/12 33/35/12 34/36/12 
f 35/37/13 31/33/13 34/36/13 36/38/13 
f 37/39/14 35/37/14 36/38/14 38/40/14 
f 39/41/15 37/42/15 38/43/15 40/44/15 
f 41/45/16 39/41/16 40/44/16 42/46/16 
f 43/47/17 41/45/17 42/46/17 44/48/17 
f 45/49/18 43/47/18 44/48/18 46/50/18 
f 47/51/19 45/49/19 46/50/19 48/52/19 
f 49/53/20 47/51/20 48/52/20 50/54/20 
f 32/34/21 49/53/21 50/54/21 33/35/21 
f 51/55/22 52/56/22 32/34/22 31/33/22 
f 52/56/23 53/57/23 49/53/23 32/34/23 
f 53/57/24 54/58/24 47/51/24 49/53/24 
f 54/58/25 55/59/25 45/49/25 47/51/25 
f 55/59/26 56/60/26 43/47/26 45/49/26 
f 56/60/27 57/61/27 41/45/27 43/47/27 
f 57/61/28 58/62/28 39/41/28 41/45/28 
f 58/62/29 59/63/29 37/42/29 39/41/29 
f 59/64/30 60/65/30 35/37/30 37/39/30 
f 60/65/31 51/55/31 31/33/31 35/37/31 
f 2/2/32 1/1/32 34/36/32 33/35/32 
f 1/1/33 5/5/33 36/38/33 34/36/33 
f 5/5/34 7/7/34 38/40/34 36/38/34 
f 7/10/35 9/9/35 40/44/35 38/43/35 
f 9/9/36 11/13/36 42/46/36 40/44/36 
f 11/13/37 13/15/37 44/48/37 42/46/37 
f 13/15/38 15/17/38 46/50/38 44/48/38 
f 15/17/39 17/19/39 48/52/39 46/50/39 
f 17/19/40 19/21/40 50/54/40 48/52/40 
f 19/21/41 2/2/41 33/35/41 50/54/41 
f 52/66/11 51/67/11 61/68/11 62/69/11 
f 51/67/11 60/70/11 63/71/11 61/68/11 
f 60/70/11 59/72/11 64/73/11 63/71/11 
f 59/72/11 58/74/11 65/75/11 64/73/11 
f 58/74/11 57/76/11 66/77/11 65/75/11 
f 57/76/11 56/78/11 67/79/11 66/77/11 
f 56/78/11 55/80/11 68/81/11 67/79/11 
f 55/80/11 54/82/11 69/83/11 68/81/11 
f 54/82/11 53/84/11 70/85/11 69/83/11 
f 53/84/11 52/66/11 62/69/11 70/85/11 
f 62/86/42 61/87/42 21/88/42 30/89/42 
f 61/87/18 63/90/18 22/91/18 21/88/18 
f 63/90/19 64/92/19 23/93/19 22/91/19 
f 64/94/20 65/95/20 25/96/20 23/97/20 
f 65/95/21 66/98/21 26/99/21 25/96/21 
f 66/98/12 67/100/12 27/101/12 26/99/12 
f 67/100/13 68/102/13 28/103/13 27/101/13 
f 68/102/14 69/104/14 29/105/14 28/103/14 
f 69/104/15 70/106/15 24/107/15 29/105/15 
f 70/106/16 62/86/16 30/89/16 24/107/16 
f 71/108/43 72/109/43 73/110/43 74/111/43 
f 75/112/44 71/108/44 74/111/44 76/113/44 
f 77/114/45 75/115/45 76/116/45 78/117/45 
f 79/118/46 77/114/46 78/117/46 80/119/46 
f 81/120/47 79/118/47 80/119/47 82/121/47 
f 83/122/48 81/120/48 82/121/48 84/123/48 
f 85/124/49 83/122/49 84/123/49 86/125/49 
f 87/126/50 85/124/50 86/125/50 88/127/50 
f 89/128/51 87/126/51 88/127/51 90/129/51 
f 89/128/52 90/129/52 73/110/52 72/109/52 
f 91/130/11 92/131/11 93/132/11 94/133/11 
f 93/132/11 95/134/11 96/135/11 94/133/11 
f 96/135/11 97/136/11 98/137/11 94/133/11 
f 98/137/11 99/138/11 94/133/11 
f 100/139/11 91/130/11 94/133/11 
f 101/140/12 102/141/12 103/142/12 104/143/12 
f 105/144/13 101/140/13 104/143/13 106/145/13 
f 107/146/14 105/147/14 106/148/14 108/149/14 
f 109/150/15 107/146/15 108/149/15 110/151/15 
f 111/152/53 109/150/53 110/151/53 112/153/53 
f 113/154/17 111/152/17 112/153/17 114/155/17 
f 115/156/18 113/154/18 114/155/18 116/157/18 
f 117/158/19 115/156/19 116/157/19 118/159/19 
f 119/160/20 117/158/20 118/159/20 120/161/20 
f 102/141/21 119/160/21 120/161/21 103/142/21 
f 121/162/54 122/163/54 102/141/54 101/140/54 
f 122/163/55 123/164/55 119/160/55 102/141/55 
f 123/164/24 124/165/24 117/158/24 119/160/24 
f 124/165/25 125/166/25 115/156/25 117/158/25 
f 125/166/26 126/167/26 113/154/26 115/156/26 
f 126/167/56 127/168/56 111/152/56 113/154/56 
f 127/168/57 128/169/57 109/150/57 111/152/57 
f 128/169/29 129/170/29 107/146/29 109/150/29 
f 129/170/30 130/171/30 105/147/30 107/146/30 
f 130/172/58 121/162/58 101/140/58 105/144/58 
f 72/109/32 71/108/32 104/143/32 103/142/32 
f 71/108/59 75/112/59 106/145/59 104/143/59 
f 75/115/34 77/114/34 108/149/34 106/148/34 
f 77/114/35 79/118/35 110/151/35 108/149/35 
f 79/118/60 81/120/60 112/153/60 110/151/60 
f 81/120/61 83/122/61 114/155/61 112/153/61 
f 83/122/38 85/124/38 116/157/38 114/155/38 
f 85/124/39 87/126/39 118/159/39 116/157/39 
f 87/126/40 89/128/40 120/161/40 118/159/40 
f 89/128/41 72/109/41 103/142/41 120/161/41 
f 122/173/11 121/174/11 131/175/11 132/176/11 
f 121/174/11 130/177/11 133/178/11 131/175/11 
f 130/177/11 129/179/11 134/180/11 133/178/11 
f 129/179/11 128/181/11 135/182/11 134/180/11 
f 128/181/11 127/183/11 136/184/11 135/182/11 
f 127/183/11 126/185/11 137/186/11 136/184/11 
f 126/185/11 125/187/11 138/188/11 137/186/11 
f 125/187/11 124/189/11 139/190/11 138/188/11 
f 124/189/11 123/191/11 140/192/11 139/190/11 
f 123/191/11 122/173/11 132/176/11 140/192/11 
f 132/193/17 131/194/17 91/195/17 100/196/17 
f 131/194/18 133/197/18 92/198/18 91/195/18 
f 133/199/19 134/200/19 93/201/19 92/202/19 
f 134/200/20 135/203/20 95/204/20 93/201/20 
f 135/203/21 136/205/21 96/206/21 95/204/21 
f 136/205/12 137/207/12 97/208/12 96/206/12 
f 137/207/13 138/209/13 98/210/13 97/208/13 
f 138/209/14 139/211/14 99/212/14 98/210/14 
f 139/211/15 140/213/15 94/214/15 99/212/15 
f 140/213/16 132/193/16 100/196/16 94/214/16 
f 141/215/11 142/216/11 143/217/11 144/218/11 
f 145/219/19 146/220/19 147/221/19 148/222/19 
f 149/223/62 150/224/62 151/225/62 152/226/62 
f 153/227/63 154/228/63 155/229/63 156/230/63 
f 157/231/64 158/232/64 159/233/64 160/234/64 
f 146/235/65 143/236/65 157/231/65 
f 150/224/66 144/237/66 145/219/66 
f 158/232/67 142/238/67 153/227/67 
f 154/228/68 141/239/68 149/223/68 
f 143/217/69 146/220/69 145/219/69 144/218/69 
f 144/240/70 150/224/70 149/223/70 141/241/70 
f 141/242/71 154/228/71 153/227/71 142/243/71 
f 142/244/72 158/232/72 157/231/72 143/245/72 
f 148/222/73 151/225/73 150/224/73 145/219/73 
f 146/235/74 157/231/74 160/234/74 147/246/74 
f 152/226/75 155/229/75 154/228/75 149/223/75 
f 156/230/76 159/233/76 158/232/76 153/227/76 
# 139 polygons - 8 triangles

