# 3ds Max Wavefront OBJ Exporter v0.97b - (c)2007 guruware
# File Created: 20.11.2013 16:13:02

#
# object e_porch02_asset_005
#

v  1145.5879 10.5851 1557.1309
v  1145.5879 47.8522 1557.1309
v  1132.6196 47.8522 1521.5010
v  1132.6196 10.5851 1521.5010
v  1129.4460 7.1983 1522.6560
v  1142.3522 7.1983 1558.1152
v  1142.3833 10.7704 1558.2007
v  1129.4772 10.7704 1522.7413
v  1131.5551 10.7773 1518.5757
v  1131.5549 48.0443 1518.5757
v  1125.6511 48.0443 1502.3551
v  1125.6511 10.7773 1502.3551
v  1122.5059 7.1983 1503.5879
v  1128.3531 7.1983 1519.6531
v  1128.3672 10.8665 1519.6919
v  1122.4917 10.8665 1503.5491
v  1130.5350 10.7705 1522.3563
v  1130.5039 47.8522 1522.2710
v  1129.4392 48.0443 1519.3458
v  1129.4252 10.8665 1519.3069
v  1122.4775 48.0443 1503.5101
v  1120.9869 48.0447 1499.4175
v  1120.9751 10.8710 1499.3652
v  1120.9506 7.2065 1499.3174
v  1143.8939 10.8712 1562.3335
v  1143.8683 48.0447 1562.2837
v  1142.4143 47.8522 1558.2860
v  1143.9063 7.2068 1562.3881
v  1145.5879 86.8242 1557.1309
v  1132.6196 86.8242 1521.5010
v  1132.6196 51.2622 1521.5010
v  1145.5879 51.2622 1557.1309
v  1131.5549 86.6348 1518.5757
v  1125.6511 86.6348 1502.3551
v  1125.6511 51.0727 1502.3551
v  1131.5549 51.0727 1518.5757
v  1130.5039 86.8242 1522.2710
v  1129.4392 86.6348 1519.3458
v  1129.4392 51.0727 1519.3458
v  1130.5039 51.2622 1522.2710
v  1122.4775 86.6348 1503.5101
v  1120.9869 86.6348 1499.4175
v  1120.9869 51.0727 1499.4175
v  1122.4775 51.0727 1503.5101
v  1143.8683 86.6348 1562.2837
v  1142.4143 86.8242 1558.2860
v  1142.4143 51.2622 1558.2860
v  1143.8683 51.0727 1562.2837
v  1143.4722 86.8242 1557.9010
v  1143.4722 89.7351 1557.9009
v  1130.5039 89.7351 1522.2710
v  1129.4392 89.7351 1519.3458
v  1123.5354 89.7351 1503.1251
v  1123.5354 86.6348 1503.1251
v  1122.4775 89.7351 1503.5101
v  1120.9869 89.7351 1499.4175
v  1143.8683 89.7351 1562.2837
v  1142.4143 89.7351 1558.2860
v  1123.5354 51.0727 1503.1251
v  1123.5354 48.0443 1503.1251
v  1125.4166 48.0447 1497.8497
v  1125.4517 10.8893 1497.7639
v  1143.4412 10.7705 1557.8156
v  1143.4722 47.8522 1557.9010
v  1143.4722 51.2622 1557.9010
v  1123.5496 10.8665 1503.1639
v  1148.2916 10.8353 1560.6566
v  1148.2688 48.0447 1560.6356
v  1125.4166 86.6348 1497.8497
v  1125.4166 51.0727 1497.8497
v  1148.2688 51.0727 1560.6356
v  1148.2688 86.6348 1560.6356
v  1148.2688 89.7351 1560.6356
v  1148.3590 7.2113 1560.7207
v  1125.4207 10.8467 1497.8203
v  1125.4318 7.2108 1497.7288
v  1125.4166 89.7351 1497.8497
v  1125.8016 48.0443 1498.9076
v  1125.7971 10.7996 1498.8951
v  1147.8885 10.7996 1559.5908
v  1147.8838 48.0444 1559.5778
v  1125.8016 86.6348 1498.9076
v  1125.8016 51.0727 1498.9076
v  1147.8838 51.0727 1559.5778
v  1147.8838 86.6348 1559.5778
v  1147.8838 89.7351 1559.5778
v  1125.8016 89.7351 1498.9076
v  1168.5488 10.7773 1485.7450
v  1126.5718 10.7773 1501.0234
v  1126.5718 48.0444 1501.0234
v  1168.5488 48.0444 1485.7450
v  1167.2515 10.9559 1482.5052
v  1167.3558 7.1984 1482.4673
v  1167.7788 10.7773 1483.6293
v  1168.5488 86.6348 1485.7450
v  1168.5488 51.0728 1485.7450
v  1126.5718 51.0728 1501.0234
v  1126.5718 86.6348 1501.0234
v  1167.7788 86.6348 1483.6293
v  1167.7788 89.7351 1483.6293
v  1167.7788 48.0444 1483.6293
v  1167.7788 51.0728 1483.6293
v  1189.0908 10.7773 1542.1836
v  1189.0908 48.0444 1542.1836
v  1147.1138 48.0444 1557.4620
v  1147.1136 10.7773 1557.4620
v  1190.2838 7.1984 1545.4613
v  1190.1794 10.9559 1545.4993
v  1148.4111 10.9559 1560.7017
v  1189.8610 10.7773 1544.2993
v  1189.0908 86.6348 1542.1836
v  1147.1138 86.6348 1557.4620
v  1147.1136 51.0728 1557.4620
v  1189.0908 51.0728 1542.1836
v  1189.8610 86.6348 1544.2993
v  1189.8610 89.7351 1544.2993
v  1189.8610 48.0444 1544.2993
v  1189.8610 51.0728 1544.2993
v  1132.4292 118.5991 1530.8523
v  1132.4283 123.1487 1530.8527
v  1133.4872 118.5991 1530.4673
v  1145.5880 89.7351 1557.1309
v  1132.6198 89.7351 1521.5009
v  1131.5551 89.7351 1518.5757
v  1125.6512 89.7351 1502.3550
v  1135.6030 118.5991 1529.6971
v  1141.3412 127.3012 1527.6086
v  1185.4585 127.3013 1511.5514
v  1171.9984 88.6244 1474.5701
v  1127.8812 88.6243 1490.6274
v  1115.4082 88.6243 1495.1672
v  1116.9556 88.6243 1499.4183
v  1128.8683 123.1487 1532.1484
v  1128.8683 127.3013 1532.1484
v  1129.4285 88.6243 1494.8787
v  1141.3412 123.1486 1527.6086
v  1173.5457 88.6243 1478.8213
v  1141.3413 127.3012 1527.6088
v  1154.8014 88.6243 1564.5901
v  1198.9186 88.6244 1548.5327
v  1142.3285 88.6243 1569.1299
v  1128.8683 127.3013 1532.1486
v  1128.8683 123.1487 1532.1486
v  1140.7811 88.6243 1564.8787
v  1141.3413 123.1486 1527.6088
v  1153.2540 88.6243 1560.3389
v  1197.3712 88.6243 1544.2815
# 147 vertices

vn -0.9397 -0.0000 0.3420
vn -0.9401 -0.0002 0.3409
vn -0.9396 -0.0000 0.3422
vn -0.9401 -0.0002 0.3408
vn -0.9399 0.0009 0.3415
vn -0.9393 -0.0000 0.3432
vn -0.9398 -0.0001 0.3418
vn -0.9398 -0.0001 0.3419
vn -0.9392 -0.0000 0.3433
vn -0.9395 0.0010 0.3425
vn -0.9397 0.0000 0.3420
vn -0.9398 -0.0000 0.3418
vn -0.3352 0.0016 -0.9421
vn 0.0771 0.9966 -0.0281
vn -0.3230 0.0012 -0.9464
vn -0.3420 0.0000 -0.9397
vn 0.0000 -1.0000 -0.0000
vn 0.3420 0.0000 0.9397
vn 0.3609 0.0012 0.9326
vn -0.3334 0.0006 -0.9428
vn 0.3506 0.0006 0.9365
vn 0.0372 0.9992 -0.0136
vn 0.3535 0.0011 0.9354
vn -0.3336 0.0000 -0.9427
vn 0.0000 1.0000 -0.0000
vn 0.3507 0.0000 0.9365
vn 0.3535 0.0191 0.9353
vn -0.3311 0.0186 -0.9434
vn -0.0000 1.0000 0.0000
vn 0.0101 0.9996 0.0278
vn 0.3420 0.0011 0.9397
vn -0.3420 0.0024 -0.9397
vn 0.9486 0.0008 -0.3165
vn 0.9375 0.0002 -0.3479
vn 0.9397 0.0000 -0.3420
vn -0.3420 -0.0000 -0.9397
vn -0.3425 0.0054 -0.9395
vn 0.0373 0.9939 0.1038
vn 0.0000 -1.0000 0.0000
vn 0.0019 1.0000 0.0046
vn -0.0000 1.0000 -0.0000
vn -0.0459 0.9909 -0.1268
vn 0.3420 -0.0000 0.9397
vn -0.0000 -1.0000 -0.0000
vn -0.0015 1.0000 -0.0047
vn 0.0000 1.0000 0.0000
vn 0.9397 -0.0000 -0.3420
vn -0.9396 -0.0002 0.3422
vn -0.9398 -0.0002 0.3418
vn 0.2409 -0.7099 0.6618
vn -0.2405 -0.7111 -0.6607
vn -0.2397 0.7132 -0.6587
vn 0.2408 -0.7102 0.6615
vn 0.2397 0.7132 0.6587
vn -0.2408 -0.7102 -0.6615
# 55 vertex normals

vt 0.5400 0.6348 0.0000
vt 0.5400 0.8064 0.0000
vt 0.3316 0.8064 0.0000
vt 0.3316 0.6348 0.0000
vt 0.4531 0.6047 0.7518
vt 0.6728 0.6047 0.7518
vt 0.6734 0.5896 0.7875
vt 0.4536 0.5896 0.7875
vt 0.3216 0.6348 0.0000
vt 0.3216 0.8065 0.0000
vt 0.2267 0.8065 0.0000
vt 0.2267 0.6348 0.0000
vt 0.3349 0.6047 0.7518
vt 0.4345 0.6047 0.7518
vt 0.4347 0.5894 0.8094
vt 0.3346 0.5894 0.8094
vt 0.6180 0.0340 0.0000
vt 0.6176 0.2271 0.0000
vt 0.6024 0.2281 0.0000
vt 0.6022 0.0345 0.0000
vt 0.9648 0.5910 0.7306
vt 0.9647 0.7719 0.7238
vt 0.9419 0.7719 0.7220
vt 0.9417 0.5910 0.7297
vt 0.3084 0.6047 0.7503
vt 0.3087 0.5893 0.8091
vt 0.8476 0.5963 0.7353
vt 0.8474 0.7755 0.7283
vt 0.8267 0.7746 0.6949
vt 0.8263 0.5958 0.7077
vt 0.6993 0.6047 0.7502
vt 0.6990 0.5893 0.8091
vt 0.5400 0.9859 0.0000
vt 0.3316 0.9859 0.0000
vt 0.3316 0.8221 0.0000
vt 0.5400 0.8221 0.0000
vt 0.3222 0.9866 0.0000
vt 0.2273 0.9866 0.0000
vt 0.2273 0.8228 0.0000
vt 0.3222 0.8228 0.0000
vt 0.6176 0.4301 0.0000
vt 0.6024 0.4292 0.0000
vt 0.6024 0.2439 0.0000
vt 0.6176 0.2449 0.0000
vt 0.9647 0.9597 0.7238
vt 0.9419 0.9597 0.7220
vt 0.9419 0.7866 0.7220
vt 0.9647 0.7866 0.7238
vt 0.8474 0.9615 0.7283
vt 0.8267 0.9624 0.6949
vt 0.8267 0.7910 0.6949
vt 0.8474 0.7901 0.7283
vt 0.8019 0.4301 0.0000
vt 0.8019 0.4453 0.0000
vt 0.6176 0.4453 0.0000
vt 0.6024 0.4453 0.0000
vt 0.5185 0.4453 0.0000
vt 0.5185 0.4292 0.0000
vt 0.9647 0.9747 0.7238
vt 0.9419 0.9747 0.7220
vt 0.8474 0.9765 0.7283
vt 0.8267 0.9765 0.6949
vt 0.5185 0.2439 0.0000
vt 0.5185 0.2281 0.0000
vt 0.9185 0.7719 0.7056
vt 0.9186 0.5911 0.7264
vt 0.4536 0.5855 0.5767
vt 0.6734 0.5855 0.5767
vt 0.6739 0.5740 0.6933
vt 0.4531 0.5740 0.6933
vt 0.8216 0.5958 0.5531
vt 0.8219 0.7746 0.5361
vt 0.8074 0.7746 0.5347
vt 0.8074 0.5949 0.5347
vt 0.8219 0.7910 0.5361
vt 0.8074 0.7910 0.5347
vt 0.8219 0.9624 0.5361
vt 0.8074 0.9624 0.5347
vt 0.6398 0.3303 0.0000
vt 0.8306 0.3303 0.0000
vt 0.8306 0.3416 0.0000
vt 0.6398 0.3416 0.0000
vt 0.9569 0.1000 0.0000
vt 0.9569 0.2790 0.0000
vt 0.9455 0.2790 0.0000
vt 0.9455 0.1000 0.0000
vt 0.9569 0.2962 0.0000
vt 0.9455 0.2962 0.0000
vt 0.9569 0.4828 0.0000
vt 0.9455 0.4837 0.0000
vt 0.6395 0.3538 0.0000
vt 0.8266 0.3538 0.0000
vt 0.8266 0.3651 0.0000
vt 0.6390 0.3651 0.0000
vt 0.7556 0.4833 0.0000
vt 0.8425 0.4833 0.0000
vt 0.8425 0.4946 0.0000
vt 0.7556 0.4946 0.0000
vt 0.9691 0.7719 0.5755
vt 0.9692 0.5910 0.5840
vt 0.9823 0.5905 0.5514
vt 0.9823 0.7719 0.5514
vt 0.3346 0.5853 0.6049
vt 0.4347 0.5853 0.6049
vt 0.4349 0.5746 0.7321
vt 0.3344 0.5746 0.7321
vt 0.8725 0.5961 0.6771
vt 0.8725 0.7755 0.6710
vt 0.9185 0.9597 0.7056
vt 0.9185 0.7866 0.7056
vt 0.7556 0.5351 0.0000
vt 0.8425 0.5351 0.0000
vt 0.8425 0.5465 0.0000
vt 0.7556 0.5465 0.0000
vt 0.9691 0.9597 0.5755
vt 0.9691 0.7866 0.5755
vt 0.9823 0.7866 0.5514
vt 0.9823 0.9597 0.5514
vt 0.7556 0.5092 0.0000
vt 0.8425 0.5092 0.0000
vt 0.8425 0.5205 0.0000
vt 0.7556 0.5205 0.0000
vt 0.6372 0.3773 0.0000
vt 0.8162 0.3773 0.0000
vt 0.8162 0.3886 0.0000
vt 0.6372 0.3886 0.0000
vt 0.8725 0.7901 0.6710
vt 0.8725 0.9615 0.6710
vt 0.8725 0.9765 0.6710
vt 0.3738 0.5374 1.9525
vt 0.3738 0.5543 1.9063
vt 0.3997 0.5545 1.8816
vt 0.3995 0.5373 1.8929
vt 0.3735 0.4683 1.2693
vt 0.3735 0.4841 1.2241
vt 0.3999 0.4843 1.1911
vt 0.4002 0.4682 1.2535
vt 0.9185 0.9747 0.7056
vt 0.9691 0.9747 0.5755
vt 0.8219 0.9765 0.5361
vt 0.9135 0.7719 0.5546
vt 0.9136 0.5906 0.5559
vt 0.8776 0.5959 0.5526
vt 0.8777 0.7755 0.5517
vt 0.9135 0.9597 0.5546
vt 0.9135 0.7866 0.5546
vt 0.8777 0.7901 0.5517
vt 0.8777 0.9615 0.5517
vt 0.8777 0.9765 0.5517
vt 0.9135 0.9747 0.5546
vt 0.2169 0.6349 0.0000
vt 0.0139 0.6349 0.0000
vt 0.0139 0.8064 0.0000
vt 0.2169 0.8064 0.0000
vt 0.4002 0.4843 1.2207
vt 0.6501 0.4843 1.2585
vt 0.6507 0.4682 1.2585
vt 0.3998 0.4891 0.8635
vt 0.6507 0.4892 0.8513
vt 0.2183 0.9855 0.0000
vt 0.2183 0.8219 0.0000
vt 0.0152 0.8219 0.0000
vt 0.0152 0.9855 0.0000
vt 0.0252 0.5307 0.0000
vt 0.2424 0.5307 0.0000
vt 0.2424 0.5468 0.0000
vt 0.0252 0.5468 0.0000
vt 0.0250 0.5014 0.0000
vt 0.2422 0.5014 0.0000
vt 0.2422 0.5172 0.0000
vt 0.0250 0.5172 0.0000
vt 0.6471 0.1860 0.0000
vt 0.6471 0.1747 0.0000
vt 0.8719 0.1747 0.0000
vt 0.8719 0.1860 0.0000
vt 0.3998 0.5007 1.2132
vt 0.6507 0.5007 1.2132
vt 0.6471 0.2119 0.0000
vt 0.6471 0.2006 0.0000
vt 0.8719 0.2006 0.0000
vt 0.8719 0.2119 0.0000
vt 0.8719 0.2265 0.0000
vt 0.8719 0.2379 0.0000
vt 0.6471 0.2379 0.0000
vt 0.6471 0.2265 0.0000
vt 0.7596 0.6338 0.0000
vt 0.7596 0.8053 0.0000
vt 0.5566 0.8053 0.0000
vt 0.5566 0.6338 0.0000
vt 0.6430 0.5545 1.8886
vt 0.6424 0.5372 2.0069
vt 0.4000 0.5372 2.0069
vt 0.6430 0.5326 1.3681
vt 0.3994 0.5326 1.3880
vt 0.7590 0.9857 0.0000
vt 0.5559 0.9857 0.0000
vt 0.5559 0.8221 0.0000
vt 0.7590 0.8221 0.0000
vt 0.0270 0.5895 0.0000
vt 0.0270 0.6056 0.0000
vt 0.2442 0.6056 0.0000
vt 0.2442 0.5895 0.0000
vt 0.0270 0.5635 0.0000
vt 0.0270 0.5793 0.0000
vt 0.2442 0.5793 0.0000
vt 0.2442 0.5635 0.0000
vt 0.6471 0.2784 0.0000
vt 0.8719 0.2784 0.0000
vt 0.8719 0.2897 0.0000
vt 0.6471 0.2897 0.0000
vt 0.6430 0.5208 1.8178
vt 0.3994 0.5208 1.8178
vt 0.6471 0.2525 0.0000
vt 0.8719 0.2525 0.0000
vt 0.8719 0.2638 0.0000
vt 0.6471 0.2638 0.0000
vt 0.8719 0.3157 0.0000
vt 0.6471 0.3157 0.0000
vt 0.6471 0.3043 0.0000
vt 0.8719 0.3043 0.0000
vt 0.8995 0.5905 0.5806
vt 0.8995 0.7719 0.5806
vt 0.8995 0.7866 0.5806
vt 0.8995 0.9597 0.5806
vt 0.8903 0.9615 0.6139
vt 0.8903 0.7901 0.6139
vt 0.8903 0.7755 0.6139
vt 0.8903 0.5958 0.6139
vt 0.5877 0.1667 0.0000
vt 0.5670 0.1667 0.0000
vt 0.4287 0.0295 0.0000
vt 0.4287 0.0079 0.0000
vt 0.2899 0.1667 0.0000
vt 0.2697 0.1667 0.0000
vt 0.7885 0.1168 0.0000
vt 0.9292 0.1168 0.0000
vt 0.9292 0.1223 0.0000
vt 0.7885 0.1223 0.0000
vt 0.6474 0.1168 0.0000
vt 0.6474 0.1223 0.0000
vt 0.7454 0.1469 0.0000
vt 0.9287 0.1469 0.0000
vt 0.9287 0.1578 0.0000
vt 0.7454 0.1578 0.0000
vt 0.6469 0.1469 0.0000
vt 0.7304 0.1469 0.0000
vt 0.7304 0.1578 0.0000
vt 0.6469 0.1578 0.0000
vt 0.9292 0.1332 0.0000
vt 0.7885 0.1332 0.0000
vt 0.6474 0.1332 0.0000
vt 0.1267 0.0136 0.0000
vt 0.3301 0.0136 0.0000
vt 0.1735 0.1586 0.0000
vt 0.0175 0.0136 0.0000
vt 0.1101 0.0136 0.0000
vt 0.2163 0.4882 0.0000
vt 0.0106 0.4882 0.0000
vt 0.0106 0.1759 0.0000
vt 0.2163 0.1759 0.0000
vt 0.3889 0.1581 0.0000
vt 0.3780 0.1690 0.0000
vt 0.3774 0.4404 0.0000
vt 0.3871 0.4500 0.0000
vt 0.2886 0.2112 0.0000
vt 0.3501 0.2112 0.0000
vt 0.3501 0.4854 0.0000
vt 0.2886 0.4854 0.0000
vt 0.4210 0.2154 0.0000
vt 0.4210 0.4577 0.0000
vt 0.4369 0.4577 0.0000
vt 0.4369 0.2154 0.0000
vt 0.2744 0.4882 0.0000
vt 0.2744 0.1759 0.0000
vt 0.4210 0.1470 0.0000
vt 0.4369 0.1470 0.0000
vt 1.2163 0.4882 0.0000
vt 1.2163 0.1759 0.0000
vt 1.0106 0.1759 0.0000
vt 1.0106 0.4882 0.0000
vt 1.3889 0.1581 0.0000
vt 1.3871 0.4500 0.0000
vt 1.3774 0.4404 0.0000
vt 1.3780 0.1690 0.0000
vt 1.2886 0.2112 0.0000
vt 1.2886 0.4854 0.0000
vt 1.3501 0.4854 0.0000
vt 1.3501 0.2112 0.0000
vt 1.4210 0.2154 0.0000
vt 1.4369 0.2154 0.0000
vt 1.4369 0.4577 0.0000
vt 1.4210 0.4577 0.0000
vt 1.2744 0.4882 0.0000
vt 1.2744 0.1759 0.0000
vt 1.4210 0.1470 0.0000
vt 1.4369 0.1470 0.0000
# 296 texture coords

g e_porch02_asset_005
s 1
f 1/1/1 2/2/1 3/3/1 4/4/1 
s off
f 5/5/1 6/6/1 7/7/1 8/8/1 
s 1
f 9/9/1 10/10/1 11/11/1 12/12/1 
s off
f 13/13/1 14/14/1 15/15/1 16/16/1 
s 1
f 17/17/1 18/18/1 19/19/1 20/20/1 
s off
f 14/14/1 5/5/1 8/8/1 15/15/1 
s 1
f 16/21/2 21/22/3 22/23/3 23/24/4 
s off
f 24/25/5 13/13/5 16/16/5 23/26/5 
s 1
f 25/27/6 26/28/7 27/29/8 7/30/9 
s off
f 6/6/10 28/31/10 25/32/10 7/7/10 
s 1
f 29/33/1 30/34/1 31/35/1 32/36/1 
f 33/37/1 34/38/1 35/39/1 36/40/1 
f 37/41/1 38/42/11 39/43/1 40/44/1 
f 41/45/3 42/46/3 43/47/3 44/48/3 
f 45/49/12 46/50/12 47/51/12 48/52/12 
f 49/53/11 50/54/11 51/55/1 37/41/1 
f 38/42/11 52/56/1 53/57/11 54/58/11 
f 37/41/1 51/55/1 52/56/1 38/42/11 
f 41/45/3 55/59/3 56/60/3 42/46/3 
f 45/49/12 57/61/12 58/62/12 46/50/12 
f 2/2/1 32/36/1 31/35/1 3/3/1 
f 19/19/1 39/43/1 59/63/1 60/64/1 
f 18/18/1 40/44/1 39/43/1 19/19/1 
f 21/22/3 44/48/3 43/47/3 22/23/3 
f 26/28/7 48/52/12 47/51/12 27/29/8 
s off
f 23/24/13 22/23/13 61/65/13 62/66/13 
f 17/67/14 63/68/14 1/69/14 4/70/14 
f 63/71/15 64/72/15 2/73/15 1/74/15 
f 64/72/16 65/75/16 32/76/16 2/73/16 
f 65/75/16 49/77/16 29/78/16 32/76/16 
f 49/79/17 37/80/17 30/81/17 29/82/17 
f 37/83/18 40/84/18 31/85/18 30/86/18 
f 40/84/18 18/87/18 3/88/18 31/85/18 
f 18/87/19 17/89/19 4/90/19 3/88/19 
f 20/91/20 19/92/20 10/93/20 9/94/20 
f 19/95/17 60/96/17 11/97/17 10/98/17 
f 60/99/21 66/100/21 12/101/21 11/102/21 
f 66/103/22 20/104/22 9/105/22 12/106/22 
f 26/28/23 25/27/23 67/107/23 68/108/23 
f 43/47/24 42/46/24 69/109/24 70/110/24 
f 38/111/17 54/112/17 34/113/17 33/114/17 
f 54/115/18 59/116/18 35/117/18 34/118/18 
f 59/119/25 39/120/25 36/121/25 35/122/25 
f 39/123/16 38/124/16 33/125/16 36/126/16 
f 45/49/26 48/52/26 71/127/26 72/128/26 
f 73/129/26 57/61/26 45/49/26 72/128/26 
s 2
f 48/52/26 26/28/26 68/108/26 71/127/26 
s off
f 25/130/27 28/131/27 74/132/27 67/133/27 
f 24/134/28 23/135/28 75/136/28 76/137/28 
s 2
f 42/46/24 56/60/24 77/138/24 69/109/24 
f 70/110/24 61/65/24 22/23/24 43/47/24 
s off
f 63/68/29 17/67/29 8/8/29 7/7/29 
f 20/104/29 66/103/29 16/16/29 15/15/29 
f 17/67/30 20/104/30 15/15/30 8/8/30 
f 66/100/31 60/99/31 21/22/31 16/21/31 
f 64/72/32 63/71/32 7/30/32 27/29/32 
f 59/116/18 54/115/18 41/45/18 44/48/18 
f 49/77/16 65/75/16 47/51/16 46/50/16 
f 54/115/18 53/139/18 55/59/18 41/45/18 
f 50/140/16 49/77/16 46/50/16 58/62/16 
f 60/99/18 59/116/18 44/48/18 21/22/18 
f 65/75/16 64/72/16 27/29/16 47/51/16 
f 78/141/33 79/142/33 62/66/33 61/65/33 
f 80/143/34 81/144/34 68/108/34 67/107/34 
f 82/145/35 83/146/35 70/110/35 69/109/35 
f 84/147/35 85/148/35 72/128/35 71/127/35 
f 85/148/35 86/149/35 73/129/35 72/128/35 
f 81/144/35 84/147/35 71/127/35 68/108/35 
f 87/150/35 82/145/35 69/109/35 77/138/35 
f 83/146/35 78/141/35 61/65/35 70/110/35 
s 1
f 88/151/36 89/152/36 90/153/36 91/154/36 
s off
f 76/137/37 62/155/37 92/156/37 93/157/37 
f 92/156/38 62/155/38 79/158/38 94/159/38 
s 1
f 95/160/16 96/161/36 97/162/16 98/163/16 
f 99/164/36 82/165/36 87/166/36 100/167/36 
f 101/168/16 78/169/16 83/170/16 102/171/16 
s off
f 101/172/39 91/173/39 90/174/39 78/175/39 
f 79/158/40 89/176/40 88/177/40 94/159/40 
f 99/178/39 95/179/39 98/180/39 82/181/39 
f 83/182/41 97/183/41 96/184/41 102/185/41 
s 1
f 103/186/18 104/187/18 105/188/18 106/189/18 
s off
f 74/132/18 107/190/18 108/191/18 109/192/18 
f 108/191/42 110/193/42 80/194/42 109/192/42 
s 1
f 111/195/18 112/196/43 113/197/18 114/198/18 
f 115/199/43 116/200/43 86/201/43 85/202/18 
f 117/203/43 118/204/43 84/205/43 81/206/43 
s off
f 117/207/44 81/208/44 105/209/44 104/210/44 
f 80/194/45 110/193/45 103/211/45 106/212/45 
f 115/213/44 85/214/44 112/215/44 111/216/44 
f 84/217/46 118/218/46 114/219/46 113/220/46 
s 2
f 89/221/35 79/142/35 78/141/47 90/222/47 
f 97/223/35 83/146/35 82/145/47 98/224/47 
f 112/225/35 85/148/35 84/147/47 113/226/47 
f 105/227/35 81/144/35 80/143/47 106/228/47 
s off
f 56/229/48 55/230/48 119/231/48 120/232/48 
f 120/232/49 119/231/49 58/233/49 57/234/49 
f 119/235/50 55/236/50 53/237/50 121/238/50 
f 58/239/51 119/235/51 121/238/51 50/240/51 
f 51/241/29 50/242/29 122/243/29 123/244/29 
f 53/245/41 52/246/41 124/247/41 125/248/41 
f 52/246/29 51/241/29 123/244/29 124/247/29 
f 121/238/50 53/237/50 125/249/50 126/250/50 
f 50/240/51 121/238/51 126/250/51 122/251/51 
f 123/252/11 122/253/11 126/254/11 
f 125/255/11 124/256/11 123/252/11 126/254/11 
f 127/257/52 128/258/52 129/259/52 130/260/52 
f 131/261/1 132/262/1 133/263/1 134/264/1 
f 132/265/53 135/266/53 136/267/53 133/268/53 
f 130/269/17 129/270/17 137/271/17 135/272/17 
f 134/273/52 127/257/52 130/260/52 131/274/52 
f 131/275/39 130/269/39 135/272/39 132/276/39 
f 138/277/54 139/278/54 140/279/54 128/280/54 
f 141/281/1 142/282/1 143/283/1 144/284/1 
f 144/285/55 143/286/55 145/287/55 146/288/55 
f 139/289/17 146/290/17 147/291/17 140/292/17 
f 142/293/54 141/294/54 139/278/54 138/277/54 
f 141/295/44 144/296/44 146/290/44 139/289/44 
# 116 polygons - 1 triangles

