# 3ds Max Wavefront OBJ Exporter v0.97b - (c)2007 guruware
# File Created: 20.11.2013 16:22:17

#
# object e_porch02_asset_001
#

v  160.2327 10.5851 1076.6080
v  160.2327 47.8522 1076.6080
v  122.4604 47.8522 1079.9127
v  122.4604 10.5851 1079.9127
v  122.7547 7.1983 1083.2771
v  160.3461 7.1983 1079.9883
v  160.4366 10.7704 1079.9803
v  122.8452 10.7704 1083.2692
v  119.3593 10.7773 1080.1840
v  119.3593 48.0443 1080.1840
v  102.1633 48.0443 1081.6885
v  102.1633 10.7773 1081.6885
v  102.5400 7.1983 1085.0457
v  119.5712 7.1983 1083.5555
v  119.6124 10.8665 1083.5520
v  102.4988 10.8665 1085.0493
v  122.7471 10.7705 1082.1477
v  122.6566 47.8522 1082.1556
v  119.5555 48.0443 1082.4270
v  119.5143 10.8665 1082.4305
v  102.4576 48.0443 1085.0529
v  98.1187 48.0447 1085.4335
v  98.0651 10.8710 1085.4314
v  98.0126 7.2065 1085.4426
v  164.8195 10.8712 1079.5909
v  164.7648 48.0447 1079.6028
v  160.5270 47.8522 1079.9725
v  164.8755 7.2068 1079.5930
v  160.2327 86.8242 1076.6080
v  122.4604 86.8242 1079.9127
v  122.4604 51.2622 1079.9127
v  160.2327 51.2622 1076.6080
v  119.3593 86.6348 1080.1840
v  102.1633 86.6348 1081.6885
v  102.1633 51.0727 1081.6885
v  119.3593 51.0727 1080.1840
v  122.6566 86.8242 1082.1556
v  119.5555 86.6348 1082.4270
v  119.5555 51.0727 1082.4270
v  122.6566 51.2622 1082.1556
v  102.4576 86.6348 1085.0529
v  98.1187 86.6348 1085.4335
v  98.1187 51.0727 1085.4335
v  102.4576 51.0727 1085.0529
v  164.7648 86.6348 1079.6028
v  160.5270 86.8242 1079.9725
v  160.5270 51.2622 1079.9725
v  164.7648 51.0727 1079.6028
v  160.4289 86.8242 1078.8510
v  160.4289 89.7351 1078.8510
v  122.6566 89.7351 1082.1556
v  119.5555 89.7351 1082.4270
v  102.3595 89.7351 1083.9314
v  102.3595 86.6348 1083.9314
v  102.4576 89.7351 1085.0529
v  98.1187 89.7351 1085.4335
v  164.7648 89.7351 1079.6028
v  160.5270 89.7351 1079.9725
v  102.3595 51.0727 1083.9314
v  102.3595 48.0443 1083.9314
v  97.7508 48.0447 1080.7489
v  97.6770 10.8893 1080.6929
v  160.3384 10.7705 1078.8589
v  160.4289 47.8522 1078.8510
v  160.4289 51.2622 1078.8510
v  102.4007 10.8665 1083.9277
v  164.3381 10.8353 1074.9091
v  164.3119 48.0447 1074.9255
v  97.7508 86.6348 1080.7489
v  97.7508 51.0727 1080.7489
v  164.3119 51.0727 1074.9255
v  164.3119 86.6348 1074.9255
v  164.3119 89.7351 1074.9255
v  164.4174 7.2113 1074.8606
v  97.7234 10.8467 1080.7374
v  97.6378 7.2108 1080.7030
v  97.7508 89.7351 1080.7489
v  98.8723 48.0443 1080.6508
v  98.8590 10.7996 1080.6520
v  163.2042 10.7996 1075.0225
v  163.1904 48.0444 1075.0237
v  98.8723 86.6348 1080.6508
v  98.8723 51.0727 1080.6508
v  163.1904 51.0727 1075.0237
v  163.1904 86.6348 1075.0237
v  163.1904 89.7351 1075.0237
v  98.8723 89.7351 1080.6508
v  97.2220 10.7773 1035.9534
v  101.1153 10.7773 1080.4546
v  101.1153 48.0444 1080.4546
v  97.2220 48.0444 1035.9534
v  93.7568 10.9559 1036.3682
v  93.7472 7.1984 1036.2574
v  94.9790 10.7773 1036.1497
v  97.2220 86.6348 1035.9534
v  97.2220 51.0728 1035.9534
v  101.1153 51.0728 1080.4546
v  101.1153 86.6348 1080.4546
v  94.9790 86.6348 1036.1497
v  94.9790 89.7351 1036.1497
v  94.9790 48.0444 1036.1497
v  94.9790 51.0728 1036.1497
v  157.0541 10.7773 1030.7188
v  157.0541 48.0444 1030.7188
v  160.9474 48.0444 1075.2200
v  160.9474 10.7773 1075.2200
v  160.5289 7.1984 1030.4148
v  160.5386 10.9559 1030.5255
v  164.4126 10.9559 1074.8052
v  159.2971 10.7773 1030.5226
v  157.0541 86.6348 1030.7188
v  160.9474 86.6348 1075.2200
v  160.9474 51.0728 1075.2200
v  157.0541 51.0728 1030.7188
v  159.2971 86.6348 1030.5226
v  159.2971 89.7351 1030.5226
v  159.2971 48.0444 1030.5226
v  159.2971 51.0728 1030.5226
v  131.4438 118.5991 1082.5170
v  131.4440 123.1487 1082.5178
v  131.3457 118.5991 1081.3954
v  160.2327 89.7351 1076.6079
v  122.4604 89.7351 1079.9126
v  119.3593 89.7351 1080.1840
v  102.1633 89.7351 1081.6884
v  131.1495 118.5991 1079.1523
v  130.6173 127.3012 1073.0691
v  126.5255 127.3013 1026.2992
v  87.3206 88.6244 1029.7292
v  91.4124 88.6243 1076.4990
v  92.5693 88.6243 1089.7220
v  97.0761 88.6243 1089.3276
v  131.7742 123.1487 1086.2920
v  131.7742 127.3013 1086.2920
v  95.9193 88.6243 1076.1047
v  130.6173 123.1486 1073.0691
v  91.8274 88.6243 1029.3348
v  130.6174 127.3012 1073.0691
v  169.8223 88.6243 1069.6390
v  165.7305 88.6244 1022.8692
v  126.5256 127.3013 1026.2992
v  170.9792 88.6243 1082.8621
v  131.7743 127.3013 1086.2920
v  131.7743 123.1487 1086.2920
v  166.4724 88.6243 1083.2563
v  130.6174 123.1486 1073.0691
v  165.3155 88.6243 1070.0334
v  161.2236 88.6243 1023.2635
# 148 vertices

vn 0.0872 -0.0000 0.9962
vn 0.0860 -0.0002 0.9963
vn 0.0874 -0.0000 0.9962
vn 0.0873 -0.0000 0.9962
vn 0.0859 -0.0002 0.9963
vn 0.0866 0.0009 0.9962
vn 0.0884 -0.0000 0.9961
vn 0.0869 -0.0001 0.9962
vn 0.0870 -0.0001 0.9962
vn 0.0885 -0.0000 0.9961
vn 0.0877 0.0010 0.9961
vn 0.0872 0.0000 0.9962
vn 0.0869 -0.0000 0.9962
vn -0.9968 0.0016 0.0800
vn -0.0072 0.9966 -0.0817
vn -0.9978 0.0012 0.0670
vn -0.9962 0.0000 0.0872
vn -0.0000 -1.0000 -0.0000
vn 0.9962 0.0000 -0.0872
vn 0.9942 0.0012 -0.1073
vn -0.9970 0.0006 0.0780
vn 0.9954 0.0006 -0.0963
vn -0.0035 0.9992 -0.0395
vn 0.9951 0.0011 -0.0993
vn -0.9969 0.0000 0.0783
vn -0.0000 1.0000 -0.0000
vn 0.9953 0.0000 -0.0964
vn 0.9949 0.0191 -0.0993
vn -0.9970 0.0186 0.0757
vn 0.0000 1.0000 0.0000
vn 0.0295 0.9996 -0.0026
vn 0.9962 0.0011 -0.0872
vn -0.9962 0.0024 0.0872
vn -0.0602 0.0008 -0.9982
vn -0.0934 0.0002 -0.9956
vn -0.0871 0.0000 -0.9962
vn -0.0872 0.0000 -0.9962
vn -0.9962 -0.0000 0.0872
vn -0.9961 0.0054 0.0877
vn 0.1099 0.9939 -0.0092
vn 0.0000 -1.0000 -0.0000
vn 0.0049 1.0000 -0.0007
vn -0.0000 1.0000 0.0000
vn -0.1344 0.9909 0.0115
vn 0.9962 -0.0000 -0.0872
vn -0.0000 -1.0000 0.0000
vn -0.0049 1.0000 0.0002
vn 0.0000 1.0000 -0.0000
vn -0.0871 -0.0000 -0.9962
vn -0.0872 -0.0000 -0.9962
vn 0.0874 -0.0002 0.9962
vn 0.0869 -0.0002 0.9962
vn 0.7016 -0.7099 -0.0614
vn -0.7004 -0.7111 0.0613
vn -0.6983 0.7132 0.0611
vn 0.7013 -0.7102 -0.0614
vn 0.6983 0.7132 -0.0611
vn -0.7013 -0.7102 0.0614
# 58 vertex normals

vt 0.5400 0.6348 0.0000
vt 0.5400 0.8064 0.0000
vt 0.3316 0.8064 0.0000
vt 0.3316 0.6348 0.0000
vt 0.4531 0.6047 0.7518
vt 0.6728 0.6047 0.7518
vt 0.6734 0.5896 0.7875
vt 0.4536 0.5896 0.7875
vt 0.3216 0.6348 0.0000
vt 0.3216 0.8065 0.0000
vt 0.2267 0.8065 0.0000
vt 0.2267 0.6348 0.0000
vt 0.3349 0.6047 0.7518
vt 0.4345 0.6047 0.7518
vt 0.4347 0.5894 0.8094
vt 0.3346 0.5894 0.8094
vt 0.6180 0.0340 0.0000
vt 0.6176 0.2271 0.0000
vt 0.6024 0.2281 0.0000
vt 0.6022 0.0345 0.0000
vt 0.9648 0.5910 0.7306
vt 0.9647 0.7719 0.7238
vt 0.9419 0.7719 0.7220
vt 0.9417 0.5910 0.7297
vt 0.3084 0.6047 0.7503
vt 0.3087 0.5893 0.8091
vt 0.8476 0.5963 0.7353
vt 0.8474 0.7755 0.7283
vt 0.8267 0.7746 0.6949
vt 0.8263 0.5958 0.7077
vt 0.6993 0.6047 0.7502
vt 0.6990 0.5893 0.8091
vt 0.5400 0.9859 0.0000
vt 0.3316 0.9859 0.0000
vt 0.3316 0.8221 0.0000
vt 0.5400 0.8221 0.0000
vt 0.3222 0.9866 0.0000
vt 0.2273 0.9866 0.0000
vt 0.2273 0.8228 0.0000
vt 0.3222 0.8228 0.0000
vt 0.6176 0.4301 0.0000
vt 0.6024 0.4292 0.0000
vt 0.6024 0.2439 0.0000
vt 0.6176 0.2449 0.0000
vt 0.9647 0.9597 0.7238
vt 0.9419 0.9597 0.7220
vt 0.9419 0.7866 0.7220
vt 0.9647 0.7866 0.7238
vt 0.8474 0.9615 0.7283
vt 0.8267 0.9624 0.6949
vt 0.8267 0.7910 0.6949
vt 0.8474 0.7901 0.7283
vt 0.8019 0.4301 0.0000
vt 0.8019 0.4453 0.0000
vt 0.6176 0.4453 0.0000
vt 0.6024 0.4453 0.0000
vt 0.5185 0.4453 0.0000
vt 0.5185 0.4292 0.0000
vt 0.9647 0.9747 0.7238
vt 0.9419 0.9747 0.7220
vt 0.8474 0.9765 0.7283
vt 0.8267 0.9765 0.6949
vt 0.5185 0.2439 0.0000
vt 0.5185 0.2281 0.0000
vt 0.9185 0.7719 0.7056
vt 0.9186 0.5911 0.7264
vt 0.4536 0.5855 0.5767
vt 0.6734 0.5855 0.5767
vt 0.6739 0.5740 0.6933
vt 0.4531 0.5740 0.6933
vt 0.8216 0.5958 0.5531
vt 0.8219 0.7746 0.5361
vt 0.8074 0.7746 0.5347
vt 0.8074 0.5949 0.5347
vt 0.8219 0.7910 0.5361
vt 0.8074 0.7910 0.5347
vt 0.8219 0.9624 0.5361
vt 0.8074 0.9624 0.5347
vt 0.6398 0.3303 0.0000
vt 0.8306 0.3303 0.0000
vt 0.8306 0.3416 0.0000
vt 0.6398 0.3416 0.0000
vt 0.9569 0.1000 0.0000
vt 0.9569 0.2790 0.0000
vt 0.9455 0.2790 0.0000
vt 0.9455 0.1000 0.0000
vt 0.9569 0.2962 0.0000
vt 0.9455 0.2962 0.0000
vt 0.9569 0.4828 0.0000
vt 0.9455 0.4837 0.0000
vt 0.6395 0.3538 0.0000
vt 0.8266 0.3538 0.0000
vt 0.8266 0.3651 0.0000
vt 0.6390 0.3651 0.0000
vt 0.7556 0.4833 0.0000
vt 0.8425 0.4833 0.0000
vt 0.8425 0.4946 0.0000
vt 0.7556 0.4946 0.0000
vt 0.9691 0.7719 0.5755
vt 0.9692 0.5910 0.5840
vt 0.9823 0.5905 0.5514
vt 0.9823 0.7719 0.5514
vt 0.3346 0.5853 0.6049
vt 0.4347 0.5853 0.6049
vt 0.4349 0.5746 0.7321
vt 0.3344 0.5746 0.7321
vt 0.8725 0.5961 0.6771
vt 0.8725 0.7755 0.6710
vt 0.9185 0.9597 0.7056
vt 0.9185 0.7866 0.7056
vt 0.7556 0.5351 0.0000
vt 0.8425 0.5351 0.0000
vt 0.8425 0.5465 0.0000
vt 0.7556 0.5465 0.0000
vt 0.9691 0.9597 0.5755
vt 0.9691 0.7866 0.5755
vt 0.9823 0.7866 0.5514
vt 0.9823 0.9597 0.5514
vt 0.7556 0.5092 0.0000
vt 0.8425 0.5092 0.0000
vt 0.8425 0.5205 0.0000
vt 0.7556 0.5205 0.0000
vt 0.6372 0.3773 0.0000
vt 0.8162 0.3773 0.0000
vt 0.8162 0.3886 0.0000
vt 0.6372 0.3886 0.0000
vt 0.8725 0.7901 0.6710
vt 0.8725 0.9615 0.6710
vt 0.8725 0.9765 0.6710
vt 0.3738 0.5374 1.9525
vt 0.3738 0.5543 1.9063
vt 0.3997 0.5545 1.8816
vt 0.3995 0.5373 1.8929
vt 0.3735 0.4683 1.2693
vt 0.3735 0.4841 1.2241
vt 0.3999 0.4843 1.1911
vt 0.4002 0.4682 1.2535
vt 0.9185 0.9747 0.7056
vt 0.9691 0.9747 0.5755
vt 0.8219 0.9765 0.5361
vt 0.9135 0.7719 0.5546
vt 0.9136 0.5906 0.5559
vt 0.8776 0.5959 0.5526
vt 0.8777 0.7755 0.5517
vt 0.9135 0.9597 0.5546
vt 0.9135 0.7866 0.5546
vt 0.8777 0.7901 0.5517
vt 0.8777 0.9615 0.5517
vt 0.8777 0.9765 0.5517
vt 0.9135 0.9747 0.5546
vt 0.2169 0.6349 0.0000
vt 0.0139 0.6349 0.0000
vt 0.0139 0.8064 0.0000
vt 0.2169 0.8064 0.0000
vt 0.4002 0.4843 1.2207
vt 0.6501 0.4843 1.2585
vt 0.6507 0.4682 1.2585
vt 0.3998 0.4891 0.8635
vt 0.6507 0.4892 0.8513
vt 0.2183 0.9855 0.0000
vt 0.2183 0.8219 0.0000
vt 0.0152 0.8219 0.0000
vt 0.0152 0.9855 0.0000
vt 0.0252 0.5307 0.0000
vt 0.2424 0.5307 0.0000
vt 0.2424 0.5468 0.0000
vt 0.0252 0.5468 0.0000
vt 0.0250 0.5014 0.0000
vt 0.2422 0.5014 0.0000
vt 0.2422 0.5172 0.0000
vt 0.0250 0.5172 0.0000
vt 0.6471 0.1860 0.0000
vt 0.6471 0.1747 0.0000
vt 0.8719 0.1747 0.0000
vt 0.8719 0.1860 0.0000
vt 0.3998 0.5007 1.2132
vt 0.6507 0.5007 1.2132
vt 0.6471 0.2119 0.0000
vt 0.6471 0.2006 0.0000
vt 0.8719 0.2006 0.0000
vt 0.8719 0.2119 0.0000
vt 0.8719 0.2265 0.0000
vt 0.8719 0.2379 0.0000
vt 0.6471 0.2379 0.0000
vt 0.6471 0.2265 0.0000
vt 0.7596 0.6338 0.0000
vt 0.7596 0.8053 0.0000
vt 0.5566 0.8053 0.0000
vt 0.5566 0.6338 0.0000
vt 0.6430 0.5545 1.8886
vt 0.6424 0.5372 2.0069
vt 0.4000 0.5372 2.0069
vt 0.6430 0.5326 1.3681
vt 0.3994 0.5326 1.3880
vt 0.7590 0.9857 0.0000
vt 0.5559 0.9857 0.0000
vt 0.5559 0.8221 0.0000
vt 0.7590 0.8221 0.0000
vt 0.0270 0.5895 0.0000
vt 0.0270 0.6056 0.0000
vt 0.2442 0.6056 0.0000
vt 0.2442 0.5895 0.0000
vt 0.0270 0.5635 0.0000
vt 0.0270 0.5793 0.0000
vt 0.2442 0.5793 0.0000
vt 0.2442 0.5635 0.0000
vt 0.6471 0.2784 0.0000
vt 0.8719 0.2784 0.0000
vt 0.8719 0.2897 0.0000
vt 0.6471 0.2897 0.0000
vt 0.6430 0.5208 1.8178
vt 0.3994 0.5208 1.8178
vt 0.6471 0.2525 0.0000
vt 0.8719 0.2525 0.0000
vt 0.8719 0.2638 0.0000
vt 0.6471 0.2638 0.0000
vt 0.8719 0.3157 0.0000
vt 0.6471 0.3157 0.0000
vt 0.6471 0.3043 0.0000
vt 0.8719 0.3043 0.0000
vt 0.8995 0.5905 0.5806
vt 0.8995 0.7719 0.5806
vt 0.8995 0.7866 0.5806
vt 0.8995 0.9597 0.5806
vt 0.8903 0.9615 0.6139
vt 0.8903 0.7901 0.6139
vt 0.8903 0.7755 0.6139
vt 0.8903 0.5958 0.6139
vt 0.5877 0.1667 0.0000
vt 0.5670 0.1667 0.0000
vt 0.4287 0.0295 0.0000
vt 0.4287 0.0079 0.0000
vt 0.2899 0.1667 0.0000
vt 0.2697 0.1667 0.0000
vt 0.7885 0.1168 0.0000
vt 0.9292 0.1168 0.0000
vt 0.9292 0.1223 0.0000
vt 0.7885 0.1223 0.0000
vt 0.6474 0.1168 0.0000
vt 0.6474 0.1223 0.0000
vt 0.7454 0.1469 0.0000
vt 0.9287 0.1469 0.0000
vt 0.9287 0.1578 0.0000
vt 0.7454 0.1578 0.0000
vt 0.6469 0.1469 0.0000
vt 0.7304 0.1469 0.0000
vt 0.7304 0.1578 0.0000
vt 0.6469 0.1578 0.0000
vt 0.9292 0.1332 0.0000
vt 0.7885 0.1332 0.0000
vt 0.6474 0.1332 0.0000
vt 0.1267 0.0136 0.0000
vt 0.3301 0.0136 0.0000
vt 0.1735 0.1586 0.0000
vt 0.0175 0.0136 0.0000
vt 0.1101 0.0136 0.0000
vt 0.2163 0.4882 0.0000
vt 0.0106 0.4882 0.0000
vt 0.0106 0.1759 0.0000
vt 0.2163 0.1759 0.0000
vt 0.3889 0.1581 0.0000
vt 0.3780 0.1690 0.0000
vt 0.3774 0.4404 0.0000
vt 0.3871 0.4500 0.0000
vt 0.2886 0.2112 0.0000
vt 0.3501 0.2112 0.0000
vt 0.3501 0.4854 0.0000
vt 0.2886 0.4854 0.0000
vt 0.4210 0.2154 0.0000
vt 0.4210 0.4577 0.0000
vt 0.4369 0.4577 0.0000
vt 0.4369 0.2154 0.0000
vt 0.2744 0.4882 0.0000
vt 0.2744 0.1759 0.0000
vt 0.4210 0.1470 0.0000
vt 0.4369 0.1470 0.0000
vt 1.2163 0.4882 0.0000
vt 1.2163 0.1759 0.0000
vt 1.0106 0.1759 0.0000
vt 1.0106 0.4882 0.0000
vt 1.3889 0.1581 0.0000
vt 1.3871 0.4500 0.0000
vt 1.3774 0.4404 0.0000
vt 1.3780 0.1690 0.0000
vt 1.2886 0.2112 0.0000
vt 1.2886 0.4854 0.0000
vt 1.3501 0.4854 0.0000
vt 1.3501 0.2112 0.0000
vt 1.4210 0.2154 0.0000
vt 1.4369 0.2154 0.0000
vt 1.4369 0.4577 0.0000
vt 1.4210 0.4577 0.0000
vt 1.2744 0.4882 0.0000
vt 1.2744 0.1759 0.0000
vt 1.4210 0.1470 0.0000
vt 1.4369 0.1470 0.0000
# 296 texture coords

g e_porch02_asset_001
s 1
f 1/1/1 2/2/1 3/3/1 4/4/1 
s off
f 5/5/1 6/6/1 7/7/1 8/8/1 
s 1
f 9/9/1 10/10/1 11/11/1 12/12/1 
s off
f 13/13/1 14/14/1 15/15/1 16/16/1 
s 1
f 17/17/1 18/18/1 19/19/1 20/20/1 
s off
f 14/14/1 5/5/1 8/8/1 15/15/1 
s 1
f 16/21/2 21/22/3 22/23/4 23/24/5 
s off
f 24/25/6 13/13/6 16/16/6 23/26/6 
s 1
f 25/27/7 26/28/8 27/29/9 7/30/10 
s off
f 6/6/11 28/31/11 25/32/11 7/7/11 
s 1
f 29/33/1 30/34/1 31/35/1 32/36/1 
f 33/37/1 34/38/1 35/39/1 36/40/1 
f 37/41/1 38/42/12 39/43/1 40/44/1 
f 41/45/3 42/46/3 43/47/3 44/48/3 
f 45/49/13 46/50/13 47/51/13 48/52/13 
f 49/53/12 50/54/12 51/55/1 37/41/1 
f 38/42/12 52/56/1 53/57/12 54/58/12 
f 37/41/1 51/55/1 52/56/1 38/42/12 
f 41/45/3 55/59/3 56/60/3 42/46/3 
f 45/49/13 57/61/13 58/62/13 46/50/13 
f 2/2/1 32/36/1 31/35/1 3/3/1 
f 19/19/1 39/43/1 59/63/1 60/64/1 
f 18/18/1 40/44/1 39/43/1 19/19/1 
f 21/22/3 44/48/3 43/47/3 22/23/4 
f 26/28/8 48/52/13 47/51/13 27/29/9 
s off
f 23/24/14 22/23/14 61/65/14 62/66/14 
f 17/67/15 63/68/15 1/69/15 4/70/15 
f 63/71/16 64/72/16 2/73/16 1/74/16 
f 64/72/17 65/75/17 32/76/17 2/73/17 
f 65/75/17 49/77/17 29/78/17 32/76/17 
f 49/79/18 37/80/18 30/81/18 29/82/18 
f 37/83/19 40/84/19 31/85/19 30/86/19 
f 40/84/19 18/87/19 3/88/19 31/85/19 
f 18/87/20 17/89/20 4/90/20 3/88/20 
f 20/91/21 19/92/21 10/93/21 9/94/21 
f 19/95/18 60/96/18 11/97/18 10/98/18 
f 60/99/22 66/100/22 12/101/22 11/102/22 
f 66/103/23 20/104/23 9/105/23 12/106/23 
f 26/28/24 25/27/24 67/107/24 68/108/24 
f 43/47/25 42/46/25 69/109/25 70/110/25 
f 38/111/18 54/112/18 34/113/18 33/114/18 
f 54/115/19 59/116/19 35/117/19 34/118/19 
f 59/119/26 39/120/26 36/121/26 35/122/26 
f 39/123/17 38/124/17 33/125/17 36/126/17 
f 45/49/27 48/52/27 71/127/27 72/128/27 
f 73/129/27 57/61/27 45/49/27 72/128/27 
s 2
f 48/52/27 26/28/27 68/108/27 71/127/27 
s off
f 25/130/28 28/131/28 74/132/28 67/133/28 
f 24/134/29 23/135/29 75/136/29 76/137/29 
s 2
f 42/46/25 56/60/25 77/138/25 69/109/25 
f 70/110/25 61/65/25 22/23/25 43/47/25 
s off
f 63/68/30 17/67/30 8/8/30 7/7/30 
f 20/104/30 66/103/30 16/16/30 15/15/30 
f 17/67/31 20/104/31 15/15/31 8/8/31 
f 66/100/32 60/99/32 21/22/32 16/21/32 
f 64/72/33 63/71/33 7/30/33 27/29/33 
f 59/116/19 54/115/19 41/45/19 44/48/19 
f 49/77/17 65/75/17 47/51/17 46/50/17 
f 54/115/19 53/139/19 55/59/19 41/45/19 
f 50/140/17 49/77/17 46/50/17 58/62/17 
f 60/99/19 59/116/19 44/48/19 21/22/19 
f 65/75/17 64/72/17 27/29/17 47/51/17 
f 78/141/34 79/142/34 62/66/34 61/65/34 
f 80/143/35 81/144/35 68/108/35 67/107/35 
f 82/145/36 83/146/36 70/110/36 69/109/36 
f 84/147/37 85/148/37 72/128/37 71/127/37 
f 85/148/37 86/149/37 73/129/37 72/128/37 
f 81/144/37 84/147/37 71/127/37 68/108/37 
f 87/150/36 82/145/36 69/109/36 77/138/36 
f 83/146/36 78/141/36 61/65/36 70/110/36 
s 1
f 88/151/38 89/152/38 90/153/38 91/154/38 
s off
f 76/137/39 62/155/39 92/156/39 93/157/39 
f 92/156/40 62/155/40 79/158/40 94/159/40 
s 1
f 95/160/17 96/161/38 97/162/17 98/163/17 
f 99/164/38 82/165/38 87/166/38 100/167/38 
f 101/168/17 78/169/17 83/170/17 102/171/17 
s off
f 101/172/41 91/173/41 90/174/41 78/175/41 
f 79/158/42 89/176/42 88/177/42 94/159/42 
f 99/178/41 95/179/41 98/180/41 82/181/41 
f 83/182/43 97/183/43 96/184/43 102/185/43 
s 1
f 103/186/19 104/187/19 105/188/19 106/189/19 
s off
f 74/132/19 107/190/19 108/191/19 109/192/19 
f 108/191/44 110/193/44 80/194/44 109/192/44 
s 1
f 111/195/19 112/196/45 113/197/19 114/198/19 
f 115/199/45 116/200/45 86/201/45 85/202/19 
f 117/203/45 118/204/45 84/205/45 81/206/45 
s off
f 117/207/46 81/208/46 105/209/46 104/210/46 
f 80/194/47 110/193/47 103/211/47 106/212/47 
f 115/213/46 85/214/46 112/215/46 111/216/46 
f 84/217/48 118/218/48 114/219/48 113/220/48 
s 2
f 89/221/36 79/142/36 78/141/49 90/222/49 
f 97/223/36 83/146/36 82/145/49 98/224/49 
f 112/225/37 85/148/37 84/147/50 113/226/50 
f 105/227/37 81/144/37 80/143/50 106/228/50 
s off
f 56/229/51 55/230/51 119/231/51 120/232/51 
f 120/232/52 119/231/52 58/233/52 57/234/52 
f 119/235/53 55/236/53 53/237/53 121/238/53 
f 58/239/54 119/235/54 121/238/54 50/240/54 
f 51/241/30 50/242/30 122/243/30 123/244/30 
f 53/245/43 52/246/43 124/247/43 125/248/43 
f 52/246/30 51/241/30 123/244/30 124/247/30 
f 121/238/53 53/237/53 125/249/53 126/250/53 
f 50/240/54 121/238/54 126/250/54 122/251/54 
f 123/252/12 122/253/12 126/254/12 
f 125/255/12 124/256/12 123/252/12 126/254/12 
f 127/257/55 128/258/55 129/259/55 130/260/55 
f 131/261/1 132/262/1 133/263/1 134/264/1 
f 132/265/56 135/266/56 136/267/56 133/268/56 
f 130/269/18 129/270/18 137/271/18 135/272/18 
f 134/273/55 127/257/55 130/260/55 131/274/55 
f 131/275/41 130/269/41 135/272/41 132/276/41 
f 138/277/57 139/278/57 140/279/57 141/280/57 
f 142/281/1 143/282/1 144/283/1 145/284/1 
f 145/285/58 144/286/58 146/287/58 147/288/58 
f 139/289/18 147/290/18 148/291/18 140/292/18 
f 143/293/57 142/294/57 139/278/57 138/277/57 
f 142/295/46 145/296/46 147/290/46 139/289/46 
# 116 polygons - 1 triangles

