# 3ds Max Wavefront OBJ Exporter v0.97b - (c)2007 guruware
# File Created: 20.11.2013 16:27:34

#
# object e_roof01_asset_005
#

v  -1113.8497 152.5888 1191.9868
v  -1110.0779 122.3804 1216.3459
v  -1071.4097 125.3909 1194.0209
v  -1079.2731 155.5547 1171.4860
v  -1090.5328 205.3866 1135.8427
v  -1118.3572 202.5274 1151.9071
v  -1090.0667 207.0823 1137.5862
v  -1097.8486 225.7610 1116.1704
v  -1122.6440 222.9629 1130.4861
v  -1118.2960 204.2157 1153.8844
v  -1066.9644 226.6152 1098.3394
v  -1068.5076 229.0326 1095.6666
v  -1099.0591 228.1783 1113.3055
v  -1120.7053 121.9057 1212.4626
v  -1124.5049 152.0695 1188.2181
v  -1152.1702 152.0695 1143.9691
v  -1159.8909 125.2647 1148.4268
v  -1129.4349 201.9014 1148.3397
v  -1138.1918 201.9014 1135.8988
v  -1129.3322 203.5971 1150.2850
v  -1139.0024 203.5971 1136.3668
v  -1130.2759 222.2758 1131.3285
v  -1026.6444 126.2451 1168.1757
v  -1038.6420 156.4089 1147.3954
v  -1056.6171 206.2408 1116.2615
v  -1055.7456 207.9365 1117.7709
v  -1123.5223 225.3877 1127.4293
v  -1109.9573 117.7484 1214.0135
v  -1072.9569 120.6291 1192.6514
v  -1158.7214 120.6327 1147.7516
v  -1120.5820 117.2737 1210.1285
v  -1027.6243 121.4515 1166.4785
v  -1104.7368 119.1367 1192.0944
v  -1080.1097 121.0541 1177.8760
v  -1144.8027 122.0211 1139.7156
v  -1115.3416 118.6621 1188.1968
v  -1035.8104 121.6404 1152.2997
v  -962.4207 152.5888 1104.5592
v  -997.4633 155.5547 1124.2531
v  -981.8792 125.3909 1142.3303
v  -943.2111 122.3804 1120.0052
v  -994.8771 202.5274 1080.6158
v  -1022.7014 205.3866 1096.6802
v  -1021.4246 207.0823 1097.9556
v  -993.1953 204.2157 1081.6573
v  -1011.2848 222.9629 1066.1927
v  -1036.0802 225.7610 1080.5084
v  -1037.9561 228.1783 1078.0276
v  -941.2604 121.9057 1108.8600
v  -977.1243 125.2647 1042.9064
v  -984.8450 152.0695 1047.3640
v  -960.3569 152.0695 1093.4473
v  -998.8234 201.9014 1055.4343
v  -992.4276 201.9014 1069.2385
v  -998.0127 203.5971 1054.9663
v  -990.7943 203.5971 1070.3002
v  -1006.7393 222.2758 1060.0046
v  -1013.4928 225.3877 1063.9038
v  -982.2916 120.6291 1140.3057
v  -945.2913 117.7484 1118.9435
v  -943.3433 117.2737 1107.7997
v  -978.2938 120.6327 1043.5815
v  -991.5110 121.0541 1126.7234
v  -966.8840 119.1367 1112.5050
v  -964.9570 118.6621 1101.3723
v  -992.2125 122.0211 1051.6176
v  -1174.5944 152.5888 1086.7739
v  -1139.5519 155.5547 1067.0801
v  -1155.1359 125.3909 1049.0027
v  -1193.8041 122.3804 1071.3279
v  -1142.1381 202.5274 1110.7173
v  -1114.3137 205.3866 1094.6530
v  -1115.5906 207.0823 1093.3776
v  -1143.8199 204.2157 1109.6758
v  -1125.7303 222.9629 1125.1404
v  -1100.9349 225.7610 1110.8247
v  -1070.0508 226.6152 1092.9938
v  -1195.7548 121.9057 1082.4731
v  -1176.6582 152.0695 1097.8859
v  -1144.5875 201.9014 1122.0946
v  -1146.2208 203.5971 1121.0330
v  -1110.3707 126.2452 1023.1575
v  -1098.3732 156.4089 1043.9377
v  -1080.3981 206.2408 1075.0717
v  -1081.2695 207.9365 1073.5623
v  -1154.7236 120.6291 1051.0275
v  -1191.7239 117.7484 1072.3896
v  -1193.6718 117.2737 1083.5334
v  -1109.3909 121.4515 1024.8546
v  -1145.5042 121.0541 1064.6096
v  -1170.1312 119.1367 1078.8281
v  -1172.0581 118.6621 1089.9608
v  -1101.2047 121.6404 1039.0334
v  -1023.1654 152.5888 999.3464
v  -1026.9373 122.3804 974.9872
v  -1065.6055 125.3909 997.3123
v  -1057.7421 155.5547 1019.8472
v  -1046.4823 205.3866 1055.4905
v  -1018.6580 202.5274 1039.4260
v  -1046.9485 207.0823 1053.7469
v  -1039.1666 225.7610 1075.1627
v  -1014.3711 222.9629 1060.8470
v  -1018.7191 204.2157 1037.4487
v  -1016.3098 121.9057 978.8705
v  -1012.5103 152.0695 1003.1151
v  -1007.5802 201.9014 1042.9934
v  -1007.6830 203.5971 1041.0481
v  -1027.0579 117.7484 977.3196
v  -1064.0582 120.6291 998.6818
v  -1016.4331 117.2737 981.2046
v  -1032.2783 119.1367 999.2387
v  -1056.9054 121.0541 1013.4572
v  -1021.6736 118.6621 1003.1363
# 113 vertices

vn 0.3565 0.6441 0.6768
vn 0.3527 0.6473 0.6757
vn 0.3626 0.6495 0.6684
vn 0.3686 0.6411 0.6732
vn 0.3712 0.6263 0.6855
vn 0.3556 0.6332 0.6875
vn 0.2672 0.8005 0.5365
vn 0.2632 0.8074 0.5280
vn 0.1377 0.8102 0.5698
vn 0.0348 0.8190 0.5727
vn 0.1686 -0.7878 0.5924
vn 0.3586 -0.7428 0.5654
vn 0.3635 -0.7417 0.5638
vn 0.1254 -0.7936 0.5954
vn 0.2967 0.8049 0.5139
vn 0.2909 0.8134 0.5038
vn 0.2587 0.8154 0.5179
vn -0.7717 0.4006 0.4940
vn -0.7714 0.4000 0.4950
vn -0.7925 0.4032 0.4576
vn -0.7902 0.4093 0.4562
vn -0.7174 0.4551 0.5274
vn -0.7825 0.4286 0.4518
vn -0.6293 -0.6294 0.4559
vn -0.6282 -0.6314 0.4546
vn -0.6926 -0.6003 0.3999
vn -0.6946 -0.5972 0.4011
vn -0.6563 0.5863 0.4750
vn -0.7003 0.5883 0.4043
vn 0.3782 0.6541 0.6550
vn 0.3842 0.6400 0.6654
vn 0.3923 0.6199 0.6795
vn 0.3023 0.7966 0.5235
vn 0.3321 -0.7476 0.5752
vn 0.3321 -0.7475 0.5752
vn 0.1622 0.8240 0.5429
vn 0.4657 -0.4127 0.7828
vn 0.4730 -0.4140 0.7778
vn 0.4673 -0.4129 0.7818
vn -0.8027 -0.3541 0.4798
vn -0.8060 -0.3659 0.4653
vn -0.8061 -0.3654 0.4654
vn -0.8029 -0.3535 0.4800
vn 0.4563 -0.4087 0.7904
vn 0.4564 -0.4086 0.7904
vn 0.0172 -0.9993 -0.0340
vn 0.0418 -0.9984 -0.0387
vn 0.0381 -0.9985 -0.0400
vn 0.0155 -0.9994 -0.0321
vn 0.0292 -0.9985 -0.0463
vn 0.0554 -0.9980 -0.0320
vn 0.0490 -0.9984 -0.0283
vn 0.0133 -0.9987 -0.0487
vn -0.0062 -0.9999 -0.0108
vn -0.0053 -0.9999 -0.0091
vn -0.2012 0.6569 0.7266
vn -0.1994 0.6575 0.7266
vn -0.2056 0.6545 0.7276
vn -0.2066 0.6545 0.7272
vn -0.1853 0.6602 0.7279
vn -0.1833 0.6602 0.7284
vn 0.0629 0.7698 0.6352
vn -0.0927 -0.7958 0.5984
vn -0.0920 -0.7969 0.5971
vn -0.1191 0.7943 0.5957
vn -0.1931 -0.5090 0.8388
vn -0.1929 -0.5093 0.8387
vn -0.1930 -0.5092 0.8387
vn -0.1932 -0.5089 0.8389
vn 0.4078 0.6441 0.6471
vn 0.3987 0.6411 0.6558
vn 0.3976 0.6495 0.6482
vn 0.4088 0.6473 0.6433
vn 0.4176 0.6332 0.6517
vn 0.4080 0.6263 0.6642
vn 0.3311 0.8005 0.4997
vn 0.4786 0.8190 0.3164
vn 0.4246 0.8102 0.4042
vn 0.3256 0.8074 0.4919
vn 0.4287 -0.7878 0.4422
vn 0.4529 -0.7936 0.4063
vn 0.3065 -0.7417 0.5967
vn 0.3104 -0.7428 0.5933
vn 0.3192 0.8154 0.4830
vn 0.8136 0.4006 -0.4214
vn 0.7902 0.4093 -0.4562
vn 0.7925 0.4032 -0.4576
vn 0.8144 0.4000 -0.4205
vn 0.7825 0.4286 -0.4518
vn 0.8155 0.4551 -0.3576
vn 0.7094 -0.6294 -0.3171
vn 0.6946 -0.5972 -0.4011
vn 0.6926 -0.6003 -0.3999
vn 0.7078 -0.6314 -0.3167
vn 0.7395 0.5863 -0.3309
vn 0.7003 0.5883 -0.4043
vn 0.3890 0.8240 0.4120
vn 0.4451 -0.4127 0.7947
vn 0.4434 -0.4129 0.7956
vn 0.4371 -0.4140 0.7985
vn 0.8169 -0.3541 -0.4553
vn 0.8171 -0.3535 -0.4554
vn 0.8061 -0.3654 -0.4654
vn 0.8060 -0.3659 -0.4653
vn -0.0380 -0.9993 -0.0021
vn -0.0355 -0.9994 -0.0026
vn -0.0537 -0.9985 0.0130
vn -0.0544 -0.9984 0.0169
vn -0.0547 -0.9985 0.0022
vn -0.0488 -0.9987 -0.0128
vn -0.0490 -0.9984 0.0283
vn -0.0554 -0.9980 0.0320
vn 0.7299 0.6569 0.1891
vn 0.7331 0.6545 0.1847
vn 0.7329 0.6545 0.1858
vn 0.7289 0.6575 0.1906
vn 0.7230 0.6602 0.2035
vn 0.7225 0.6602 0.2055
vn 0.5186 0.7698 0.3721
vn 0.5631 -0.7969 0.2189
vn 0.5646 -0.7958 0.2189
vn 0.5754 0.7943 0.1947
vn 0.8230 -0.5090 0.2522
vn 0.8231 -0.5089 0.2521
vn 0.8228 -0.5092 0.2522
vn 0.8228 -0.5093 0.2523
vn -0.4078 0.6441 -0.6471
vn -0.3987 0.6411 -0.6558
vn -0.3976 0.6495 -0.6482
vn -0.4088 0.6473 -0.6433
vn -0.4176 0.6332 -0.6517
vn -0.4080 0.6263 -0.6642
vn -0.3311 0.8005 -0.4997
vn -0.4786 0.8190 -0.3164
vn -0.4246 0.8102 -0.4042
vn -0.3256 0.8074 -0.4919
vn -0.4287 -0.7878 -0.4422
vn -0.4529 -0.7936 -0.4063
vn -0.3065 -0.7417 -0.5967
vn -0.3104 -0.7428 -0.5933
vn -0.2967 0.8049 -0.5139
vn -0.3192 0.8154 -0.4830
vn -0.2909 0.8134 -0.5038
vn -0.8136 0.4006 0.4214
vn -0.8144 0.4000 0.4205
vn -0.8155 0.4551 0.3576
vn -0.7094 -0.6294 0.3171
vn -0.7078 -0.6314 0.3167
vn -0.7395 0.5863 0.3309
vn -0.3782 0.6541 -0.6550
vn -0.3842 0.6400 -0.6654
vn -0.3923 0.6199 -0.6795
vn -0.3023 0.7966 -0.5235
vn -0.3321 -0.7475 -0.5752
vn -0.3321 -0.7476 -0.5752
vn -0.3890 0.8240 -0.4120
vn -0.4451 -0.4127 -0.7947
vn -0.4434 -0.4129 -0.7956
vn -0.4371 -0.4140 -0.7985
vn -0.8169 -0.3541 0.4553
vn -0.8171 -0.3535 0.4554
vn -0.4563 -0.4087 -0.7904
vn -0.4564 -0.4086 -0.7904
vn 0.0380 -0.9993 0.0021
vn 0.0355 -0.9994 0.0026
vn 0.0537 -0.9985 -0.0130
vn 0.0544 -0.9984 -0.0169
vn 0.0547 -0.9985 -0.0022
vn 0.0488 -0.9987 0.0128
vn 0.0062 -0.9999 0.0108
vn 0.0053 -0.9999 0.0091
vn -0.7299 0.6569 -0.1891
vn -0.7331 0.6545 -0.1847
vn -0.7329 0.6545 -0.1858
vn -0.7289 0.6575 -0.1906
vn -0.7230 0.6602 -0.2035
vn -0.7225 0.6602 -0.2055
vn -0.5186 0.7698 -0.3721
vn -0.5631 -0.7969 -0.2189
vn -0.5646 -0.7958 -0.2189
vn -0.5754 0.7943 -0.1947
vn -0.8230 -0.5090 -0.2522
vn -0.8231 -0.5089 -0.2521
vn -0.8228 -0.5092 -0.2522
vn -0.8228 -0.5093 -0.2523
vn -0.3565 0.6441 -0.6768
vn -0.3527 0.6473 -0.6757
vn -0.3626 0.6495 -0.6684
vn -0.3686 0.6411 -0.6732
vn -0.3712 0.6263 -0.6855
vn -0.3556 0.6332 -0.6875
vn -0.2672 0.8005 -0.5365
vn -0.2632 0.8074 -0.5280
vn -0.1377 0.8102 -0.5698
vn -0.0348 0.8190 -0.5727
vn -0.1686 -0.7878 -0.5924
vn -0.3586 -0.7428 -0.5654
vn -0.3635 -0.7417 -0.5638
vn -0.1254 -0.7936 -0.5954
vn -0.2587 0.8154 -0.5179
vn 0.7717 0.4006 -0.4940
vn 0.7714 0.4000 -0.4950
vn 0.7174 0.4551 -0.5274
vn 0.6293 -0.6294 -0.4559
vn 0.6282 -0.6314 -0.4546
vn 0.6563 0.5863 -0.4750
vn -0.1622 0.8240 -0.5429
vn -0.4657 -0.4127 -0.7828
vn -0.4730 -0.4140 -0.7778
vn -0.4673 -0.4129 -0.7818
vn 0.8027 -0.3541 -0.4798
vn 0.8029 -0.3535 -0.4800
vn -0.0172 -0.9993 0.0340
vn -0.0418 -0.9984 0.0387
vn -0.0381 -0.9985 0.0400
vn -0.0155 -0.9994 0.0321
vn -0.0292 -0.9985 0.0463
vn -0.0133 -0.9987 0.0487
vn 0.2012 0.6569 -0.7266
vn 0.1994 0.6575 -0.7266
vn 0.2056 0.6545 -0.7276
vn 0.2066 0.6545 -0.7272
vn 0.1853 0.6602 -0.7279
vn 0.1833 0.6602 -0.7284
vn -0.0629 0.7698 -0.6352
vn 0.0927 -0.7958 -0.5984
vn 0.0920 -0.7969 -0.5971
vn 0.1191 0.7943 -0.5957
vn 0.1931 -0.5090 -0.8388
vn 0.1929 -0.5093 -0.8387
vn 0.1930 -0.5092 -0.8387
vn 0.1932 -0.5089 -0.8389
# 232 vertex normals

vt 0.1833 0.1033 0.0000
vt 0.1517 0.0000 0.0000
vt 0.3100 0.0060 0.0000
vt 0.3258 0.1101 0.0000
vt 0.3544 0.2780 0.0000
vt 0.2404 0.2722 0.0000
vt 0.2746 0.6639 0.0000
vt 0.2967 0.7925 0.0000
vt 0.1361 0.7845 0.0000
vt 0.0929 0.6570 0.0000
vt 0.0913 0.6474 0.0000
vt 0.2771 0.6531 0.0000
vt 0.4980 0.7949 0.0000
vt 0.4980 0.8123 0.0000
vt 0.2988 0.8098 0.0000
vt 0.1199 0.0169 0.0000
vt 0.1515 0.1198 0.0000
vt 0.0631 0.2411 0.0000
vt 0.0000 0.1968 0.0000
vt 0.2069 0.2884 0.0000
vt 0.1801 0.3232 0.0000
vt 0.0357 0.6834 0.0000
vt 0.0451 0.6870 0.0000
vt 0.0079 0.7534 0.0000
vt 0.0000 0.7483 0.0000
vt 0.0948 0.7942 0.0000
vt 0.4932 0.0077 0.0000
vt 0.4932 0.1129 0.0000
vt 0.4932 0.2797 0.0000
vt 0.4980 0.6659 0.0000
vt 0.4980 0.6553 0.0000
vt 0.1402 0.8019 0.0000
vt 0.2738 0.5995 0.0000
vt 0.0839 0.5985 0.0000
vt 0.0916 0.5839 0.0000
vt 0.2705 0.5830 0.0000
vt 0.0497 0.5669 0.0000
vt 0.0264 0.3144 0.0000
vt 0.0417 0.3138 0.0000
vt 0.0621 0.5565 0.0000
vt 0.4959 0.5996 0.0000
vt 0.4959 0.5828 0.0000
vt 0.1550 0.5276 0.0000
vt 0.2755 0.5263 0.0000
vt 0.1079 0.3101 0.0000
vt 0.1234 0.4991 0.0000
vt 0.4959 0.5256 0.0000
vt 0.8031 0.1033 0.0000
vt 0.6606 0.1101 0.0000
vt 0.6764 0.0060 0.0000
vt 0.8347 0.0000 0.0000
vt 0.7459 0.2722 0.0000
vt 0.6320 0.2780 0.0000
vt 0.7214 0.6639 0.0000
vt 0.9031 0.6570 0.0000
vt 0.8599 0.7845 0.0000
vt 0.6993 0.7925 0.0000
vt 0.9047 0.6474 0.0000
vt 0.7188 0.6531 0.0000
vt 0.6972 0.8098 0.0000
vt 0.8664 0.0169 0.0000
vt 0.9864 0.1968 0.0000
vt 0.9232 0.2411 0.0000
vt 0.8349 0.1198 0.0000
vt 0.8063 0.3232 0.0000
vt 0.7794 0.2884 0.0000
vt 0.9603 0.6834 0.0000
vt 0.9960 0.7483 0.0000
vt 0.9881 0.7534 0.0000
vt 0.9509 0.6870 0.0000
vt 0.9012 0.7942 0.0000
vt 0.8558 0.8019 0.0000
vt 0.7180 0.5995 0.0000
vt 0.7212 0.5830 0.0000
vt 0.9001 0.5839 0.0000
vt 0.9079 0.5985 0.0000
vt 0.9421 0.5669 0.0000
vt 0.9296 0.5565 0.0000
vt 0.9500 0.3138 0.0000
vt 0.9653 0.3144 0.0000
vt 0.7163 0.5263 0.0000
vt 0.8367 0.5276 0.0000
vt 0.8683 0.4991 0.0000
vt 0.8838 0.3101 0.0000
vt 1.1833 0.1033 0.0000
vt 1.3258 0.1101 0.0000
vt 1.3100 0.0060 0.0000
vt 1.1517 0.0000 0.0000
vt 1.2404 0.2722 0.0000
vt 1.3544 0.2780 0.0000
vt 1.2746 0.6639 0.0000
vt 1.0929 0.6570 0.0000
vt 1.1361 0.7845 0.0000
vt 1.2967 0.7925 0.0000
vt 1.0913 0.6474 0.0000
vt 1.2771 0.6531 0.0000
vt 1.4980 0.7949 0.0000
vt 1.2988 0.8098 0.0000
vt 1.4980 0.8123 0.0000
vt 1.1199 0.0169 0.0000
vt 1.0000 0.1968 0.0000
vt 1.0631 0.2411 0.0000
vt 1.1515 0.1198 0.0000
vt 1.1801 0.3232 0.0000
vt 1.2069 0.2884 0.0000
vt 1.0357 0.6834 0.0000
vt 1.0000 0.7483 0.0000
vt 1.0079 0.7534 0.0000
vt 1.0451 0.6870 0.0000
vt 1.0948 0.7942 0.0000
vt 1.4932 0.0077 0.0000
vt 1.4932 0.1129 0.0000
vt 1.4932 0.2797 0.0000
vt 1.4980 0.6659 0.0000
vt 1.4980 0.6553 0.0000
vt 1.1402 0.8019 0.0000
vt 1.2738 0.5995 0.0000
vt 1.2705 0.5830 0.0000
vt 1.0916 0.5839 0.0000
vt 1.0839 0.5985 0.0000
vt 1.0497 0.5669 0.0000
vt 1.0621 0.5565 0.0000
vt 1.0417 0.3138 0.0000
vt 1.0264 0.3144 0.0000
vt 1.4959 0.5996 0.0000
vt 1.4959 0.5828 0.0000
vt 1.2755 0.5263 0.0000
vt 1.1550 0.5276 0.0000
vt 1.1234 0.4991 0.0000
vt 1.1079 0.3101 0.0000
vt 1.4959 0.5256 0.0000
vt 1.8031 0.1033 0.0000
vt 1.8347 0.0000 0.0000
vt 1.6764 0.0060 0.0000
vt 1.6606 0.1101 0.0000
vt 1.6320 0.2780 0.0000
vt 1.7459 0.2722 0.0000
vt 1.7214 0.6639 0.0000
vt 1.6993 0.7925 0.0000
vt 1.8599 0.7845 0.0000
vt 1.9031 0.6570 0.0000
vt 1.9047 0.6474 0.0000
vt 1.7188 0.6531 0.0000
vt 1.6972 0.8098 0.0000
vt 1.8664 0.0169 0.0000
vt 1.8349 0.1198 0.0000
vt 1.9232 0.2411 0.0000
vt 1.9864 0.1968 0.0000
vt 1.7794 0.2884 0.0000
vt 1.8063 0.3232 0.0000
vt 1.9603 0.6834 0.0000
vt 1.9509 0.6870 0.0000
vt 1.9881 0.7534 0.0000
vt 1.9960 0.7483 0.0000
vt 1.9012 0.7942 0.0000
vt 1.8558 0.8019 0.0000
vt 1.7180 0.5995 0.0000
vt 1.9079 0.5985 0.0000
vt 1.9001 0.5839 0.0000
vt 1.7212 0.5830 0.0000
vt 1.9421 0.5669 0.0000
vt 1.9653 0.3144 0.0000
vt 1.9500 0.3138 0.0000
vt 1.9296 0.5565 0.0000
vt 1.8367 0.5276 0.0000
vt 1.7163 0.5263 0.0000
vt 1.8838 0.3101 0.0000
vt 1.8683 0.4991 0.0000
# 168 texture coords

g e_roof01_asset_005
s 1
f 1/1/1 2/2/2 3/3/3 4/4/4 
f 4/4/4 5/5/5 6/6/6 1/1/1 
f 7/7/7 8/8/8 9/9/9 10/10/10 
s 2
f 6/11/11 5/12/12 7/7/13 10/10/14 
s 1
f 11/13/15 12/14/16 13/15/17 8/8/8 
f 14/16/18 15/17/19 16/18/20 17/19/21 
f 15/17/19 18/20/22 19/21/23 16/18/20 
s 4
f 18/22/24 20/23/25 21/24/26 19/25/27 
s 8
f 20/23/28 22/26/29 21/24/29 
s 1
f 23/27/30 24/28/31 4/4/4 3/3/3 
f 24/28/31 25/29/32 5/5/5 4/4/4 
f 26/30/33 11/13/15 8/8/8 7/7/7 
s 2
f 5/12/12 25/31/34 26/30/35 7/7/13 
s 1
f 27/32/36 9/9/9 8/8/8 13/15/17 
s 2
f 3/33/37 2/34/38 28/35/38 29/36/39 
f 14/37/40 17/38/41 30/39/42 31/40/43 
f 23/41/44 3/33/37 29/36/39 32/42/45 
s 1
f 29/36/46 28/35/47 33/43/48 34/44/49 
f 31/40/50 30/39/51 35/45/52 36/46/53 
f 32/42/54 29/36/46 34/44/49 37/47/55 
s 8
f 1/1/56 15/17/57 14/16/58 2/2/59 
f 6/6/60 18/20/61 15/17/57 1/1/56 
s 1
f 27/32/36 22/26/62 9/9/9 
s 2
f 10/10/14 20/23/63 18/22/64 6/11/11 
s 1
f 9/9/9 22/26/62 20/23/65 10/10/10 
s 4
f 2/34/66 14/37/67 31/40/68 28/35/69 
s 1
f 28/35/47 31/40/50 36/46/53 33/43/48 
f 38/48/70 39/49/71 40/50/72 41/51/73 
f 39/49/71 38/48/70 42/52/74 43/53/75 
f 44/54/76 45/55/77 46/56/78 47/57/79 
s 2
f 42/58/80 45/55/81 44/54/82 43/59/83 
s 1
f 11/13/15 47/57/79 48/60/84 12/14/16 
f 49/61/85 50/62/86 51/63/87 52/64/88 
f 52/64/88 51/63/87 53/65/89 54/66/90 
s 4
f 54/67/91 53/68/92 55/69/93 56/70/94 
s 8
f 56/70/95 55/69/96 57/71/96 
s 1
f 23/27/30 40/50/72 39/49/71 24/28/31 
f 24/28/31 39/49/71 43/53/75 25/29/32 
f 26/30/33 44/54/76 47/57/79 11/13/15 
s 2
f 43/59/83 44/54/82 26/30/35 25/31/34 
s 1
f 58/72/97 48/60/84 47/57/79 46/56/78 
s 2
f 40/73/98 59/74/99 60/75/100 41/76/100 
f 49/77/101 61/78/102 62/79/103 50/80/104 
f 23/41/44 32/42/45 59/74/99 40/73/98 
s 1
f 59/74/105 63/81/106 64/82/107 60/75/108 
f 61/78/109 65/83/110 66/84/111 62/79/112 
f 32/42/54 37/47/55 63/81/106 59/74/105 
s 8
f 38/48/113 41/51/114 49/61/115 52/64/116 
f 42/52/117 38/48/113 52/64/116 54/66/118 
s 1
f 58/72/97 46/56/78 57/71/119 
s 2
f 45/55/81 42/58/80 54/67/120 56/70/121 
s 1
f 46/56/78 45/55/77 56/70/122 57/71/119 
s 4
f 41/76/123 60/75/124 61/78/125 49/77/126 
s 1
f 60/75/108 64/82/107 65/83/110 61/78/109 
f 67/85/127 68/86/128 69/87/129 70/88/130 
f 68/86/128 67/85/127 71/89/131 72/90/132 
s 2
f 73/91/133 74/92/134 75/93/135 76/94/136 
s 16
f 71/95/137 74/92/138 73/91/139 72/96/140 
s 2
f 77/97/141 76/94/136 13/98/142 12/99/143 
s 1
f 78/100/144 17/101/21 16/102/20 79/103/145 
f 79/103/145 16/102/20 19/104/23 80/105/146 
s 4
f 80/106/147 19/107/27 21/108/26 81/109/148 
s 8
f 81/109/149 21/108/29 22/110/29 
s 1
f 82/111/150 69/87/129 68/86/128 83/112/151 
f 83/112/151 68/86/128 72/90/132 84/113/152 
s 2
f 85/114/153 73/91/133 76/94/136 77/97/141 
s 16
f 72/96/140 73/91/139 85/114/154 84/115/155 
s 2
f 27/116/156 13/98/142 76/94/136 75/93/135 
f 69/117/157 86/118/158 87/119/159 70/120/159 
f 78/121/160 88/122/161 30/123/42 17/124/41 
f 82/125/162 89/126/163 86/118/158 69/117/157 
s 1
f 86/118/164 90/127/165 91/128/166 87/119/167 
f 88/122/168 92/129/169 35/130/52 30/123/51 
f 89/126/170 93/131/171 90/127/165 86/118/164 
s 8
f 67/85/172 70/88/173 78/100/174 79/103/175 
f 71/89/176 67/85/172 79/103/175 80/105/177 
s 2
f 27/116/156 75/93/135 22/110/178 
s 16
f 74/92/138 71/95/137 80/106/179 81/109/180 
s 2
f 75/93/135 74/92/134 81/109/181 22/110/178 
s 4
f 70/120/182 87/119/183 88/122/184 78/121/185 
s 1
f 87/119/167 91/128/166 92/129/169 88/122/168 
f 94/132/186 95/133/187 96/134/188 97/135/189 
f 97/135/189 98/136/190 99/137/191 94/132/186 
s 2
f 100/138/192 101/139/193 102/140/194 103/141/195 
s 16
f 99/142/196 98/143/197 100/138/198 103/141/199 
s 2
f 77/97/141 12/99/143 48/144/200 101/139/193 
s 1
f 104/145/201 105/146/202 51/147/87 50/148/86 
f 105/146/202 106/149/203 53/150/89 51/147/87 
s 4
f 106/151/204 107/152/205 55/153/93 53/154/92 
s 8
f 107/152/206 57/155/96 55/153/96 
s 1
f 82/111/150 83/112/151 97/135/189 96/134/188 
f 83/112/151 84/113/152 98/136/190 97/135/189 
s 2
f 85/114/153 77/97/141 101/139/193 100/138/192 
s 16
f 98/143/197 84/115/155 85/114/154 100/138/198 
s 2
f 58/156/207 102/140/194 101/139/193 48/144/200 
f 96/157/208 95/158/209 108/159/209 109/160/210 
f 104/161/211 50/162/104 62/163/103 110/164/212 
f 82/125/162 96/157/208 109/160/210 89/126/163 
s 1
f 109/160/213 108/159/214 111/165/215 112/166/216 
f 110/164/217 62/163/112 66/167/111 113/168/218 
f 89/126/170 109/160/213 112/166/216 93/131/171 
s 8
f 94/132/219 105/146/220 104/145/221 95/133/222 
f 99/137/223 106/149/224 105/146/220 94/132/219 
s 2
f 58/156/207 57/155/225 102/140/194 
s 16
f 103/141/199 107/152/226 106/151/227 99/142/196 
s 2
f 102/140/194 57/155/225 107/152/228 103/141/195 
s 4
f 95/158/229 104/161/230 110/164/231 108/159/232 
s 1
f 108/159/214 110/164/217 113/168/218 111/165/215 
# 100 polygons - 8 triangles

