# 3ds Max Wavefront OBJ Exporter v0.97b - (c)2007 guruware
# File Created: 20.11.2013 16:19:05

#
# object e_chimney01_asset_002
#

v  841.8194 160.8179 677.5938
v  841.0941 160.8179 681.0054
v  841.8969 142.4782 681.4689
v  842.7411 142.4782 677.4969
v  840.4007 160.8179 674.4075
v  841.0895 142.4782 673.7872
v  837.3801 160.8179 672.6635
v  837.5729 142.4782 671.7569
v  833.9113 160.8179 673.0281
v  833.5343 142.4782 672.1813
v  831.3193 160.8179 675.3619
v  830.5166 142.4782 674.8985
v  830.5940 160.8179 678.7736
v  829.6723 142.4782 678.8705
v  832.0127 160.8179 681.9600
v  831.3240 142.4782 682.5803
v  835.0334 160.8179 683.7039
v  834.8406 142.4782 684.6106
v  838.5022 160.8179 683.3394
v  838.8792 142.4782 684.1860
v  840.8447 149.7650 677.6962
v  839.6724 149.7650 675.0630
v  837.1762 149.7650 673.6219
v  838.1035 149.7650 682.4441
v  834.3098 149.7650 673.9232
v  832.1678 149.7650 675.8519
v  831.5685 149.7650 678.6711
v  832.7408 149.7650 681.3043
v  835.2370 149.7650 682.7454
v  840.2456 149.7650 680.5155
v  842.3651 162.2992 677.5364
v  841.5693 162.2992 681.2798
v  841.5693 161.1059 681.2798
v  842.3651 161.1059 677.5364
v  840.8085 162.2992 674.0402
v  840.8085 161.1059 674.0402
v  837.4941 162.2992 672.1267
v  837.4941 161.1059 672.1267
v  833.6882 162.2992 672.5267
v  833.6882 161.1059 672.5267
v  830.8439 162.2992 675.0875
v  830.8439 161.1059 675.0875
v  830.0483 162.2992 678.8309
v  830.0483 161.1059 678.8309
v  831.6049 162.2992 682.3271
v  831.6049 161.1059 682.3271
v  834.9192 162.2992 684.2407
v  834.9192 161.1059 684.2407
v  838.7255 162.2992 683.8407
v  838.7255 161.1059 683.8407
v  841.8194 162.5872 677.5938
v  841.0941 162.5872 681.0054
v  838.5022 162.5872 683.3394
v  835.0334 162.5872 683.7039
v  832.0127 162.5872 681.9600
v  830.5940 162.5872 678.7736
v  831.3193 162.5872 675.3619
v  833.9113 162.5872 673.0281
v  837.3801 162.5872 672.6635
v  840.4007 162.5872 674.4075
v  840.8447 162.5872 677.6962
v  840.2456 162.5872 680.5155
v  839.6724 162.5872 675.0630
v  837.1762 162.5872 673.6219
v  834.3098 162.5872 673.9232
v  832.1678 162.5872 675.8519
v  831.5685 162.5872 678.6711
v  832.7408 162.5872 681.3043
v  835.2370 162.5872 682.7454
v  838.1035 162.5872 682.4441
v  857.4518 170.0026 686.6192
v  856.7266 170.0026 690.0309
v  857.5293 142.4782 690.4943
v  858.3736 142.4782 686.5223
v  856.0332 170.0026 683.4329
v  856.7219 142.4782 682.8126
v  853.0125 170.0026 681.6888
v  853.2052 142.4782 680.7822
v  849.5437 170.0026 682.0535
v  849.1667 142.4782 681.2067
v  846.9518 170.0026 684.3874
v  846.1490 142.4782 683.9240
v  846.2266 170.0026 687.7990
v  845.3047 142.4782 687.8959
v  847.6452 170.0026 690.9854
v  846.9564 142.4782 691.6056
v  850.6659 170.0026 692.7294
v  850.4731 142.4782 693.6360
v  854.1346 170.0026 692.3647
v  854.5116 142.4782 693.2115
v  856.4773 158.9498 686.7216
v  855.3049 158.9498 684.0885
v  852.8088 158.9498 682.6473
v  853.7360 158.9498 691.4696
v  849.9423 158.9498 682.9486
v  847.8003 158.9498 684.8773
v  847.2010 158.9498 687.6966
v  848.3734 158.9498 690.3297
v  850.8695 158.9498 691.7709
v  855.8781 158.9498 689.5410
v  857.9976 171.4839 686.5618
v  857.2018 171.4839 690.3053
v  857.2018 170.2906 690.3053
v  857.9976 170.2906 686.5618
v  856.4410 171.4839 683.0657
v  856.4410 170.2906 683.0657
v  853.1266 171.4839 681.1521
v  853.1266 170.2906 681.1521
v  849.3206 171.4839 681.5521
v  849.3206 170.2906 681.5521
v  846.4764 171.4839 684.1130
v  846.4764 170.2906 684.1130
v  845.6808 171.4839 687.8564
v  845.6808 170.2906 687.8564
v  847.2374 171.4839 691.3526
v  847.2374 170.2906 691.3526
v  850.5518 171.4839 693.2661
v  850.5518 170.2906 693.2661
v  854.3578 171.4839 692.8661
v  854.3578 170.2906 692.8661
v  857.4518 171.7719 686.6192
v  856.7266 171.7719 690.0309
v  854.1346 171.7719 692.3647
v  850.6659 171.7719 692.7294
v  847.6452 171.7719 690.9854
v  846.2266 171.7719 687.7990
v  846.9518 171.7719 684.3874
v  849.5437 171.7719 682.0535
v  853.0125 171.7719 681.6888
v  856.0332 171.7719 683.4329
v  856.4773 171.7719 686.7216
v  855.8781 171.7719 689.5410
v  855.3049 171.7719 684.0885
v  852.8088 171.7719 682.6473
v  849.9423 171.7719 682.9486
v  847.8003 171.7719 684.8773
v  847.2010 171.7719 687.6966
v  848.3734 171.7719 690.3297
v  850.8695 171.7719 691.7709
v  853.7360 171.7719 691.4696
v  863.3519 144.4038 685.4320
v  833.0873 144.4038 667.9587
v  825.4371 144.4038 681.2094
v  855.7017 144.4038 698.6826
v  854.7932 142.5869 700.2561
v  824.5287 142.5869 682.7828
v  824.5286 7.1983 682.7828
v  854.7932 7.1983 700.2561
v  864.6693 142.5869 686.1926
v  857.0192 142.5869 699.4432
v  857.0190 7.1983 699.4432
v  864.6693 7.1983 686.1927
v  833.9957 142.5869 666.3853
v  864.2604 142.5869 683.8586
v  864.2603 7.1983 683.8586
v  833.9957 7.1983 666.3854
v  824.1196 142.5869 680.4487
v  831.7698 142.5869 667.1981
v  831.7697 7.1983 667.1981
v  824.1195 7.1983 680.4487
# 160 vertices

vn 0.9770 0.0480 0.2077
vn 0.9125 0.0480 -0.4063
vn 0.4994 0.0480 -0.8650
vn -0.1044 0.0480 -0.9934
vn -0.6684 0.0480 -0.7423
vn -0.9770 0.0480 -0.2077
vn -0.9125 0.0480 0.4063
vn -0.4994 0.0480 0.8650
vn 0.1044 0.0480 0.9934
vn 0.6684 0.0480 0.7423
vn 0.0000 1.0000 -0.0000
vn 0.9781 0.0000 0.2080
vn 0.9135 0.0000 -0.4067
vn 0.5000 0.0000 -0.8660
vn -0.1045 0.0000 -0.9945
vn -0.6691 0.0000 -0.7432
vn -0.9781 0.0000 -0.2079
vn -0.9135 0.0000 0.4067
vn -0.5000 0.0000 0.8660
vn 0.1045 0.0000 0.9945
vn 0.6692 0.0000 0.7431
vn 0.4726 0.8755 0.1005
vn 0.3233 0.8755 0.3591
vn 0.0505 0.8755 0.4805
vn -0.2416 0.8755 0.4184
vn -0.4414 0.8755 0.1965
vn -0.4726 0.8755 -0.1005
vn -0.3233 0.8755 -0.3591
vn -0.0505 0.8755 -0.4806
vn 0.2416 0.8755 -0.4185
vn 0.4414 0.8755 -0.1965
vn 0.4726 -0.8755 0.1005
vn 0.4414 -0.8755 -0.1965
vn 0.2416 -0.8755 -0.4185
vn -0.0505 -0.8755 -0.4806
vn -0.3233 -0.8755 -0.3591
vn -0.4726 -0.8755 -0.1005
vn -0.4414 -0.8755 0.1965
vn -0.2416 -0.8755 0.4184
vn 0.0505 -0.8755 0.4805
vn 0.3233 -0.8755 0.3591
vn -0.9782 0.0000 -0.2079
vn 0.6691 0.0000 0.7431
vn 0.9781 0.0000 0.2079
vn 0.9136 0.0000 -0.4067
vn 0.9776 0.0320 0.2078
vn 0.9131 0.0320 -0.4065
vn 0.4997 0.0320 -0.8656
vn -0.1045 0.0320 -0.9940
vn -0.6688 0.0320 -0.7427
vn -0.9776 0.0320 -0.2078
vn -0.9131 0.0320 0.4065
vn -0.4997 0.0320 0.8656
vn 0.1045 0.0320 0.9940
vn 0.6688 0.0320 0.7428
vn -0.6691 0.0000 -0.7431
vn 0.3233 0.8755 0.3590
vn -0.3233 0.8755 -0.3590
vn -0.0505 0.8755 -0.4805
vn 0.2416 0.8755 -0.4184
vn -0.0505 -0.8755 -0.4805
vn -0.3233 -0.8755 -0.3590
vn 0.8660 -0.0000 0.5000
vn 0.5000 -0.0000 -0.8660
vn -0.8660 0.0000 -0.5000
vn -0.8289 0.5402 0.1453
vn 0.2887 0.5402 0.7905
vn -0.2886 0.5402 -0.7905
vn 0.8289 0.5402 -0.1452
vn -0.3536 0.7071 0.6124
vn 0.6640 0.6420 0.3834
vn 0.3536 0.7071 -0.6124
vn -0.6640 0.6420 -0.3834
vn 0.3430 -0.0000 0.9393
vn -0.9850 0.0000 0.1726
vn 0.9850 -0.0000 -0.1726
vn -0.3430 -0.0000 -0.9393
# 77 vertex normals

vt 0.5941 0.8317 0.0000
vt 0.5650 0.8317 0.0000
vt 0.5650 0.6685 0.0000
vt 0.5941 0.6685 0.0000
vt 0.6245 0.8317 0.0000
vt 0.6245 0.6685 0.0000
vt 0.6564 0.8317 0.0000
vt 0.6564 0.6685 0.0000
vt 0.3830 0.8317 0.0000
vt 0.3517 0.8317 0.0000
vt 0.3517 0.6685 0.0000
vt 0.3830 0.6685 0.0000
vt 0.4127 0.8317 0.0000
vt 0.4127 0.6685 0.0000
vt 0.4418 0.8317 0.0000
vt 0.4418 0.6685 0.0000
vt 0.4722 0.8317 0.0000
vt 0.4722 0.6685 0.0000
vt 0.5040 0.8317 0.0000
vt 0.5040 0.6685 0.0000
vt 0.5354 0.8317 0.0000
vt 0.5354 0.6685 0.0000
vt 0.7956 0.9601 0.0000
vt 0.7784 0.9770 0.0000
vt 0.7541 0.9811 0.0000
vt 0.7874 0.9161 0.0000
vt 0.7319 0.9708 0.0000
vt 0.7203 0.9500 0.0000
vt 0.7238 0.9268 0.0000
vt 0.7409 0.9099 0.0000
vt 0.7652 0.9058 0.0000
vt 0.7990 0.9368 0.0000
vt 0.5941 0.8449 0.0000
vt 0.5650 0.8449 0.0000
vt 0.5650 0.8343 0.0000
vt 0.5941 0.8343 0.0000
vt 0.6245 0.8449 0.0000
vt 0.6245 0.8343 0.0000
vt 0.6564 0.8449 0.0000
vt 0.6564 0.8343 0.0000
vt 0.3830 0.8449 0.0000
vt 0.3517 0.8449 0.0000
vt 0.3517 0.8343 0.0000
vt 0.3830 0.8343 0.0000
vt 0.4127 0.8449 0.0000
vt 0.4127 0.8343 0.0000
vt 0.4418 0.8449 0.0000
vt 0.4418 0.8343 0.0000
vt 0.4722 0.8449 0.0000
vt 0.4722 0.8343 0.0000
vt 0.5040 0.8449 0.0000
vt 0.5040 0.8343 0.0000
vt 0.5354 0.8449 0.0000
vt 0.5354 0.8343 0.0000
vt 0.5941 0.8475 0.0000
vt 0.5650 0.8475 0.0000
vt 0.5354 0.8475 0.0000
vt 0.5040 0.8475 0.0000
vt 0.4722 0.8475 0.0000
vt 0.4418 0.8475 0.0000
vt 0.4127 0.8475 0.0000
vt 0.3830 0.8475 0.0000
vt 0.3517 0.8475 0.0000
vt 0.6564 0.8475 0.0000
vt 0.6245 0.8475 0.0000
vt 0.6364 0.9124 0.0000
vt 0.6323 0.9406 0.0000
vt 0.6247 0.9371 0.0000
vt 0.6282 0.9138 0.0000
vt 0.6115 0.9610 0.0000
vt 0.6076 0.9540 0.0000
vt 0.5821 0.9659 0.0000
vt 0.5833 0.9580 0.0000
vt 0.5553 0.9535 0.0000
vt 0.5611 0.9477 0.0000
vt 0.5413 0.9284 0.0000
vt 0.5495 0.9270 0.0000
vt 0.5454 0.9003 0.0000
vt 0.5530 0.9038 0.0000
vt 0.5662 0.8798 0.0000
vt 0.5701 0.8869 0.0000
vt 0.5956 0.8749 0.0000
vt 0.5944 0.8828 0.0000
vt 0.6224 0.8874 0.0000
vt 0.6166 0.8931 0.0000
vt 0.8887 0.8795 0.0000
vt 0.9137 0.8795 0.0000
vt 0.9137 0.7813 0.0000
vt 0.8887 0.7813 0.0000
vt 0.9399 0.8795 0.0000
vt 0.9399 0.7813 0.0000
vt 0.9673 0.8795 0.0000
vt 0.9673 0.7813 0.0000
vt 0.7050 0.8795 0.0000
vt 0.7320 0.8795 0.0000
vt 0.7320 0.7813 0.0000
vt 0.7050 0.7813 0.0000
vt 0.7575 0.8795 0.0000
vt 0.7575 0.7813 0.0000
vt 0.7826 0.8795 0.0000
vt 0.7826 0.7813 0.0000
vt 0.8088 0.8795 0.0000
vt 0.8088 0.7813 0.0000
vt 0.8362 0.8795 0.0000
vt 0.8362 0.7813 0.0000
vt 0.8631 0.8795 0.0000
vt 0.8631 0.7813 0.0000
vt 0.2909 0.9120 0.0000
vt 0.2602 0.9120 0.0000
vt 0.2602 0.6717 0.0000
vt 0.2909 0.6717 0.0000
vt 0.3230 0.9120 0.0000
vt 0.3230 0.6717 0.0000
vt 0.0470 0.9120 0.0000
vt 0.0153 0.9120 0.0000
vt 0.0153 0.6717 0.0000
vt 0.0470 0.6717 0.0000
vt 0.0770 0.9120 0.0000
vt 0.0770 0.6717 0.0000
vt 0.1064 0.9120 0.0000
vt 0.1064 0.6717 0.0000
vt 0.1370 0.9120 0.0000
vt 0.1370 0.6717 0.0000
vt 0.1692 0.9120 0.0000
vt 0.1692 0.6717 0.0000
vt 0.2008 0.9120 0.0000
vt 0.2008 0.6717 0.0000
vt 0.2308 0.9120 0.0000
vt 0.2308 0.6717 0.0000
vt 0.9207 0.9715 0.0000
vt 0.8964 0.9760 0.0000
vt 0.8741 0.9661 0.0000
vt 0.9405 0.9311 0.0000
vt 0.8621 0.9455 0.0000
vt 0.8651 0.9222 0.0000
vt 0.8820 0.9051 0.0000
vt 0.9062 0.9006 0.0000
vt 0.9285 0.9105 0.0000
vt 0.9375 0.9544 0.0000
vt 0.2909 0.9249 0.0000
vt 0.2602 0.9249 0.0000
vt 0.2602 0.9145 0.0000
vt 0.2909 0.9145 0.0000
vt 0.3230 0.9249 0.0000
vt 0.3230 0.9145 0.0000
vt 0.0470 0.9249 0.0000
vt 0.0153 0.9249 0.0000
vt 0.0153 0.9145 0.0000
vt 0.0470 0.9145 0.0000
vt 0.0770 0.9249 0.0000
vt 0.0770 0.9145 0.0000
vt 0.1064 0.9249 0.0000
vt 0.1064 0.9145 0.0000
vt 0.1370 0.9249 0.0000
vt 0.1370 0.9145 0.0000
vt 0.1692 0.9249 0.0000
vt 0.1692 0.9145 0.0000
vt 0.2008 0.9249 0.0000
vt 0.2008 0.9145 0.0000
vt 0.2308 0.9249 0.0000
vt 0.2308 0.9145 0.0000
vt 0.2909 0.9274 0.0000
vt 0.2602 0.9274 0.0000
vt 0.2308 0.9274 0.0000
vt 0.2008 0.9274 0.0000
vt 0.1692 0.9274 0.0000
vt 0.1370 0.9274 0.0000
vt 0.1064 0.9274 0.0000
vt 0.0770 0.9274 0.0000
vt 0.0470 0.9274 0.0000
vt 0.0153 0.9274 0.0000
vt 0.3230 0.9274 0.0000
vt 0.4771 0.9434 0.0000
vt 0.4567 0.9642 0.0000
vt 0.4527 0.9572 0.0000
vt 0.4695 0.9400 0.0000
vt 0.4274 0.9696 0.0000
vt 0.4284 0.9617 0.0000
vt 0.4004 0.9576 0.0000
vt 0.4061 0.9518 0.0000
vt 0.3859 0.9328 0.0000
vt 0.3941 0.9312 0.0000
vt 0.3895 0.9046 0.0000
vt 0.3971 0.9079 0.0000
vt 0.4099 0.8838 0.0000
vt 0.4139 0.8908 0.0000
vt 0.4392 0.8784 0.0000
vt 0.4382 0.8863 0.0000
vt 0.4663 0.8904 0.0000
vt 0.4605 0.8962 0.0000
vt 0.4807 0.9152 0.0000
vt 0.4725 0.9168 0.0000
vt 0.9158 0.7727 0.0000
vt 0.9423 0.7727 0.0000
vt 0.9423 0.6758 0.0000
vt 0.9158 0.6758 0.0000
vt 0.9701 0.7727 0.0000
vt 0.9701 0.6758 0.0000
vt 0.7039 0.7727 0.0000
vt 0.7313 0.7727 0.0000
vt 0.7313 0.6758 0.0000
vt 0.7039 0.6758 0.0000
vt 0.7573 0.7727 0.0000
vt 0.7573 0.6758 0.0000
vt 0.7827 0.7727 0.0000
vt 0.7827 0.6758 0.0000
vt 0.8092 0.7727 0.0000
vt 0.8092 0.6758 0.0000
vt 0.8370 0.7727 0.0000
vt 0.8370 0.6758 0.0000
vt 0.8644 0.7727 0.0000
vt 0.8644 0.6758 0.0000
vt 0.8903 0.7727 0.0000
vt 0.8903 0.6758 0.0000
vt 0.0122 0.2360 0.0000
vt 0.0122 0.0156 0.0000
vt 0.0948 0.0158 0.0000
vt 0.0948 0.2362 0.0000
vt 0.1044 0.2362 0.0000
vt 0.1044 0.0158 0.0000
vt 0.9781 0.0158 0.0000
vt 0.9781 0.2362 0.0000
vt 0.1043 0.3273 0.0000
vt 0.1043 0.2465 0.0000
vt 0.9780 0.2465 0.0000
vt 0.9780 0.3273 0.0000
vt 0.1043 0.5578 0.0000
vt 0.1043 0.3374 0.0000
vt 0.9780 0.3374 0.0000
vt 0.9780 0.5578 0.0000
vt 0.1043 0.6486 0.0000
vt 0.1043 0.5679 0.0000
vt 0.9781 0.5679 0.0000
vt 0.9781 0.6487 0.0000
vt 0.1043 0.6582 0.0000
vt 0.0957 0.6533 0.0000
vt 0.0958 0.2413 0.0000
vt 0.0949 0.5629 0.0000
vt 0.0958 0.3327 0.0000
vt 0.0947 0.2465 0.0000
vt 0.0947 0.3273 0.0000
vt 0.0947 0.3374 0.0000
vt 0.0947 0.5578 0.0000
vt 0.0947 0.5679 0.0000
vt 0.0947 0.6487 0.0000
vt 0.9781 0.6582 0.0000
# 246 texture coords

g e_chimney01_asset_002
s off
f 1/1/1 2/2/1 3/3/1 4/4/1 
f 5/5/2 1/1/2 4/4/2 6/6/2 
f 7/7/3 5/5/3 6/6/3 8/8/3 
f 9/9/4 7/10/4 8/11/4 10/12/4 
f 11/13/5 9/9/5 10/12/5 12/14/5 
f 13/15/6 11/13/6 12/14/6 14/16/6 
f 15/17/7 13/15/7 14/16/7 16/18/7 
f 17/19/8 15/17/8 16/18/8 18/20/8 
f 19/21/9 17/19/9 18/20/9 20/22/9 
f 19/21/10 20/22/10 3/3/10 2/2/10 
f 21/23/11 22/24/11 23/25/11 24/26/11 
f 23/25/11 25/27/11 26/28/11 24/26/11 
f 26/28/11 27/29/11 28/30/11 24/26/11 
f 28/30/11 29/31/11 24/26/11 
f 30/32/11 21/23/11 24/26/11 
f 31/33/12 32/34/12 33/35/12 34/36/12 
f 35/37/13 31/33/13 34/36/13 36/38/13 
f 37/39/14 35/37/14 36/38/14 38/40/14 
f 39/41/15 37/42/15 38/43/15 40/44/15 
f 41/45/16 39/41/16 40/44/16 42/46/16 
f 43/47/17 41/45/17 42/46/17 44/48/17 
f 45/49/18 43/47/18 44/48/18 46/50/18 
f 47/51/19 45/49/19 46/50/19 48/52/19 
f 49/53/20 47/51/20 48/52/20 50/54/20 
f 32/34/21 49/53/21 50/54/21 33/35/21 
f 51/55/22 52/56/22 32/34/22 31/33/22 
f 52/56/23 53/57/23 49/53/23 32/34/23 
f 53/57/24 54/58/24 47/51/24 49/53/24 
f 54/58/25 55/59/25 45/49/25 47/51/25 
f 55/59/26 56/60/26 43/47/26 45/49/26 
f 56/60/27 57/61/27 41/45/27 43/47/27 
f 57/61/28 58/62/28 39/41/28 41/45/28 
f 58/62/29 59/63/29 37/42/29 39/41/29 
f 59/64/30 60/65/30 35/37/30 37/39/30 
f 60/65/31 51/55/31 31/33/31 35/37/31 
f 2/2/32 1/1/32 34/36/32 33/35/32 
f 1/1/33 5/5/33 36/38/33 34/36/33 
f 5/5/34 7/7/34 38/40/34 36/38/34 
f 7/10/35 9/9/35 40/44/35 38/43/35 
f 9/9/36 11/13/36 42/46/36 40/44/36 
f 11/13/37 13/15/37 44/48/37 42/46/37 
f 13/15/38 15/17/38 46/50/38 44/48/38 
f 15/17/39 17/19/39 48/52/39 46/50/39 
f 17/19/40 19/21/40 50/54/40 48/52/40 
f 19/21/41 2/2/41 33/35/41 50/54/41 
f 52/66/11 51/67/11 61/68/11 62/69/11 
f 51/67/11 60/70/11 63/71/11 61/68/11 
f 60/70/11 59/72/11 64/73/11 63/71/11 
f 59/72/11 58/74/11 65/75/11 64/73/11 
f 58/74/11 57/76/11 66/77/11 65/75/11 
f 57/76/11 56/78/11 67/79/11 66/77/11 
f 56/78/11 55/80/11 68/81/11 67/79/11 
f 55/80/11 54/82/11 69/83/11 68/81/11 
f 54/82/11 53/84/11 70/85/11 69/83/11 
f 53/84/11 52/66/11 62/69/11 70/85/11 
f 62/86/42 61/87/42 21/88/42 30/89/42 
f 61/87/18 63/90/18 22/91/18 21/88/18 
f 63/90/19 64/92/19 23/93/19 22/91/19 
f 64/94/20 65/95/20 25/96/20 23/97/20 
f 65/95/43 66/98/43 26/99/43 25/96/43 
f 66/98/44 67/100/44 27/101/44 26/99/44 
f 67/100/45 68/102/45 28/103/45 27/101/45 
f 68/102/14 69/104/14 29/105/14 28/103/14 
f 69/104/15 70/106/15 24/107/15 29/105/15 
f 70/106/16 62/86/16 30/89/16 24/107/16 
f 71/108/46 72/109/46 73/110/46 74/111/46 
f 75/112/47 71/108/47 74/111/47 76/113/47 
f 77/114/48 75/115/48 76/116/48 78/117/48 
f 79/118/49 77/114/49 78/117/49 80/119/49 
f 81/120/50 79/118/50 80/119/50 82/121/50 
f 83/122/51 81/120/51 82/121/51 84/123/51 
f 85/124/52 83/122/52 84/123/52 86/125/52 
f 87/126/53 85/124/53 86/125/53 88/127/53 
f 89/128/54 87/126/54 88/127/54 90/129/54 
f 89/128/55 90/129/55 73/110/55 72/109/55 
f 91/130/11 92/131/11 93/132/11 94/133/11 
f 93/132/11 95/134/11 96/135/11 94/133/11 
f 96/135/11 97/136/11 98/137/11 94/133/11 
f 98/137/11 99/138/11 94/133/11 
f 100/139/11 91/130/11 94/133/11 
f 101/140/44 102/141/44 103/142/44 104/143/44 
f 105/144/13 101/140/13 104/143/13 106/145/13 
f 107/146/14 105/147/14 106/148/14 108/149/14 
f 109/150/15 107/146/15 108/149/15 110/151/15 
f 111/152/56 109/150/56 110/151/56 112/153/56 
f 113/154/17 111/152/17 112/153/17 114/155/17 
f 115/156/18 113/154/18 114/155/18 116/157/18 
f 117/158/19 115/156/19 116/157/19 118/159/19 
f 119/160/20 117/158/20 118/159/20 120/161/20 
f 102/141/43 119/160/43 120/161/43 103/142/43 
f 121/162/22 122/163/22 102/141/22 101/140/22 
f 122/163/57 123/164/57 119/160/57 102/141/57 
f 123/164/24 124/165/24 117/158/24 119/160/24 
f 124/165/25 125/166/25 115/156/25 117/158/25 
f 125/166/26 126/167/26 113/154/26 115/156/26 
f 126/167/27 127/168/27 111/152/27 113/154/27 
f 127/168/58 128/169/58 109/150/58 111/152/58 
f 128/169/59 129/170/59 107/146/59 109/150/59 
f 129/170/60 130/171/60 105/147/60 107/146/60 
f 130/172/31 121/162/31 101/140/31 105/144/31 
f 72/109/32 71/108/32 104/143/32 103/142/32 
f 71/108/33 75/112/33 106/145/33 104/143/33 
f 75/115/34 77/114/34 108/149/34 106/148/34 
f 77/114/61 79/118/61 110/151/61 108/149/61 
f 79/118/62 81/120/62 112/153/62 110/151/62 
f 81/120/37 83/122/37 114/155/37 112/153/37 
f 83/122/38 85/124/38 116/157/38 114/155/38 
f 85/124/39 87/126/39 118/159/39 116/157/39 
f 87/126/40 89/128/40 120/161/40 118/159/40 
f 89/128/41 72/109/41 103/142/41 120/161/41 
f 122/173/11 121/174/11 131/175/11 132/176/11 
f 121/174/11 130/177/11 133/178/11 131/175/11 
f 130/177/11 129/179/11 134/180/11 133/178/11 
f 129/179/11 128/181/11 135/182/11 134/180/11 
f 128/181/11 127/183/11 136/184/11 135/182/11 
f 127/183/11 126/185/11 137/186/11 136/184/11 
f 126/185/11 125/187/11 138/188/11 137/186/11 
f 125/187/11 124/189/11 139/190/11 138/188/11 
f 124/189/11 123/191/11 140/192/11 139/190/11 
f 123/191/11 122/173/11 132/176/11 140/192/11 
f 132/193/42 131/194/42 91/195/42 100/196/42 
f 131/194/18 133/197/18 92/198/18 91/195/18 
f 133/199/19 134/200/19 93/201/19 92/202/19 
f 134/200/20 135/203/20 95/204/20 93/201/20 
f 135/203/43 136/205/43 96/206/43 95/204/43 
f 136/205/44 137/207/44 97/208/44 96/206/44 
f 137/207/13 138/209/13 98/210/13 97/208/13 
f 138/209/14 139/211/14 99/212/14 98/210/14 
f 139/211/15 140/213/15 94/214/15 99/212/15 
f 140/213/16 132/193/16 100/196/16 94/214/16 
f 141/215/11 142/216/11 143/217/11 144/218/11 
f 145/219/19 146/220/19 147/221/19 148/222/19 
f 149/223/63 150/224/63 151/225/63 152/226/63 
f 153/227/64 154/228/64 155/229/64 156/230/64 
f 157/231/65 158/232/65 159/233/65 160/234/65 
f 146/235/66 143/236/66 157/231/66 
f 150/224/67 144/237/67 145/219/67 
f 158/232/68 142/238/68 153/227/68 
f 154/228/69 141/239/69 149/223/69 
f 143/217/70 146/220/70 145/219/70 144/218/70 
f 144/240/71 150/224/71 149/223/71 141/241/71 
f 141/242/72 154/228/72 153/227/72 142/243/72 
f 142/244/73 158/232/73 157/231/73 143/245/73 
f 148/222/74 151/225/74 150/224/74 145/219/74 
f 146/235/75 157/231/75 160/234/75 147/246/75 
f 152/226/76 155/229/76 154/228/76 149/223/76 
f 156/230/77 159/233/77 158/232/77 153/227/77 
# 139 polygons - 8 triangles

