# 3ds Max Wavefront OBJ Exporter v0.97b - (c)2007 guruware
# File Created: 20.11.2013 16:14:00

#
# object e_chimney01_asset_006
#

v  1278.0151 160.8179 1369.2432
v  1275.2666 160.8179 1371.3904
v  1275.5836 142.4782 1372.2614
v  1278.7836 142.4782 1369.7614
v  1278.9766 160.8179 1365.8903
v  1279.9028 142.4782 1365.8579
v  1277.7836 160.8179 1362.6127
v  1278.5140 142.4782 1362.0422
v  1274.8920 160.8179 1360.6622
v  1275.1475 142.4782 1359.7714
v  1271.4063 160.8179 1360.7841
v  1271.0892 142.4782 1359.9131
v  1268.6577 160.8179 1362.9314
v  1267.8893 142.4782 1362.4131
v  1267.6963 160.8179 1366.2842
v  1266.7700 142.4782 1366.3167
v  1268.8893 160.8179 1369.5618
v  1268.1589 142.4782 1370.1324
v  1271.7809 160.8179 1371.5122
v  1271.5254 142.4782 1372.4031
v  1277.2028 149.7650 1368.6951
v  1277.9972 149.7650 1365.9244
v  1277.0115 149.7650 1363.2158
v  1272.0509 149.7650 1370.5701
v  1274.6218 149.7650 1361.6041
v  1271.7413 149.7650 1361.7048
v  1269.4700 149.7650 1363.4792
v  1268.6755 149.7650 1366.2499
v  1269.6614 149.7650 1368.9584
v  1274.9315 149.7650 1370.4697
v  1278.4701 162.2992 1369.5499
v  1275.4542 162.2992 1371.9060
v  1275.4542 161.1059 1371.9060
v  1278.4701 161.1059 1369.5499
v  1279.5249 162.2992 1365.8711
v  1279.5249 161.1059 1365.8711
v  1278.2161 162.2992 1362.2748
v  1278.2161 161.1059 1362.2748
v  1275.0433 162.2992 1360.1349
v  1275.0433 161.1059 1360.1349
v  1271.2185 162.2992 1360.2683
v  1271.2185 161.1059 1360.2683
v  1268.2028 162.2992 1362.6245
v  1268.2028 161.1059 1362.6245
v  1267.1478 162.2992 1366.3033
v  1267.1478 161.1059 1366.3033
v  1268.4568 162.2992 1369.8997
v  1268.4568 161.1059 1369.8997
v  1271.6296 162.2992 1372.0398
v  1271.6296 161.1059 1372.0398
v  1278.0151 162.5872 1369.2432
v  1275.2666 162.5872 1371.3904
v  1271.7809 162.5872 1371.5122
v  1268.8893 162.5872 1369.5618
v  1267.6963 162.5872 1366.2842
v  1268.6577 162.5872 1362.9314
v  1271.4063 162.5872 1360.7841
v  1274.8920 162.5872 1360.6622
v  1277.7836 162.5872 1362.6127
v  1278.9766 162.5872 1365.8903
v  1277.2028 162.5872 1368.6951
v  1274.9315 162.5872 1370.4697
v  1277.9972 162.5872 1365.9244
v  1277.0115 162.5872 1363.2158
v  1274.6218 162.5872 1361.6041
v  1271.7413 162.5872 1361.7048
v  1269.4700 162.5872 1363.4792
v  1268.6755 162.5872 1366.2499
v  1269.6614 162.5872 1368.9584
v  1272.0509 162.5872 1370.5701
v  1284.1890 170.0026 1386.2053
v  1281.4404 170.0026 1388.3527
v  1281.7573 142.4782 1389.2236
v  1284.9573 142.4782 1386.7236
v  1285.1504 170.0026 1382.8525
v  1286.0767 142.4782 1382.8202
v  1283.9574 170.0026 1379.5750
v  1284.6877 142.4782 1379.0043
v  1281.0657 170.0026 1377.6245
v  1281.3213 142.4782 1376.7335
v  1277.5800 170.0026 1377.7463
v  1277.2629 142.4782 1376.8754
v  1274.8315 170.0026 1379.8936
v  1274.0630 142.4782 1379.3752
v  1273.8701 170.0026 1383.2463
v  1272.9437 142.4782 1383.2788
v  1275.0630 170.0026 1386.5240
v  1274.3325 142.4782 1387.0946
v  1277.9546 170.0026 1388.4744
v  1277.6991 142.4782 1389.3654
v  1283.3765 158.9498 1385.6573
v  1284.1710 158.9498 1382.8867
v  1283.1852 158.9498 1380.1782
v  1278.2247 158.9498 1387.5325
v  1280.7957 158.9498 1378.5664
v  1277.9150 158.9498 1378.6670
v  1275.6438 158.9498 1380.4415
v  1274.8494 158.9498 1383.2122
v  1275.8352 158.9498 1385.9207
v  1281.1052 158.9498 1387.4319
v  1284.6438 171.4839 1386.5122
v  1281.6281 171.4839 1388.8683
v  1281.6281 170.2906 1388.8683
v  1284.6438 170.2906 1386.5122
v  1285.6987 171.4839 1382.8334
v  1285.6987 170.2906 1382.8334
v  1284.3898 171.4839 1379.2371
v  1284.3898 170.2906 1379.2371
v  1281.2170 171.4839 1377.0970
v  1281.2170 170.2906 1377.0970
v  1277.3922 171.4839 1377.2305
v  1277.3922 170.2906 1377.2305
v  1274.3765 171.4839 1379.5868
v  1274.3765 170.2906 1379.5868
v  1273.3217 171.4839 1383.2656
v  1273.3217 170.2906 1383.2656
v  1274.6306 171.4839 1386.8618
v  1274.6306 170.2906 1386.8618
v  1277.8033 171.4839 1389.0020
v  1277.8033 170.2906 1389.0020
v  1284.1890 171.7719 1386.2053
v  1281.4404 171.7719 1388.3527
v  1277.9546 171.7719 1388.4744
v  1275.0630 171.7719 1386.5240
v  1273.8701 171.7719 1383.2463
v  1274.8315 171.7719 1379.8936
v  1277.5800 171.7719 1377.7463
v  1281.0657 171.7719 1377.6245
v  1283.9574 171.7719 1379.5750
v  1285.1504 171.7719 1382.8525
v  1283.3765 171.7719 1385.6573
v  1281.1052 171.7719 1387.4319
v  1284.1710 171.7719 1382.8867
v  1283.1852 171.7719 1380.1782
v  1280.7957 171.7719 1378.5664
v  1277.9150 171.7719 1378.6670
v  1275.6438 171.7719 1380.4415
v  1274.8494 171.7719 1383.2122
v  1275.8352 171.7719 1385.9207
v  1278.2247 171.7719 1387.5325
v  1289.4717 144.4038 1389.0884
v  1277.5193 144.4038 1356.2494
v  1263.1416 144.4038 1361.4824
v  1275.0940 144.4038 1394.3214
v  1273.3867 142.5869 1394.9429
v  1261.4343 142.5869 1362.1039
v  1261.4342 7.1983 1362.1039
v  1273.3867 7.1983 1394.9429
v  1289.9921 142.5869 1390.5178
v  1275.6143 142.5869 1395.7510
v  1275.6143 7.1983 1395.7510
v  1289.9919 7.1983 1390.5178
v  1279.2266 142.5869 1355.6279
v  1291.1791 142.5869 1388.4669
v  1291.1790 7.1983 1388.4669
v  1279.2266 7.1983 1355.6279
v  1262.6213 142.5869 1360.0529
v  1276.9990 142.5869 1354.8198
v  1276.9989 7.1983 1354.8197
v  1262.6212 7.1983 1360.0527
# 160 vertices

vn 0.6149 0.0480 0.7871
vn 0.9602 0.0480 0.2753
vn 0.9386 0.0480 -0.3416
vn 0.5586 0.0480 -0.8281
vn -0.0349 0.0480 -0.9982
vn -0.6149 0.0480 -0.7871
vn -0.9602 0.0480 -0.2753
vn -0.9386 0.0480 0.3416
vn -0.5585 0.0480 0.8281
vn 0.0349 0.0480 0.9982
vn 0.0000 1.0000 -0.0000
vn 0.6156 0.0000 0.7880
vn 0.9613 0.0000 0.2756
vn 0.9397 0.0000 -0.3420
vn 0.5592 0.0000 -0.8290
vn -0.0349 0.0000 -0.9994
vn -0.6157 0.0000 -0.7880
vn -0.9613 0.0000 -0.2756
vn -0.9397 0.0000 0.3420
vn -0.5592 0.0000 0.8290
vn 0.0350 0.0000 0.9994
vn 0.2975 0.8755 0.3808
vn 0.0169 0.8755 0.4829
vn -0.2702 0.8755 0.4006
vn -0.4540 0.8755 0.1652
vn -0.4645 0.8755 -0.1332
vn -0.2975 0.8755 -0.3807
vn -0.0169 0.8755 -0.4829
vn 0.2702 0.8755 -0.4006
vn 0.4540 0.8755 -0.1653
vn 0.4645 0.8755 0.1332
vn 0.2975 -0.8755 0.3808
vn 0.4645 -0.8755 0.1332
vn 0.4540 -0.8755 -0.1653
vn 0.2702 -0.8755 -0.4006
vn -0.0169 -0.8755 -0.4829
vn -0.2975 -0.8755 -0.3807
vn -0.4645 -0.8755 -0.1332
vn -0.4540 -0.8755 0.1652
vn -0.2702 -0.8755 0.4006
vn 0.0169 -0.8755 0.4829
vn 0.0349 0.0000 0.9994
vn 0.9613 0.0000 0.2757
vn 0.6153 0.0320 0.7876
vn 0.9608 0.0320 0.2755
vn 0.9392 0.0320 -0.3418
vn 0.5589 0.0320 -0.8286
vn -0.0349 0.0320 -0.9989
vn -0.6153 0.0320 -0.7876
vn -0.9608 0.0320 -0.2755
vn -0.9392 0.0320 0.3418
vn -0.5589 0.0320 0.8286
vn 0.0349 0.0320 0.9989
vn 0.6157 0.0000 0.7880
vn 0.2975 0.8755 0.3807
vn 0.0169 0.8755 0.4828
vn -0.4644 0.8755 -0.1332
vn -0.2974 0.8755 -0.3807
vn -0.0169 0.8755 -0.4828
vn 0.4644 0.8755 0.1332
vn 0.2975 -0.8755 0.3807
vn -0.2974 -0.8755 -0.3807
vn 0.3420 -0.0000 0.9397
vn 0.9397 -0.0000 -0.3420
vn -0.3420 0.0000 -0.9397
vn -0.7283 0.5402 -0.4215
vn -0.2870 0.5402 0.7911
vn 0.2870 0.5402 -0.7911
vn 0.7283 0.5402 0.4215
vn -0.6645 0.7071 0.2418
vn 0.2622 0.6420 0.7205
vn 0.6645 0.7071 -0.2418
vn -0.2622 0.6420 -0.7205
vn -0.3410 -0.0000 0.9401
vn -0.8655 0.0000 -0.5009
vn 0.8655 -0.0000 0.5009
vn 0.3411 -0.0000 -0.9400
# 77 vertex normals

vt 0.5941 0.8317 0.0000
vt 0.5650 0.8317 0.0000
vt 0.5650 0.6685 0.0000
vt 0.5941 0.6685 0.0000
vt 0.6245 0.8317 0.0000
vt 0.6245 0.6685 0.0000
vt 0.6564 0.8317 0.0000
vt 0.6564 0.6685 0.0000
vt 0.3830 0.8317 0.0000
vt 0.3517 0.8317 0.0000
vt 0.3517 0.6685 0.0000
vt 0.3830 0.6685 0.0000
vt 0.4127 0.8317 0.0000
vt 0.4127 0.6685 0.0000
vt 0.4418 0.8317 0.0000
vt 0.4418 0.6685 0.0000
vt 0.4722 0.8317 0.0000
vt 0.4722 0.6685 0.0000
vt 0.5040 0.8317 0.0000
vt 0.5040 0.6685 0.0000
vt 0.5354 0.8317 0.0000
vt 0.5354 0.6685 0.0000
vt 0.7956 0.9601 0.0000
vt 0.7784 0.9770 0.0000
vt 0.7541 0.9811 0.0000
vt 0.7874 0.9161 0.0000
vt 0.7319 0.9708 0.0000
vt 0.7203 0.9500 0.0000
vt 0.7238 0.9268 0.0000
vt 0.7409 0.9099 0.0000
vt 0.7652 0.9058 0.0000
vt 0.7990 0.9368 0.0000
vt 0.5941 0.8449 0.0000
vt 0.5650 0.8449 0.0000
vt 0.5650 0.8343 0.0000
vt 0.5941 0.8343 0.0000
vt 0.6245 0.8449 0.0000
vt 0.6245 0.8343 0.0000
vt 0.6564 0.8449 0.0000
vt 0.6564 0.8343 0.0000
vt 0.3830 0.8449 0.0000
vt 0.3517 0.8449 0.0000
vt 0.3517 0.8343 0.0000
vt 0.3830 0.8343 0.0000
vt 0.4127 0.8449 0.0000
vt 0.4127 0.8343 0.0000
vt 0.4418 0.8449 0.0000
vt 0.4418 0.8343 0.0000
vt 0.4722 0.8449 0.0000
vt 0.4722 0.8343 0.0000
vt 0.5040 0.8449 0.0000
vt 0.5040 0.8343 0.0000
vt 0.5354 0.8449 0.0000
vt 0.5354 0.8343 0.0000
vt 0.5941 0.8475 0.0000
vt 0.5650 0.8475 0.0000
vt 0.5354 0.8475 0.0000
vt 0.5040 0.8475 0.0000
vt 0.4722 0.8475 0.0000
vt 0.4418 0.8475 0.0000
vt 0.4127 0.8475 0.0000
vt 0.3830 0.8475 0.0000
vt 0.3517 0.8475 0.0000
vt 0.6564 0.8475 0.0000
vt 0.6245 0.8475 0.0000
vt 0.6364 0.9124 0.0000
vt 0.6323 0.9406 0.0000
vt 0.6247 0.9371 0.0000
vt 0.6282 0.9138 0.0000
vt 0.6115 0.9610 0.0000
vt 0.6076 0.9540 0.0000
vt 0.5821 0.9659 0.0000
vt 0.5833 0.9580 0.0000
vt 0.5553 0.9535 0.0000
vt 0.5611 0.9477 0.0000
vt 0.5413 0.9284 0.0000
vt 0.5495 0.9270 0.0000
vt 0.5454 0.9003 0.0000
vt 0.5530 0.9038 0.0000
vt 0.5662 0.8798 0.0000
vt 0.5701 0.8869 0.0000
vt 0.5956 0.8749 0.0000
vt 0.5944 0.8828 0.0000
vt 0.6224 0.8874 0.0000
vt 0.6166 0.8931 0.0000
vt 0.8887 0.8795 0.0000
vt 0.9137 0.8795 0.0000
vt 0.9137 0.7813 0.0000
vt 0.8887 0.7813 0.0000
vt 0.9399 0.8795 0.0000
vt 0.9399 0.7813 0.0000
vt 0.9673 0.8795 0.0000
vt 0.9673 0.7813 0.0000
vt 0.7050 0.8795 0.0000
vt 0.7320 0.8795 0.0000
vt 0.7320 0.7813 0.0000
vt 0.7050 0.7813 0.0000
vt 0.7575 0.8795 0.0000
vt 0.7575 0.7813 0.0000
vt 0.7826 0.8795 0.0000
vt 0.7826 0.7813 0.0000
vt 0.8088 0.8795 0.0000
vt 0.8088 0.7813 0.0000
vt 0.8362 0.8795 0.0000
vt 0.8362 0.7813 0.0000
vt 0.8631 0.8795 0.0000
vt 0.8631 0.7813 0.0000
vt 0.2909 0.9120 0.0000
vt 0.2602 0.9120 0.0000
vt 0.2602 0.6717 0.0000
vt 0.2909 0.6717 0.0000
vt 0.3230 0.9120 0.0000
vt 0.3230 0.6717 0.0000
vt 0.0470 0.9120 0.0000
vt 0.0153 0.9120 0.0000
vt 0.0153 0.6717 0.0000
vt 0.0470 0.6717 0.0000
vt 0.0770 0.9120 0.0000
vt 0.0770 0.6717 0.0000
vt 0.1064 0.9120 0.0000
vt 0.1064 0.6717 0.0000
vt 0.1370 0.9120 0.0000
vt 0.1370 0.6717 0.0000
vt 0.1692 0.9120 0.0000
vt 0.1692 0.6717 0.0000
vt 0.2008 0.9120 0.0000
vt 0.2008 0.6717 0.0000
vt 0.2308 0.9120 0.0000
vt 0.2308 0.6717 0.0000
vt 0.9207 0.9715 0.0000
vt 0.8964 0.9760 0.0000
vt 0.8741 0.9661 0.0000
vt 0.9405 0.9311 0.0000
vt 0.8621 0.9455 0.0000
vt 0.8651 0.9222 0.0000
vt 0.8820 0.9051 0.0000
vt 0.9062 0.9006 0.0000
vt 0.9285 0.9105 0.0000
vt 0.9375 0.9544 0.0000
vt 0.2909 0.9249 0.0000
vt 0.2602 0.9249 0.0000
vt 0.2602 0.9145 0.0000
vt 0.2909 0.9145 0.0000
vt 0.3230 0.9249 0.0000
vt 0.3230 0.9145 0.0000
vt 0.0470 0.9249 0.0000
vt 0.0153 0.9249 0.0000
vt 0.0153 0.9145 0.0000
vt 0.0470 0.9145 0.0000
vt 0.0770 0.9249 0.0000
vt 0.0770 0.9145 0.0000
vt 0.1064 0.9249 0.0000
vt 0.1064 0.9145 0.0000
vt 0.1370 0.9249 0.0000
vt 0.1370 0.9145 0.0000
vt 0.1692 0.9249 0.0000
vt 0.1692 0.9145 0.0000
vt 0.2008 0.9249 0.0000
vt 0.2008 0.9145 0.0000
vt 0.2308 0.9249 0.0000
vt 0.2308 0.9145 0.0000
vt 0.2909 0.9274 0.0000
vt 0.2602 0.9274 0.0000
vt 0.2308 0.9274 0.0000
vt 0.2008 0.9274 0.0000
vt 0.1692 0.9274 0.0000
vt 0.1370 0.9274 0.0000
vt 0.1064 0.9274 0.0000
vt 0.0770 0.9274 0.0000
vt 0.0470 0.9274 0.0000
vt 0.0153 0.9274 0.0000
vt 0.3230 0.9274 0.0000
vt 0.4771 0.9434 0.0000
vt 0.4567 0.9642 0.0000
vt 0.4527 0.9572 0.0000
vt 0.4695 0.9400 0.0000
vt 0.4274 0.9696 0.0000
vt 0.4284 0.9617 0.0000
vt 0.4004 0.9576 0.0000
vt 0.4061 0.9518 0.0000
vt 0.3859 0.9328 0.0000
vt 0.3941 0.9312 0.0000
vt 0.3895 0.9046 0.0000
vt 0.3971 0.9079 0.0000
vt 0.4099 0.8838 0.0000
vt 0.4139 0.8908 0.0000
vt 0.4392 0.8784 0.0000
vt 0.4382 0.8863 0.0000
vt 0.4663 0.8904 0.0000
vt 0.4605 0.8962 0.0000
vt 0.4807 0.9152 0.0000
vt 0.4725 0.9168 0.0000
vt 0.9158 0.7727 0.0000
vt 0.9423 0.7727 0.0000
vt 0.9423 0.6758 0.0000
vt 0.9158 0.6758 0.0000
vt 0.9701 0.7727 0.0000
vt 0.9701 0.6758 0.0000
vt 0.7039 0.7727 0.0000
vt 0.7313 0.7727 0.0000
vt 0.7313 0.6758 0.0000
vt 0.7039 0.6758 0.0000
vt 0.7573 0.7727 0.0000
vt 0.7573 0.6758 0.0000
vt 0.7827 0.7727 0.0000
vt 0.7827 0.6758 0.0000
vt 0.8092 0.7727 0.0000
vt 0.8092 0.6758 0.0000
vt 0.8370 0.7727 0.0000
vt 0.8370 0.6758 0.0000
vt 0.8644 0.7727 0.0000
vt 0.8644 0.6758 0.0000
vt 0.8903 0.7727 0.0000
vt 0.8903 0.6758 0.0000
vt 0.0122 0.2360 0.0000
vt 0.0122 0.0156 0.0000
vt 0.0948 0.0158 0.0000
vt 0.0948 0.2362 0.0000
vt 0.1044 0.2362 0.0000
vt 0.1044 0.0158 0.0000
vt 0.9781 0.0158 0.0000
vt 0.9781 0.2362 0.0000
vt 0.1043 0.3273 0.0000
vt 0.1043 0.2465 0.0000
vt 0.9780 0.2465 0.0000
vt 0.9780 0.3273 0.0000
vt 0.1043 0.5578 0.0000
vt 0.1043 0.3374 0.0000
vt 0.9780 0.3374 0.0000
vt 0.9780 0.5578 0.0000
vt 0.1043 0.6486 0.0000
vt 0.1043 0.5679 0.0000
vt 0.9781 0.5679 0.0000
vt 0.9781 0.6487 0.0000
vt 0.1043 0.6582 0.0000
vt 0.0957 0.6533 0.0000
vt 0.0958 0.2413 0.0000
vt 0.0949 0.5629 0.0000
vt 0.0958 0.3327 0.0000
vt 0.0947 0.2465 0.0000
vt 0.0947 0.3273 0.0000
vt 0.0947 0.3374 0.0000
vt 0.0947 0.5578 0.0000
vt 0.0947 0.5679 0.0000
vt 0.0947 0.6487 0.0000
vt 0.9781 0.6582 0.0000
# 246 texture coords

g e_chimney01_asset_006
s off
f 1/1/1 2/2/1 3/3/1 4/4/1 
f 5/5/2 1/1/2 4/4/2 6/6/2 
f 7/7/3 5/5/3 6/6/3 8/8/3 
f 9/9/4 7/10/4 8/11/4 10/12/4 
f 11/13/5 9/9/5 10/12/5 12/14/5 
f 13/15/6 11/13/6 12/14/6 14/16/6 
f 15/17/7 13/15/7 14/16/7 16/18/7 
f 17/19/8 15/17/8 16/18/8 18/20/8 
f 19/21/9 17/19/9 18/20/9 20/22/9 
f 19/21/10 20/22/10 3/3/10 2/2/10 
f 21/23/11 22/24/11 23/25/11 24/26/11 
f 23/25/11 25/27/11 26/28/11 24/26/11 
f 26/28/11 27/29/11 28/30/11 24/26/11 
f 28/30/11 29/31/11 24/26/11 
f 30/32/11 21/23/11 24/26/11 
f 31/33/12 32/34/12 33/35/12 34/36/12 
f 35/37/13 31/33/13 34/36/13 36/38/13 
f 37/39/14 35/37/14 36/38/14 38/40/14 
f 39/41/15 37/42/15 38/43/15 40/44/15 
f 41/45/16 39/41/16 40/44/16 42/46/16 
f 43/47/17 41/45/17 42/46/17 44/48/17 
f 45/49/18 43/47/18 44/48/18 46/50/18 
f 47/51/19 45/49/19 46/50/19 48/52/19 
f 49/53/20 47/51/20 48/52/20 50/54/20 
f 32/34/21 49/53/21 50/54/21 33/35/21 
f 51/55/22 52/56/22 32/34/22 31/33/22 
f 52/56/23 53/57/23 49/53/23 32/34/23 
f 53/57/24 54/58/24 47/51/24 49/53/24 
f 54/58/25 55/59/25 45/49/25 47/51/25 
f 55/59/26 56/60/26 43/47/26 45/49/26 
f 56/60/27 57/61/27 41/45/27 43/47/27 
f 57/61/28 58/62/28 39/41/28 41/45/28 
f 58/62/29 59/63/29 37/42/29 39/41/29 
f 59/64/30 60/65/30 35/37/30 37/39/30 
f 60/65/31 51/55/31 31/33/31 35/37/31 
f 2/2/32 1/1/32 34/36/32 33/35/32 
f 1/1/33 5/5/33 36/38/33 34/36/33 
f 5/5/34 7/7/34 38/40/34 36/38/34 
f 7/10/35 9/9/35 40/44/35 38/43/35 
f 9/9/36 11/13/36 42/46/36 40/44/36 
f 11/13/37 13/15/37 44/48/37 42/46/37 
f 13/15/38 15/17/38 46/50/38 44/48/38 
f 15/17/39 17/19/39 48/52/39 46/50/39 
f 17/19/40 19/21/40 50/54/40 48/52/40 
f 19/21/41 2/2/41 33/35/41 50/54/41 
f 52/66/11 51/67/11 61/68/11 62/69/11 
f 51/67/11 60/70/11 63/71/11 61/68/11 
f 60/70/11 59/72/11 64/73/11 63/71/11 
f 59/72/11 58/74/11 65/75/11 64/73/11 
f 58/74/11 57/76/11 66/77/11 65/75/11 
f 57/76/11 56/78/11 67/79/11 66/77/11 
f 56/78/11 55/80/11 68/81/11 67/79/11 
f 55/80/11 54/82/11 69/83/11 68/81/11 
f 54/82/11 53/84/11 70/85/11 69/83/11 
f 53/84/11 52/66/11 62/69/11 70/85/11 
f 62/86/17 61/87/17 21/88/17 30/89/17 
f 61/87/18 63/90/18 22/91/18 21/88/18 
f 63/90/19 64/92/19 23/93/19 22/91/19 
f 64/94/20 65/95/20 25/96/20 23/97/20 
f 65/95/42 66/98/42 26/99/42 25/96/42 
f 66/98/12 67/100/12 27/101/12 26/99/12 
f 67/100/43 68/102/43 28/103/43 27/101/43 
f 68/102/14 69/104/14 29/105/14 28/103/14 
f 69/104/15 70/106/15 24/107/15 29/105/15 
f 70/106/16 62/86/16 30/89/16 24/107/16 
f 71/108/44 72/109/44 73/110/44 74/111/44 
f 75/112/45 71/108/45 74/111/45 76/113/45 
f 77/114/46 75/115/46 76/116/46 78/117/46 
f 79/118/47 77/114/47 78/117/47 80/119/47 
f 81/120/48 79/118/48 80/119/48 82/121/48 
f 83/122/49 81/120/49 82/121/49 84/123/49 
f 85/124/50 83/122/50 84/123/50 86/125/50 
f 87/126/51 85/124/51 86/125/51 88/127/51 
f 89/128/52 87/126/52 88/127/52 90/129/52 
f 89/128/53 90/129/53 73/110/53 72/109/53 
f 91/130/11 92/131/11 93/132/11 94/133/11 
f 93/132/11 95/134/11 96/135/11 94/133/11 
f 96/135/11 97/136/11 98/137/11 94/133/11 
f 98/137/11 99/138/11 94/133/11 
f 100/139/11 91/130/11 94/133/11 
f 101/140/54 102/141/54 103/142/54 104/143/54 
f 105/144/13 101/140/13 104/143/13 106/145/13 
f 107/146/14 105/147/14 106/148/14 108/149/14 
f 109/150/15 107/146/15 108/149/15 110/151/15 
f 111/152/16 109/150/16 110/151/16 112/153/16 
f 113/154/17 111/152/17 112/153/17 114/155/17 
f 115/156/18 113/154/18 114/155/18 116/157/18 
f 117/158/19 115/156/19 116/157/19 118/159/19 
f 119/160/20 117/158/20 118/159/20 120/161/20 
f 102/141/42 119/160/42 120/161/42 103/142/42 
f 121/162/55 122/163/55 102/141/55 101/140/55 
f 122/163/56 123/164/56 119/160/56 102/141/56 
f 123/164/24 124/165/24 117/158/24 119/160/24 
f 124/165/25 125/166/25 115/156/25 117/158/25 
f 125/166/57 126/167/57 113/154/57 115/156/57 
f 126/167/58 127/168/58 111/152/58 113/154/58 
f 127/168/59 128/169/59 109/150/59 111/152/59 
f 128/169/29 129/170/29 107/146/29 109/150/29 
f 129/170/30 130/171/30 105/147/30 107/146/30 
f 130/172/60 121/162/60 101/140/60 105/144/60 
f 72/109/61 71/108/61 104/143/61 103/142/61 
f 71/108/33 75/112/33 106/145/33 104/143/33 
f 75/115/34 77/114/34 108/149/34 106/148/34 
f 77/114/35 79/118/35 110/151/35 108/149/35 
f 79/118/36 81/120/36 112/153/36 110/151/36 
f 81/120/62 83/122/62 114/155/62 112/153/62 
f 83/122/38 85/124/38 116/157/38 114/155/38 
f 85/124/39 87/126/39 118/159/39 116/157/39 
f 87/126/40 89/128/40 120/161/40 118/159/40 
f 89/128/41 72/109/41 103/142/41 120/161/41 
f 122/173/11 121/174/11 131/175/11 132/176/11 
f 121/174/11 130/177/11 133/178/11 131/175/11 
f 130/177/11 129/179/11 134/180/11 133/178/11 
f 129/179/11 128/181/11 135/182/11 134/180/11 
f 128/181/11 127/183/11 136/184/11 135/182/11 
f 127/183/11 126/185/11 137/186/11 136/184/11 
f 126/185/11 125/187/11 138/188/11 137/186/11 
f 125/187/11 124/189/11 139/190/11 138/188/11 
f 124/189/11 123/191/11 140/192/11 139/190/11 
f 123/191/11 122/173/11 132/176/11 140/192/11 
f 132/193/17 131/194/17 91/195/17 100/196/17 
f 131/194/18 133/197/18 92/198/18 91/195/18 
f 133/199/19 134/200/19 93/201/19 92/202/19 
f 134/200/20 135/203/20 95/204/20 93/201/20 
f 135/203/42 136/205/42 96/206/42 95/204/42 
f 136/205/54 137/207/54 97/208/54 96/206/54 
f 137/207/13 138/209/13 98/210/13 97/208/13 
f 138/209/14 139/211/14 99/212/14 98/210/14 
f 139/211/15 140/213/15 94/214/15 99/212/15 
f 140/213/16 132/193/16 100/196/16 94/214/16 
f 141/215/11 142/216/11 143/217/11 144/218/11 
f 145/219/19 146/220/19 147/221/19 148/222/19 
f 149/223/63 150/224/63 151/225/63 152/226/63 
f 153/227/64 154/228/64 155/229/64 156/230/64 
f 157/231/65 158/232/65 159/233/65 160/234/65 
f 146/235/66 143/236/66 157/231/66 
f 150/224/67 144/237/67 145/219/67 
f 158/232/68 142/238/68 153/227/68 
f 154/228/69 141/239/69 149/223/69 
f 143/217/70 146/220/70 145/219/70 144/218/70 
f 144/240/71 150/224/71 149/223/71 141/241/71 
f 141/242/72 154/228/72 153/227/72 142/243/72 
f 142/244/73 158/232/73 157/231/73 143/245/73 
f 148/222/74 151/225/74 150/224/74 145/219/74 
f 146/235/75 157/231/75 160/234/75 147/246/75 
f 152/226/76 155/229/76 154/228/76 149/223/76 
f 156/230/77 159/233/77 158/232/77 153/227/77 
# 139 polygons - 8 triangles

