# 3ds Max Wavefront OBJ Exporter v0.97b - (c)2007 guruware
# File Created: 20.11.2013 16:15:26

#
# object e_porch02_asset_004
#

v  620.2125 10.5851 1399.7915
v  620.2125 47.8522 1399.7915
v  598.4644 47.8522 1368.7321
v  598.4644 10.5851 1368.7321
v  595.6979 7.1983 1370.6692
v  617.3418 7.1983 1401.5798
v  617.3939 10.7704 1401.6542
v  595.7499 10.7704 1370.7435
v  596.6789 10.7773 1366.1820
v  596.6789 48.0443 1366.1820
v  586.7780 48.0443 1352.0421
v  586.7780 10.7773 1352.0421
v  584.0590 7.1983 1354.0470
v  593.8649 7.1983 1368.0514
v  593.8886 10.8665 1368.0853
v  584.0352 10.8665 1354.0132
v  596.6721 10.7705 1370.0979
v  596.6200 47.8522 1370.0234
v  594.8345 48.0443 1367.4735
v  594.8108 10.8665 1367.4396
v  584.0114 48.0443 1353.9792
v  581.5124 48.0447 1350.4119
v  581.4874 10.8710 1350.3644
v  581.4514 7.2065 1350.3246
v  619.9226 10.8712 1405.2552
v  619.8850 48.0447 1405.2139
v  617.4459 47.8522 1401.7286
v  619.9488 7.2068 1405.3048
v  620.2125 86.8242 1399.7915
v  598.4644 86.8242 1368.7321
v  598.4644 51.2622 1368.7321
v  620.2125 51.2622 1399.7915
v  596.6788 86.6348 1366.1820
v  586.7780 86.6348 1352.0421
v  586.7780 51.0727 1352.0421
v  596.6789 51.0727 1366.1820
v  596.6200 86.8242 1370.0234
v  594.8345 86.6348 1367.4735
v  594.8345 51.0727 1367.4735
v  596.6200 51.2622 1370.0234
v  584.0114 86.6348 1353.9792
v  581.5124 86.6348 1350.4119
v  581.5124 51.0727 1350.4119
v  584.0114 51.0727 1353.9792
v  619.8850 86.6348 1405.2139
v  617.4459 86.8242 1401.7286
v  617.4459 51.2622 1401.7286
v  619.8850 51.0727 1405.2139
v  618.3681 86.8242 1401.0829
v  618.3681 89.7351 1401.0829
v  596.6200 89.7351 1370.0234
v  594.8345 89.7351 1367.4735
v  584.9337 89.7351 1353.3335
v  584.9336 86.6348 1353.3336
v  584.0114 89.7351 1353.9792
v  581.5124 89.7351 1350.4119
v  619.8850 89.7351 1405.2139
v  617.4459 89.7351 1401.7286
v  584.9336 51.0727 1353.3336
v  584.9336 48.0443 1353.3336
v  585.3854 48.0447 1347.7510
v  585.3970 10.8893 1347.6591
v  618.3160 10.7705 1401.0085
v  618.3681 47.8522 1401.0829
v  618.3681 51.2622 1401.0829
v  584.9574 10.8665 1353.3674
v  623.7365 10.8353 1402.4973
v  623.7091 48.0447 1402.4829
v  585.3854 86.6348 1347.7510
v  585.3854 51.0727 1347.7510
v  623.7091 51.0727 1402.4829
v  623.7091 86.6348 1402.4829
v  623.7091 89.7351 1402.4829
v  623.8182 7.2113 1402.5419
v  585.3817 10.8467 1347.7216
v  585.3687 7.2108 1347.6302
v  585.3854 89.7351 1347.7510
v  586.0311 48.0443 1348.6732
v  586.0235 10.7996 1348.6624
v  623.0714 10.7996 1401.5721
v  623.0634 48.0444 1401.5608
v  586.0311 86.6348 1348.6732
v  586.0311 51.0727 1348.6732
v  623.0634 51.0727 1401.5608
v  623.0634 86.6348 1401.5608
v  623.0634 89.7351 1401.5608
v  586.0311 89.7351 1348.6732
v  623.9150 10.7773 1324.8953
v  587.3226 10.7773 1350.5176
v  587.3226 48.0444 1350.5176
v  623.9150 48.0444 1324.8953
v  621.8233 10.9559 1322.1018
v  621.9143 7.1984 1322.0381
v  622.6235 10.7773 1323.0509
v  623.9150 86.6348 1324.8953
v  623.9150 51.0728 1324.8953
v  587.3226 51.0728 1350.5176
v  587.3226 86.6348 1350.5176
v  622.6236 86.6348 1323.0509
v  622.6236 89.7351 1323.0509
v  622.6236 48.0444 1323.0509
v  622.6236 51.0728 1323.0509
v  658.3644 10.7773 1374.0941
v  658.3644 48.0444 1374.0941
v  621.7720 48.0444 1399.7164
v  621.7720 10.7773 1399.7164
v  660.3651 7.1984 1376.9514
v  660.2740 10.9559 1377.0151
v  623.8636 10.9559 1402.5100
v  659.6558 10.7773 1375.9385
v  658.3644 86.6348 1374.0941
v  621.7720 86.6348 1399.7164
v  621.7720 51.0728 1399.7164
v  658.3644 51.0728 1374.0941
v  659.6558 86.6348 1375.9385
v  659.6558 89.7351 1375.9385
v  659.6558 48.0444 1375.9385
v  659.6558 51.0728 1375.9385
v  600.7007 118.5991 1377.8141
v  600.7000 123.1487 1377.8147
v  601.6230 118.5991 1377.1683
v  620.2125 89.7351 1399.7914
v  598.4644 89.7351 1368.7319
v  596.6789 89.7351 1366.1820
v  586.7781 89.7351 1352.0421
v  603.4674 118.5991 1375.8768
v  608.4695 127.3012 1372.3744
v  646.9276 127.3013 1345.4458
v  624.3547 88.6244 1313.2084
v  585.8967 88.6243 1340.1370
v  575.0237 88.6243 1347.7502
v  577.6186 88.6243 1351.4561
v  597.5966 123.1487 1379.9877
v  597.5966 127.3013 1379.9877
v  588.4916 88.6243 1343.8428
v  608.4695 123.1486 1372.3744
v  626.9496 88.6243 1316.9143
v  608.4696 127.3012 1372.3745
v  631.0425 88.6243 1404.6119
v  669.5005 88.6244 1377.6833
v  646.9276 127.3013 1345.4459
v  620.1696 88.6243 1412.2252
v  597.5967 127.3013 1379.9878
v  597.5967 123.1487 1379.9878
v  617.5747 88.6243 1408.5193
v  608.4696 123.1486 1372.3745
v  628.4476 88.6243 1400.9060
v  666.9056 88.6243 1373.9774
# 148 vertices

vn -0.8192 -0.0000 0.5736
vn -0.8198 -0.0002 0.5726
vn -0.8190 -0.0000 0.5738
vn -0.8191 -0.0000 0.5737
vn -0.8199 -0.0002 0.5725
vn -0.8195 0.0009 0.5731
vn -0.8184 -0.0000 0.5746
vn -0.8193 -0.0001 0.5734
vn -0.8184 -0.0000 0.5747
vn -0.8188 0.0010 0.5740
vn -0.8192 0.0000 0.5736
vn -0.8193 -0.0000 0.5734
vn -0.5677 0.0016 -0.8233
vn 0.0672 0.9966 -0.0471
vn -0.5569 0.0012 -0.8306
vn -0.5736 0.0000 -0.8192
vn 0.0000 -1.0000 -0.0000
vn 0.5736 0.0000 0.8192
vn 0.5900 0.0012 0.8074
vn -0.5660 0.0006 -0.8244
vn 0.5811 0.0006 0.8138
vn 0.0325 0.9992 -0.0227
vn 0.5836 0.0011 0.8121
vn -0.5663 0.0000 -0.8242
vn 0.0000 1.0000 -0.0000
vn 0.5812 0.0000 0.8138
vn 0.5835 0.0191 0.8119
vn -0.5640 0.0186 -0.8256
vn -0.0000 1.0000 0.0000
vn 0.0170 0.9996 0.0242
vn 0.5736 0.0011 0.8192
vn -0.5736 0.0024 -0.8191
vn 0.8343 0.0008 -0.5512
vn 0.8155 0.0002 -0.5787
vn 0.8192 0.0000 -0.5736
vn 0.8191 0.0000 -0.5736
vn -0.5736 -0.0000 -0.8192
vn -0.5740 0.0054 -0.8189
vn 0.0629 0.9939 0.0906
vn 0.0000 -1.0000 0.0000
vn 0.0030 1.0000 0.0039
vn -0.0000 1.0000 -0.0000
vn -0.0772 0.9909 -0.1106
vn 0.5736 -0.0000 0.8192
vn -0.0000 -1.0000 -0.0000
vn -0.0026 1.0000 -0.0042
vn 0.0000 1.0000 0.0000
vn 0.8192 -0.0000 -0.5736
vn 0.8191 -0.0000 -0.5736
vn -0.8190 -0.0002 0.5737
vn -0.8193 -0.0002 0.5734
vn 0.4039 -0.7099 0.5769
vn -0.4033 -0.7111 -0.5759
vn -0.4020 0.7132 -0.5742
vn 0.4038 -0.7102 0.5767
vn 0.4020 0.7132 0.5742
vn -0.4038 -0.7102 -0.5767
# 57 vertex normals

vt 0.5400 0.6348 0.0000
vt 0.5400 0.8064 0.0000
vt 0.3316 0.8064 0.0000
vt 0.3316 0.6348 0.0000
vt 0.4531 0.6047 0.7518
vt 0.6728 0.6047 0.7518
vt 0.6734 0.5896 0.7875
vt 0.4536 0.5896 0.7875
vt 0.3216 0.6348 0.0000
vt 0.3216 0.8065 0.0000
vt 0.2267 0.8065 0.0000
vt 0.2267 0.6348 0.0000
vt 0.3349 0.6047 0.7518
vt 0.4345 0.6047 0.7518
vt 0.4347 0.5894 0.8094
vt 0.3346 0.5894 0.8094
vt 0.6180 0.0340 0.0000
vt 0.6176 0.2271 0.0000
vt 0.6024 0.2281 0.0000
vt 0.6022 0.0345 0.0000
vt 0.9648 0.5910 0.7306
vt 0.9647 0.7719 0.7238
vt 0.9419 0.7719 0.7220
vt 0.9417 0.5910 0.7297
vt 0.3084 0.6047 0.7503
vt 0.3087 0.5893 0.8091
vt 0.8476 0.5963 0.7353
vt 0.8474 0.7755 0.7283
vt 0.8267 0.7746 0.6949
vt 0.8263 0.5958 0.7077
vt 0.6993 0.6047 0.7502
vt 0.6990 0.5893 0.8091
vt 0.5400 0.9859 0.0000
vt 0.3316 0.9859 0.0000
vt 0.3316 0.8221 0.0000
vt 0.5400 0.8221 0.0000
vt 0.3222 0.9866 0.0000
vt 0.2273 0.9866 0.0000
vt 0.2273 0.8228 0.0000
vt 0.3222 0.8228 0.0000
vt 0.6176 0.4301 0.0000
vt 0.6024 0.4292 0.0000
vt 0.6024 0.2439 0.0000
vt 0.6176 0.2449 0.0000
vt 0.9647 0.9597 0.7238
vt 0.9419 0.9597 0.7220
vt 0.9419 0.7866 0.7220
vt 0.9647 0.7866 0.7238
vt 0.8474 0.9615 0.7283
vt 0.8267 0.9624 0.6949
vt 0.8267 0.7910 0.6949
vt 0.8474 0.7901 0.7283
vt 0.8019 0.4301 0.0000
vt 0.8019 0.4453 0.0000
vt 0.6176 0.4453 0.0000
vt 0.6024 0.4453 0.0000
vt 0.5185 0.4453 0.0000
vt 0.5185 0.4292 0.0000
vt 0.9647 0.9747 0.7238
vt 0.9419 0.9747 0.7220
vt 0.8474 0.9765 0.7283
vt 0.8267 0.9765 0.6949
vt 0.5185 0.2439 0.0000
vt 0.5185 0.2281 0.0000
vt 0.9185 0.7719 0.7056
vt 0.9186 0.5911 0.7264
vt 0.4536 0.5855 0.5767
vt 0.6734 0.5855 0.5767
vt 0.6739 0.5740 0.6933
vt 0.4531 0.5740 0.6933
vt 0.8216 0.5958 0.5531
vt 0.8219 0.7746 0.5361
vt 0.8074 0.7746 0.5347
vt 0.8074 0.5949 0.5347
vt 0.8219 0.7910 0.5361
vt 0.8074 0.7910 0.5347
vt 0.8219 0.9624 0.5361
vt 0.8074 0.9624 0.5347
vt 0.6398 0.3303 0.0000
vt 0.8306 0.3303 0.0000
vt 0.8306 0.3416 0.0000
vt 0.6398 0.3416 0.0000
vt 0.9569 0.1000 0.0000
vt 0.9569 0.2790 0.0000
vt 0.9455 0.2790 0.0000
vt 0.9455 0.1000 0.0000
vt 0.9569 0.2962 0.0000
vt 0.9455 0.2962 0.0000
vt 0.9569 0.4828 0.0000
vt 0.9455 0.4837 0.0000
vt 0.6395 0.3538 0.0000
vt 0.8266 0.3538 0.0000
vt 0.8266 0.3651 0.0000
vt 0.6390 0.3651 0.0000
vt 0.7556 0.4833 0.0000
vt 0.8425 0.4833 0.0000
vt 0.8425 0.4946 0.0000
vt 0.7556 0.4946 0.0000
vt 0.9691 0.7719 0.5755
vt 0.9692 0.5910 0.5840
vt 0.9823 0.5905 0.5514
vt 0.9823 0.7719 0.5514
vt 0.3346 0.5853 0.6049
vt 0.4347 0.5853 0.6049
vt 0.4349 0.5746 0.7321
vt 0.3344 0.5746 0.7321
vt 0.8725 0.5961 0.6771
vt 0.8725 0.7755 0.6710
vt 0.9185 0.9597 0.7056
vt 0.9185 0.7866 0.7056
vt 0.7556 0.5351 0.0000
vt 0.8425 0.5351 0.0000
vt 0.8425 0.5465 0.0000
vt 0.7556 0.5465 0.0000
vt 0.9691 0.9597 0.5755
vt 0.9691 0.7866 0.5755
vt 0.9823 0.7866 0.5514
vt 0.9823 0.9597 0.5514
vt 0.7556 0.5092 0.0000
vt 0.8425 0.5092 0.0000
vt 0.8425 0.5205 0.0000
vt 0.7556 0.5205 0.0000
vt 0.6372 0.3773 0.0000
vt 0.8162 0.3773 0.0000
vt 0.8162 0.3886 0.0000
vt 0.6372 0.3886 0.0000
vt 0.8725 0.7901 0.6710
vt 0.8725 0.9615 0.6710
vt 0.8725 0.9765 0.6710
vt 0.3738 0.5374 1.9525
vt 0.3738 0.5543 1.9063
vt 0.3997 0.5545 1.8816
vt 0.3995 0.5373 1.8929
vt 0.3735 0.4683 1.2693
vt 0.3735 0.4841 1.2241
vt 0.3999 0.4843 1.1911
vt 0.4002 0.4682 1.2535
vt 0.9185 0.9747 0.7056
vt 0.9691 0.9747 0.5755
vt 0.8219 0.9765 0.5361
vt 0.9135 0.7719 0.5546
vt 0.9136 0.5906 0.5559
vt 0.8776 0.5959 0.5526
vt 0.8777 0.7755 0.5517
vt 0.9135 0.9597 0.5546
vt 0.9135 0.7866 0.5546
vt 0.8777 0.7901 0.5517
vt 0.8777 0.9615 0.5517
vt 0.8777 0.9765 0.5517
vt 0.9135 0.9747 0.5546
vt 0.2169 0.6349 0.0000
vt 0.0139 0.6349 0.0000
vt 0.0139 0.8064 0.0000
vt 0.2169 0.8064 0.0000
vt 0.4002 0.4843 1.2207
vt 0.6501 0.4843 1.2585
vt 0.6507 0.4682 1.2585
vt 0.3998 0.4891 0.8635
vt 0.6507 0.4892 0.8513
vt 0.2183 0.9855 0.0000
vt 0.2183 0.8219 0.0000
vt 0.0152 0.8219 0.0000
vt 0.0152 0.9855 0.0000
vt 0.0252 0.5307 0.0000
vt 0.2424 0.5307 0.0000
vt 0.2424 0.5468 0.0000
vt 0.0252 0.5468 0.0000
vt 0.0250 0.5014 0.0000
vt 0.2422 0.5014 0.0000
vt 0.2422 0.5172 0.0000
vt 0.0250 0.5172 0.0000
vt 0.6471 0.1860 0.0000
vt 0.6471 0.1747 0.0000
vt 0.8719 0.1747 0.0000
vt 0.8719 0.1860 0.0000
vt 0.3998 0.5007 1.2132
vt 0.6507 0.5007 1.2132
vt 0.6471 0.2119 0.0000
vt 0.6471 0.2006 0.0000
vt 0.8719 0.2006 0.0000
vt 0.8719 0.2119 0.0000
vt 0.8719 0.2265 0.0000
vt 0.8719 0.2379 0.0000
vt 0.6471 0.2379 0.0000
vt 0.6471 0.2265 0.0000
vt 0.7596 0.6338 0.0000
vt 0.7596 0.8053 0.0000
vt 0.5566 0.8053 0.0000
vt 0.5566 0.6338 0.0000
vt 0.6430 0.5545 1.8886
vt 0.6424 0.5372 2.0069
vt 0.4000 0.5372 2.0069
vt 0.6430 0.5326 1.3681
vt 0.3994 0.5326 1.3880
vt 0.7590 0.9857 0.0000
vt 0.5559 0.9857 0.0000
vt 0.5559 0.8221 0.0000
vt 0.7590 0.8221 0.0000
vt 0.0270 0.5895 0.0000
vt 0.0270 0.6056 0.0000
vt 0.2442 0.6056 0.0000
vt 0.2442 0.5895 0.0000
vt 0.0270 0.5635 0.0000
vt 0.0270 0.5793 0.0000
vt 0.2442 0.5793 0.0000
vt 0.2442 0.5635 0.0000
vt 0.6471 0.2784 0.0000
vt 0.8719 0.2784 0.0000
vt 0.8719 0.2897 0.0000
vt 0.6471 0.2897 0.0000
vt 0.6430 0.5208 1.8178
vt 0.3994 0.5208 1.8178
vt 0.6471 0.2525 0.0000
vt 0.8719 0.2525 0.0000
vt 0.8719 0.2638 0.0000
vt 0.6471 0.2638 0.0000
vt 0.8719 0.3157 0.0000
vt 0.6471 0.3157 0.0000
vt 0.6471 0.3043 0.0000
vt 0.8719 0.3043 0.0000
vt 0.8995 0.5905 0.5806
vt 0.8995 0.7719 0.5806
vt 0.8995 0.7866 0.5806
vt 0.8995 0.9597 0.5806
vt 0.8903 0.9615 0.6139
vt 0.8903 0.7901 0.6139
vt 0.8903 0.7755 0.6139
vt 0.8903 0.5958 0.6139
vt 0.5877 0.1667 0.0000
vt 0.5670 0.1667 0.0000
vt 0.4287 0.0295 0.0000
vt 0.4287 0.0079 0.0000
vt 0.2899 0.1667 0.0000
vt 0.2697 0.1667 0.0000
vt 0.7885 0.1168 0.0000
vt 0.9292 0.1168 0.0000
vt 0.9292 0.1223 0.0000
vt 0.7885 0.1223 0.0000
vt 0.6474 0.1168 0.0000
vt 0.6474 0.1223 0.0000
vt 0.7454 0.1469 0.0000
vt 0.9287 0.1469 0.0000
vt 0.9287 0.1578 0.0000
vt 0.7454 0.1578 0.0000
vt 0.6469 0.1469 0.0000
vt 0.7304 0.1469 0.0000
vt 0.7304 0.1578 0.0000
vt 0.6469 0.1578 0.0000
vt 0.9292 0.1332 0.0000
vt 0.7885 0.1332 0.0000
vt 0.6474 0.1332 0.0000
vt 0.1267 0.0136 0.0000
vt 0.3301 0.0136 0.0000
vt 0.1735 0.1586 0.0000
vt 0.0175 0.0136 0.0000
vt 0.1101 0.0136 0.0000
vt 0.2163 0.4882 0.0000
vt 0.0106 0.4882 0.0000
vt 0.0106 0.1759 0.0000
vt 0.2163 0.1759 0.0000
vt 0.3889 0.1581 0.0000
vt 0.3780 0.1690 0.0000
vt 0.3774 0.4404 0.0000
vt 0.3871 0.4500 0.0000
vt 0.2886 0.2112 0.0000
vt 0.3501 0.2112 0.0000
vt 0.3501 0.4854 0.0000
vt 0.2886 0.4854 0.0000
vt 0.4210 0.2154 0.0000
vt 0.4210 0.4577 0.0000
vt 0.4369 0.4577 0.0000
vt 0.4369 0.2154 0.0000
vt 0.2744 0.4882 0.0000
vt 0.2744 0.1759 0.0000
vt 0.4210 0.1470 0.0000
vt 0.4369 0.1470 0.0000
vt 1.2163 0.4882 0.0000
vt 1.2163 0.1759 0.0000
vt 1.0106 0.1759 0.0000
vt 1.0106 0.4882 0.0000
vt 1.3889 0.1581 0.0000
vt 1.3871 0.4500 0.0000
vt 1.3774 0.4404 0.0000
vt 1.3780 0.1690 0.0000
vt 1.2886 0.2112 0.0000
vt 1.2886 0.4854 0.0000
vt 1.3501 0.4854 0.0000
vt 1.3501 0.2112 0.0000
vt 1.4210 0.2154 0.0000
vt 1.4369 0.2154 0.0000
vt 1.4369 0.4577 0.0000
vt 1.4210 0.4577 0.0000
vt 1.2744 0.4882 0.0000
vt 1.2744 0.1759 0.0000
vt 1.4210 0.1470 0.0000
vt 1.4369 0.1470 0.0000
# 296 texture coords

g e_porch02_asset_004
s 1
f 1/1/1 2/2/1 3/3/1 4/4/1 
s off
f 5/5/1 6/6/1 7/7/1 8/8/1 
s 1
f 9/9/1 10/10/1 11/11/1 12/12/1 
s off
f 13/13/1 14/14/1 15/15/1 16/16/1 
s 1
f 17/17/1 18/18/1 19/19/1 20/20/1 
s off
f 14/14/1 5/5/1 8/8/1 15/15/1 
s 1
f 16/21/2 21/22/3 22/23/4 23/24/5 
s off
f 24/25/6 13/13/6 16/16/6 23/26/6 
s 1
f 25/27/7 26/28/8 27/29/8 7/30/9 
s off
f 6/6/10 28/31/10 25/32/10 7/7/10 
s 1
f 29/33/1 30/34/1 31/35/1 32/36/1 
f 33/37/1 34/38/1 35/39/1 36/40/1 
f 37/41/1 38/42/11 39/43/1 40/44/1 
f 41/45/3 42/46/3 43/47/3 44/48/3 
f 45/49/12 46/50/12 47/51/12 48/52/12 
f 49/53/11 50/54/11 51/55/1 37/41/1 
f 38/42/11 52/56/1 53/57/11 54/58/11 
f 37/41/1 51/55/1 52/56/1 38/42/11 
f 41/45/3 55/59/3 56/60/3 42/46/3 
f 45/49/12 57/61/12 58/62/12 46/50/12 
f 2/2/1 32/36/1 31/35/1 3/3/1 
f 19/19/1 39/43/1 59/63/1 60/64/1 
f 18/18/1 40/44/1 39/43/1 19/19/1 
f 21/22/3 44/48/3 43/47/3 22/23/4 
f 26/28/8 48/52/12 47/51/12 27/29/8 
s off
f 23/24/13 22/23/13 61/65/13 62/66/13 
f 17/67/14 63/68/14 1/69/14 4/70/14 
f 63/71/15 64/72/15 2/73/15 1/74/15 
f 64/72/16 65/75/16 32/76/16 2/73/16 
f 65/75/16 49/77/16 29/78/16 32/76/16 
f 49/79/17 37/80/17 30/81/17 29/82/17 
f 37/83/18 40/84/18 31/85/18 30/86/18 
f 40/84/18 18/87/18 3/88/18 31/85/18 
f 18/87/19 17/89/19 4/90/19 3/88/19 
f 20/91/20 19/92/20 10/93/20 9/94/20 
f 19/95/17 60/96/17 11/97/17 10/98/17 
f 60/99/21 66/100/21 12/101/21 11/102/21 
f 66/103/22 20/104/22 9/105/22 12/106/22 
f 26/28/23 25/27/23 67/107/23 68/108/23 
f 43/47/24 42/46/24 69/109/24 70/110/24 
f 38/111/17 54/112/17 34/113/17 33/114/17 
f 54/115/18 59/116/18 35/117/18 34/118/18 
f 59/119/25 39/120/25 36/121/25 35/122/25 
f 39/123/16 38/124/16 33/125/16 36/126/16 
f 45/49/26 48/52/26 71/127/26 72/128/26 
f 73/129/26 57/61/26 45/49/26 72/128/26 
s 2
f 48/52/26 26/28/26 68/108/26 71/127/26 
s off
f 25/130/27 28/131/27 74/132/27 67/133/27 
f 24/134/28 23/135/28 75/136/28 76/137/28 
s 2
f 42/46/24 56/60/24 77/138/24 69/109/24 
f 70/110/24 61/65/24 22/23/24 43/47/24 
s off
f 63/68/29 17/67/29 8/8/29 7/7/29 
f 20/104/29 66/103/29 16/16/29 15/15/29 
f 17/67/30 20/104/30 15/15/30 8/8/30 
f 66/100/31 60/99/31 21/22/31 16/21/31 
f 64/72/32 63/71/32 7/30/32 27/29/32 
f 59/116/18 54/115/18 41/45/18 44/48/18 
f 49/77/16 65/75/16 47/51/16 46/50/16 
f 54/115/18 53/139/18 55/59/18 41/45/18 
f 50/140/16 49/77/16 46/50/16 58/62/16 
f 60/99/18 59/116/18 44/48/18 21/22/18 
f 65/75/16 64/72/16 27/29/16 47/51/16 
f 78/141/33 79/142/33 62/66/33 61/65/33 
f 80/143/34 81/144/34 68/108/34 67/107/34 
f 82/145/35 83/146/35 70/110/35 69/109/35 
f 84/147/36 85/148/36 72/128/36 71/127/36 
f 85/148/36 86/149/36 73/129/36 72/128/36 
f 81/144/36 84/147/36 71/127/36 68/108/36 
f 87/150/35 82/145/35 69/109/35 77/138/35 
f 83/146/35 78/141/35 61/65/35 70/110/35 
s 1
f 88/151/37 89/152/37 90/153/37 91/154/37 
s off
f 76/137/38 62/155/38 92/156/38 93/157/38 
f 92/156/39 62/155/39 79/158/39 94/159/39 
s 1
f 95/160/16 96/161/37 97/162/16 98/163/16 
f 99/164/37 82/165/37 87/166/37 100/167/37 
f 101/168/16 78/169/16 83/170/16 102/171/16 
s off
f 101/172/40 91/173/40 90/174/40 78/175/40 
f 79/158/41 89/176/41 88/177/41 94/159/41 
f 99/178/40 95/179/40 98/180/40 82/181/40 
f 83/182/42 97/183/42 96/184/42 102/185/42 
s 1
f 103/186/18 104/187/18 105/188/18 106/189/18 
s off
f 74/132/18 107/190/18 108/191/18 109/192/18 
f 108/191/43 110/193/43 80/194/43 109/192/43 
s 1
f 111/195/18 112/196/44 113/197/18 114/198/18 
f 115/199/44 116/200/44 86/201/44 85/202/18 
f 117/203/44 118/204/44 84/205/44 81/206/44 
s off
f 117/207/45 81/208/45 105/209/45 104/210/45 
f 80/194/46 110/193/46 103/211/46 106/212/46 
f 115/213/45 85/214/45 112/215/45 111/216/45 
f 84/217/47 118/218/47 114/219/47 113/220/47 
s 2
f 89/221/35 79/142/35 78/141/48 90/222/48 
f 97/223/35 83/146/35 82/145/48 98/224/48 
f 112/225/36 85/148/36 84/147/49 113/226/49 
f 105/227/36 81/144/36 80/143/49 106/228/49 
s off
f 56/229/50 55/230/50 119/231/50 120/232/50 
f 120/232/51 119/231/51 58/233/51 57/234/51 
f 119/235/52 55/236/52 53/237/52 121/238/52 
f 58/239/53 119/235/53 121/238/53 50/240/53 
f 51/241/29 50/242/29 122/243/29 123/244/29 
f 53/245/42 52/246/42 124/247/42 125/248/42 
f 52/246/29 51/241/29 123/244/29 124/247/29 
f 121/238/52 53/237/52 125/249/52 126/250/52 
f 50/240/53 121/238/53 126/250/53 122/251/53 
f 123/252/11 122/253/11 126/254/11 
f 125/255/11 124/256/11 123/252/11 126/254/11 
f 127/257/54 128/258/54 129/259/54 130/260/54 
f 131/261/1 132/262/1 133/263/1 134/264/1 
f 132/265/55 135/266/55 136/267/55 133/268/55 
f 130/269/17 129/270/17 137/271/17 135/272/17 
f 134/273/54 127/257/54 130/260/54 131/274/54 
f 131/275/40 130/269/40 135/272/40 132/276/40 
f 138/277/56 139/278/56 140/279/56 141/280/56 
f 142/281/1 143/282/1 144/283/1 145/284/1 
f 145/285/57 144/286/57 146/287/57 147/288/57 
f 139/289/17 147/290/17 148/291/17 140/292/17 
f 143/293/56 142/294/56 139/278/56 138/277/56 
f 142/295/45 145/296/45 147/290/45 139/289/45 
# 116 polygons - 1 triangles

