# 3ds Max Wavefront OBJ Exporter v0.97b - (c)2007 guruware
# File Created: 20.11.2013 16:24:41

#
# object e_porch02_asset_002
#

v  205.8951 10.5851 713.8892
v  205.8951 47.8522 713.8892
v  167.9785 47.8522 713.8892
v  167.9785 10.5851 713.8892
v  167.9785 7.1983 717.2664
v  205.7134 7.1983 717.2664
v  205.8042 10.7704 717.2665
v  168.0693 10.7704 717.2664
v  164.8655 10.7773 713.8892
v  164.8655 48.0443 713.8892
v  147.6039 48.0443 713.8892
v  147.6039 10.7773 713.8892
v  147.6866 7.1983 717.2664
v  164.7828 7.1983 717.2664
v  164.8242 10.8665 717.2664
v  147.6452 10.8665 717.2664
v  168.0693 10.7705 716.1407
v  167.9785 47.8522 716.1407
v  164.8655 48.0443 716.1407
v  164.8242 10.8665 716.1407
v  147.6039 48.0443 717.2665
v  143.2482 48.0447 717.2674
v  143.1950 10.8710 717.2606
v  143.1417 7.2065 717.2673
v  210.2045 10.8712 717.2604
v  210.1490 48.0447 717.2675
v  205.8951 47.8522 717.2665
v  210.2600 7.2068 717.2675
v  205.8951 86.8242 713.8892
v  167.9785 86.8242 713.8892
v  167.9785 51.2622 713.8892
v  205.8951 51.2622 713.8892
v  164.8655 86.6348 713.8892
v  147.6039 86.6348 713.8892
v  147.6039 51.0727 713.8892
v  164.8655 51.0727 713.8892
v  167.9785 86.8242 716.1407
v  164.8655 86.6348 716.1407
v  164.8655 51.0727 716.1407
v  167.9785 51.2622 716.1407
v  147.6039 86.6348 717.2665
v  143.2482 86.6348 717.2674
v  143.2482 51.0727 717.2674
v  147.6039 51.0727 717.2665
v  210.1490 86.6348 717.2675
v  205.8951 86.8242 717.2665
v  205.8951 51.2622 717.2665
v  210.1490 51.0727 717.2675
v  205.8951 86.8242 716.1407
v  205.8951 89.7351 716.1407
v  167.9785 89.7351 716.1407
v  164.8655 89.7351 716.1407
v  147.6039 89.7351 716.1407
v  147.6039 86.6348 716.1407
v  147.6039 89.7351 717.2665
v  143.2482 89.7351 717.2674
v  210.1490 89.7351 717.2675
v  205.8951 89.7351 717.2665
v  147.6039 51.0727 716.1407
v  147.6039 48.0443 716.1407
v  143.2901 48.0447 712.5686
v  143.2214 10.8893 712.5063
v  205.8042 10.7705 716.1407
v  205.8951 47.8522 716.1407
v  205.8951 51.2622 716.1407
v  147.6452 10.8665 716.1407
v  210.1329 10.8353 712.5544
v  210.1054 48.0447 712.5686
v  143.2901 86.6348 712.5686
v  143.2901 51.0727 712.5686
v  210.1054 51.0727 712.5686
v  210.1054 86.6348 712.5686
v  210.1054 89.7351 712.5686
v  210.2162 7.2113 712.5131
v  143.2638 10.8467 712.5547
v  143.1815 7.2108 712.5130
v  143.2901 89.7351 712.5686
v  144.4158 48.0443 712.5686
v  144.4025 10.7996 712.5686
v  208.9935 10.7996 712.5686
v  208.9796 48.0444 712.5686
v  144.4158 86.6348 712.5686
v  144.4158 51.0727 712.5686
v  208.9796 51.0727 712.5686
v  208.9796 86.6348 712.5686
v  208.9796 89.7351 712.5686
v  144.4158 89.7351 712.5686
v  146.6674 10.7773 667.8975
v  146.6674 10.7773 712.5686
v  146.6674 48.0444 712.5686
v  146.6674 48.0444 667.8975
v  143.1793 10.9559 668.0086
v  143.1793 7.1984 667.8975
v  144.4159 10.7773 667.8975
v  146.6674 86.6348 667.8975
v  146.6674 51.0728 667.8975
v  146.6674 51.0728 712.5686
v  146.6674 86.6348 712.5686
v  144.4159 86.6348 667.8975
v  144.4159 89.7351 667.8975
v  144.4159 48.0444 667.8975
v  144.4159 51.0728 667.8975
v  206.7281 10.7773 667.8975
v  206.7281 48.0444 667.8975
v  206.7281 48.0444 712.5687
v  206.7281 10.7773 712.5687
v  210.2162 7.1984 667.8975
v  210.2162 10.9559 668.0087
v  210.2162 10.9559 712.4575
v  208.9796 10.7773 667.8975
v  206.7281 86.6348 667.8975
v  206.7281 86.6348 712.5687
v  206.7281 51.0728 712.5687
v  206.7281 51.0728 667.8975
v  208.9796 86.6348 667.8975
v  208.9796 89.7351 667.8975
v  208.9796 48.0444 667.8975
v  208.9796 51.0728 667.8975
v  176.7008 118.5991 717.2665
v  176.7008 123.1487 717.2674
v  176.7008 118.5991 716.1406
v  205.8951 89.7351 713.8890
v  167.9785 89.7351 713.8891
v  164.8655 89.7351 713.8891
v  147.6039 89.7351 713.8890
v  176.7008 118.5991 713.8890
v  176.7009 127.3012 707.7825
v  176.7009 127.3013 660.8340
v  137.3462 88.6244 660.8340
v  137.3462 88.6243 707.7825
v  137.3462 88.6243 721.0560
v  141.8702 88.6243 721.0560
v  176.7009 123.1487 721.0560
v  176.7008 127.3013 721.0560
v  141.8702 88.6243 707.7825
v  176.7009 123.1486 707.7825
v  141.8703 88.6243 660.8340
v  216.0556 88.6243 707.7825
v  216.0556 88.6244 660.8340
v  216.0556 88.6243 721.0560
v  176.7009 127.3013 721.0560
v  211.5316 88.6243 721.0560
v  211.5316 88.6243 707.7825
v  211.5315 88.6243 660.8340
# 144 vertices

vn -0.0000 -0.0000 1.0000
vn -0.0012 -0.0002 1.0000
vn 0.0002 -0.0000 1.0000
vn -0.0013 -0.0002 1.0000
vn -0.0005 0.0009 1.0000
vn 0.0013 -0.0000 1.0000
vn -0.0002 -0.0001 1.0000
vn 0.0014 -0.0000 1.0000
vn 0.0005 0.0010 1.0000
vn -0.0000 0.0000 1.0000
vn -0.0002 -0.0000 1.0000
vn 0.0000 0.0000 1.0000
vn -1.0000 0.0016 -0.0072
vn 0.0000 0.9966 -0.0820
vn -0.9998 0.0012 -0.0202
vn -1.0000 0.0000 -0.0000
vn 0.0000 -1.0000 -0.0000
vn 1.0000 0.0000 0.0000
vn 0.9998 0.0012 -0.0202
vn -1.0000 0.0006 -0.0092
vn 1.0000 0.0006 -0.0092
vn 0.0000 0.9992 -0.0396
vn 0.9999 0.0011 -0.0122
vn -1.0000 0.0000 -0.0089
vn 0.0000 1.0000 -0.0000
vn 1.0000 0.0000 -0.0093
vn 0.9997 0.0191 -0.0123
vn -0.9998 0.0186 -0.0115
vn -0.0000 1.0000 0.0000
vn 0.0296 0.9996 0.0000
vn 1.0000 0.0011 0.0000
vn -1.0000 0.0024 -0.0000
vn 0.0270 0.0008 -0.9996
vn -0.0063 0.0002 -1.0000
vn 0.0000 0.0000 -1.0000
vn -0.0000 0.0000 -1.0000
vn -1.0000 -0.0000 -0.0000
vn -1.0000 0.0054 0.0005
vn 0.1103 0.9939 0.0005
vn 0.0049 1.0000 -0.0002
vn -0.1349 0.9909 -0.0002
vn 1.0000 -0.0000 0.0000
vn -0.0000 -1.0000 -0.0000
vn -0.0049 1.0000 -0.0002
vn 0.0000 1.0000 0.0000
vn 0.0000 -0.0000 -1.0000
vn -0.0000 -0.0000 -1.0000
vn 0.0002 -0.0002 1.0000
vn -0.0002 -0.0002 1.0000
vn 0.7043 -0.7099 0.0000
vn -0.7031 -0.7111 -0.0000
vn -0.7009 0.7132 0.0000
vn 0.7040 -0.7102 0.0000
vn -0.7009 0.7132 -0.0000
vn 0.7009 0.7132 0.0000
vn -0.7040 -0.7102 0.0000
vn 0.7009 0.7132 -0.0000
# 57 vertex normals

vt 0.5400 0.6348 0.0000
vt 0.5400 0.8064 0.0000
vt 0.3316 0.8064 0.0000
vt 0.3316 0.6348 0.0000
vt 0.4531 0.6047 0.7518
vt 0.6728 0.6047 0.7518
vt 0.6734 0.5896 0.7875
vt 0.4536 0.5896 0.7875
vt 0.3216 0.6348 0.0000
vt 0.3216 0.8065 0.0000
vt 0.2267 0.8065 0.0000
vt 0.2267 0.6348 0.0000
vt 0.3349 0.6047 0.7518
vt 0.4345 0.6047 0.7518
vt 0.4347 0.5894 0.8094
vt 0.3346 0.5894 0.8094
vt 0.6180 0.0340 0.0000
vt 0.6176 0.2271 0.0000
vt 0.6024 0.2281 0.0000
vt 0.6022 0.0345 0.0000
vt 0.9648 0.5910 0.7306
vt 0.9647 0.7719 0.7238
vt 0.9419 0.7719 0.7220
vt 0.9417 0.5910 0.7297
vt 0.3084 0.6047 0.7503
vt 0.3087 0.5893 0.8091
vt 0.8476 0.5963 0.7353
vt 0.8474 0.7755 0.7283
vt 0.8267 0.7746 0.6949
vt 0.8263 0.5958 0.7077
vt 0.6993 0.6047 0.7502
vt 0.6990 0.5893 0.8091
vt 0.5400 0.9859 0.0000
vt 0.3316 0.9859 0.0000
vt 0.3316 0.8221 0.0000
vt 0.5400 0.8221 0.0000
vt 0.3222 0.9866 0.0000
vt 0.2273 0.9866 0.0000
vt 0.2273 0.8228 0.0000
vt 0.3222 0.8228 0.0000
vt 0.6176 0.4301 0.0000
vt 0.6024 0.4292 0.0000
vt 0.6024 0.2439 0.0000
vt 0.6176 0.2449 0.0000
vt 0.9647 0.9597 0.7238
vt 0.9419 0.9597 0.7220
vt 0.9419 0.7866 0.7220
vt 0.9647 0.7866 0.7238
vt 0.8474 0.9615 0.7283
vt 0.8267 0.9624 0.6949
vt 0.8267 0.7910 0.6949
vt 0.8474 0.7901 0.7283
vt 0.8019 0.4301 0.0000
vt 0.8019 0.4453 0.0000
vt 0.6176 0.4453 0.0000
vt 0.6024 0.4453 0.0000
vt 0.5185 0.4453 0.0000
vt 0.5185 0.4292 0.0000
vt 0.9647 0.9747 0.7238
vt 0.9419 0.9747 0.7220
vt 0.8474 0.9765 0.7283
vt 0.8267 0.9765 0.6949
vt 0.5185 0.2439 0.0000
vt 0.5185 0.2281 0.0000
vt 0.9185 0.7719 0.7056
vt 0.9186 0.5911 0.7264
vt 0.4536 0.5855 0.5767
vt 0.6734 0.5855 0.5767
vt 0.6739 0.5740 0.6933
vt 0.4531 0.5740 0.6933
vt 0.8216 0.5958 0.5531
vt 0.8219 0.7746 0.5361
vt 0.8074 0.7746 0.5347
vt 0.8074 0.5949 0.5347
vt 0.8219 0.7910 0.5361
vt 0.8074 0.7910 0.5347
vt 0.8219 0.9624 0.5361
vt 0.8074 0.9624 0.5347
vt 0.6398 0.3303 0.0000
vt 0.8306 0.3303 0.0000
vt 0.8306 0.3416 0.0000
vt 0.6398 0.3416 0.0000
vt 0.9569 0.1000 0.0000
vt 0.9569 0.2790 0.0000
vt 0.9455 0.2790 0.0000
vt 0.9455 0.1000 0.0000
vt 0.9569 0.2962 0.0000
vt 0.9455 0.2962 0.0000
vt 0.9569 0.4828 0.0000
vt 0.9455 0.4837 0.0000
vt 0.6395 0.3538 0.0000
vt 0.8266 0.3538 0.0000
vt 0.8266 0.3651 0.0000
vt 0.6390 0.3651 0.0000
vt 0.7556 0.4833 0.0000
vt 0.8425 0.4833 0.0000
vt 0.8425 0.4946 0.0000
vt 0.7556 0.4946 0.0000
vt 0.9691 0.7719 0.5755
vt 0.9692 0.5910 0.5840
vt 0.9823 0.5905 0.5514
vt 0.9823 0.7719 0.5514
vt 0.3346 0.5853 0.6049
vt 0.4347 0.5853 0.6049
vt 0.4349 0.5746 0.7321
vt 0.3344 0.5746 0.7321
vt 0.8725 0.5961 0.6771
vt 0.8725 0.7755 0.6710
vt 0.9185 0.9597 0.7056
vt 0.9185 0.7866 0.7056
vt 0.7556 0.5351 0.0000
vt 0.8425 0.5351 0.0000
vt 0.8425 0.5465 0.0000
vt 0.7556 0.5465 0.0000
vt 0.9691 0.9597 0.5755
vt 0.9691 0.7866 0.5755
vt 0.9823 0.7866 0.5514
vt 0.9823 0.9597 0.5514
vt 0.7556 0.5092 0.0000
vt 0.8425 0.5092 0.0000
vt 0.8425 0.5205 0.0000
vt 0.7556 0.5205 0.0000
vt 0.6372 0.3773 0.0000
vt 0.8162 0.3773 0.0000
vt 0.8162 0.3886 0.0000
vt 0.6372 0.3886 0.0000
vt 0.8725 0.7901 0.6710
vt 0.8725 0.9615 0.6710
vt 0.8725 0.9765 0.6710
vt 0.3738 0.5374 1.9525
vt 0.3738 0.5543 1.9063
vt 0.3997 0.5545 1.8816
vt 0.3995 0.5373 1.8929
vt 0.3735 0.4683 1.2693
vt 0.3735 0.4841 1.2241
vt 0.3999 0.4843 1.1911
vt 0.4002 0.4682 1.2535
vt 0.9185 0.9747 0.7056
vt 0.9691 0.9747 0.5755
vt 0.8219 0.9765 0.5361
vt 0.9135 0.7719 0.5546
vt 0.9136 0.5906 0.5559
vt 0.8776 0.5959 0.5526
vt 0.8777 0.7755 0.5517
vt 0.9135 0.9597 0.5546
vt 0.9135 0.7866 0.5546
vt 0.8777 0.7901 0.5517
vt 0.8777 0.9615 0.5517
vt 0.8777 0.9765 0.5517
vt 0.9135 0.9747 0.5546
vt 0.2169 0.6349 0.0000
vt 0.0139 0.6349 0.0000
vt 0.0139 0.8064 0.0000
vt 0.2169 0.8064 0.0000
vt 0.4002 0.4843 1.2207
vt 0.6501 0.4843 1.2585
vt 0.6507 0.4682 1.2585
vt 0.3998 0.4891 0.8635
vt 0.6507 0.4892 0.8513
vt 0.2183 0.9855 0.0000
vt 0.2183 0.8219 0.0000
vt 0.0152 0.8219 0.0000
vt 0.0152 0.9855 0.0000
vt 0.0252 0.5307 0.0000
vt 0.2424 0.5307 0.0000
vt 0.2424 0.5468 0.0000
vt 0.0252 0.5468 0.0000
vt 0.0250 0.5014 0.0000
vt 0.2422 0.5014 0.0000
vt 0.2422 0.5172 0.0000
vt 0.0250 0.5172 0.0000
vt 0.6471 0.1860 0.0000
vt 0.6471 0.1747 0.0000
vt 0.8719 0.1747 0.0000
vt 0.8719 0.1860 0.0000
vt 0.3998 0.5007 1.2132
vt 0.6507 0.5007 1.2132
vt 0.6471 0.2119 0.0000
vt 0.6471 0.2006 0.0000
vt 0.8719 0.2006 0.0000
vt 0.8719 0.2119 0.0000
vt 0.8719 0.2265 0.0000
vt 0.8719 0.2379 0.0000
vt 0.6471 0.2379 0.0000
vt 0.6471 0.2265 0.0000
vt 0.7596 0.6338 0.0000
vt 0.7596 0.8053 0.0000
vt 0.5566 0.8053 0.0000
vt 0.5566 0.6338 0.0000
vt 0.6430 0.5545 1.8886
vt 0.6424 0.5372 2.0069
vt 0.4000 0.5372 2.0069
vt 0.6430 0.5326 1.3681
vt 0.3994 0.5326 1.3880
vt 0.7590 0.9857 0.0000
vt 0.5559 0.9857 0.0000
vt 0.5559 0.8221 0.0000
vt 0.7590 0.8221 0.0000
vt 0.0270 0.5895 0.0000
vt 0.0270 0.6056 0.0000
vt 0.2442 0.6056 0.0000
vt 0.2442 0.5895 0.0000
vt 0.0270 0.5635 0.0000
vt 0.0270 0.5793 0.0000
vt 0.2442 0.5793 0.0000
vt 0.2442 0.5635 0.0000
vt 0.6471 0.2784 0.0000
vt 0.8719 0.2784 0.0000
vt 0.8719 0.2897 0.0000
vt 0.6471 0.2897 0.0000
vt 0.6430 0.5208 1.8178
vt 0.3994 0.5208 1.8178
vt 0.6471 0.2525 0.0000
vt 0.8719 0.2525 0.0000
vt 0.8719 0.2638 0.0000
vt 0.6471 0.2638 0.0000
vt 0.8719 0.3157 0.0000
vt 0.6471 0.3157 0.0000
vt 0.6471 0.3043 0.0000
vt 0.8719 0.3043 0.0000
vt 0.8995 0.5905 0.5806
vt 0.8995 0.7719 0.5806
vt 0.8995 0.7866 0.5806
vt 0.8995 0.9597 0.5806
vt 0.8903 0.9615 0.6139
vt 0.8903 0.7901 0.6139
vt 0.8903 0.7755 0.6139
vt 0.8903 0.5958 0.6139
vt 0.5877 0.1667 0.0000
vt 0.5670 0.1667 0.0000
vt 0.4287 0.0295 0.0000
vt 0.4287 0.0079 0.0000
vt 0.2899 0.1667 0.0000
vt 0.2697 0.1667 0.0000
vt 0.7885 0.1168 0.0000
vt 0.9292 0.1168 0.0000
vt 0.9292 0.1223 0.0000
vt 0.7885 0.1223 0.0000
vt 0.6474 0.1168 0.0000
vt 0.6474 0.1223 0.0000
vt 0.7454 0.1469 0.0000
vt 0.9287 0.1469 0.0000
vt 0.9287 0.1578 0.0000
vt 0.7454 0.1578 0.0000
vt 0.6469 0.1469 0.0000
vt 0.7304 0.1469 0.0000
vt 0.7304 0.1578 0.0000
vt 0.6469 0.1578 0.0000
vt 0.9292 0.1332 0.0000
vt 0.7885 0.1332 0.0000
vt 0.6474 0.1332 0.0000
vt 0.1267 0.0136 0.0000
vt 0.3301 0.0136 0.0000
vt 0.1735 0.1586 0.0000
vt 0.0175 0.0136 0.0000
vt 0.1101 0.0136 0.0000
vt 0.2163 0.4882 0.0000
vt 0.0106 0.4882 0.0000
vt 0.0106 0.1759 0.0000
vt 0.2163 0.1759 0.0000
vt 0.3889 0.1581 0.0000
vt 0.3780 0.1690 0.0000
vt 0.3774 0.4404 0.0000
vt 0.3871 0.4500 0.0000
vt 0.2886 0.2112 0.0000
vt 0.3501 0.2112 0.0000
vt 0.3501 0.4854 0.0000
vt 0.2886 0.4854 0.0000
vt 0.4210 0.2154 0.0000
vt 0.4210 0.4577 0.0000
vt 0.4369 0.4577 0.0000
vt 0.4369 0.2154 0.0000
vt 0.2744 0.4882 0.0000
vt 0.2744 0.1759 0.0000
vt 0.4210 0.1470 0.0000
vt 0.4369 0.1470 0.0000
vt 1.2163 0.4882 0.0000
vt 1.2163 0.1759 0.0000
vt 1.0106 0.1759 0.0000
vt 1.0106 0.4882 0.0000
vt 1.3889 0.1581 0.0000
vt 1.3871 0.4500 0.0000
vt 1.3774 0.4404 0.0000
vt 1.3780 0.1690 0.0000
vt 1.2886 0.2112 0.0000
vt 1.2886 0.4854 0.0000
vt 1.3501 0.4854 0.0000
vt 1.3501 0.2112 0.0000
vt 1.4210 0.2154 0.0000
vt 1.4369 0.2154 0.0000
vt 1.4369 0.4577 0.0000
vt 1.4210 0.4577 0.0000
vt 1.2744 0.4882 0.0000
vt 1.2744 0.1759 0.0000
vt 1.4210 0.1470 0.0000
vt 1.4369 0.1470 0.0000
# 296 texture coords

g e_porch02_asset_002
s 1
f 1/1/1 2/2/1 3/3/1 4/4/1 
s off
f 5/5/1 6/6/1 7/7/1 8/8/1 
s 1
f 9/9/1 10/10/1 11/11/1 12/12/1 
s off
f 13/13/1 14/14/1 15/15/1 16/16/1 
s 1
f 17/17/1 18/18/1 19/19/1 20/20/1 
s off
f 14/14/1 5/5/1 8/8/1 15/15/1 
s 1
f 16/21/2 21/22/3 22/23/3 23/24/4 
s off
f 24/25/5 13/13/5 16/16/5 23/26/5 
s 1
f 25/27/6 26/28/7 27/29/7 7/30/8 
s off
f 6/6/9 28/31/9 25/32/9 7/7/9 
s 1
f 29/33/1 30/34/1 31/35/1 32/36/1 
f 33/37/1 34/38/1 35/39/1 36/40/1 
f 37/41/1 38/42/10 39/43/1 40/44/1 
f 41/45/3 42/46/3 43/47/3 44/48/3 
f 45/49/11 46/50/11 47/51/11 48/52/11 
f 49/53/12 50/54/12 51/55/1 37/41/1 
f 38/42/10 52/56/1 53/57/10 54/58/10 
f 37/41/1 51/55/1 52/56/1 38/42/10 
f 41/45/3 55/59/3 56/60/3 42/46/3 
f 45/49/11 57/61/11 58/62/11 46/50/11 
f 2/2/1 32/36/1 31/35/1 3/3/1 
f 19/19/1 39/43/1 59/63/1 60/64/1 
f 18/18/1 40/44/1 39/43/1 19/19/1 
f 21/22/3 44/48/3 43/47/3 22/23/3 
f 26/28/7 48/52/11 47/51/11 27/29/7 
s off
f 23/24/13 22/23/13 61/65/13 62/66/13 
f 17/67/14 63/68/14 1/69/14 4/70/14 
f 63/71/15 64/72/15 2/73/15 1/74/15 
f 64/72/16 65/75/16 32/76/16 2/73/16 
f 65/75/16 49/77/16 29/78/16 32/76/16 
f 49/79/17 37/80/17 30/81/17 29/82/17 
f 37/83/18 40/84/18 31/85/18 30/86/18 
f 40/84/18 18/87/18 3/88/18 31/85/18 
f 18/87/19 17/89/19 4/90/19 3/88/19 
f 20/91/20 19/92/20 10/93/20 9/94/20 
f 19/95/17 60/96/17 11/97/17 10/98/17 
f 60/99/21 66/100/21 12/101/21 11/102/21 
f 66/103/22 20/104/22 9/105/22 12/106/22 
f 26/28/23 25/27/23 67/107/23 68/108/23 
f 43/47/24 42/46/24 69/109/24 70/110/24 
f 38/111/17 54/112/17 34/113/17 33/114/17 
f 54/115/18 59/116/18 35/117/18 34/118/18 
f 59/119/25 39/120/25 36/121/25 35/122/25 
f 39/123/16 38/124/16 33/125/16 36/126/16 
f 45/49/26 48/52/26 71/127/26 72/128/26 
f 73/129/26 57/61/26 45/49/26 72/128/26 
s 2
f 48/52/26 26/28/26 68/108/26 71/127/26 
s off
f 25/130/27 28/131/27 74/132/27 67/133/27 
f 24/134/28 23/135/28 75/136/28 76/137/28 
s 2
f 42/46/24 56/60/24 77/138/24 69/109/24 
f 70/110/24 61/65/24 22/23/24 43/47/24 
s off
f 63/68/29 17/67/29 8/8/29 7/7/29 
f 20/104/29 66/103/29 16/16/29 15/15/29 
f 17/67/30 20/104/30 15/15/30 8/8/30 
f 66/100/31 60/99/31 21/22/31 16/21/31 
f 64/72/32 63/71/32 7/30/32 27/29/32 
f 59/116/18 54/115/18 41/45/18 44/48/18 
f 49/77/16 65/75/16 47/51/16 46/50/16 
f 54/115/18 53/139/18 55/59/18 41/45/18 
f 50/140/16 49/77/16 46/50/16 58/62/16 
f 60/99/18 59/116/18 44/48/18 21/22/18 
f 65/75/16 64/72/16 27/29/16 47/51/16 
f 78/141/33 79/142/33 62/66/33 61/65/33 
f 80/143/34 81/144/34 68/108/34 67/107/34 
f 82/145/35 83/146/35 70/110/35 69/109/35 
f 84/147/36 85/148/36 72/128/36 71/127/36 
f 85/148/36 86/149/36 73/129/36 72/128/36 
f 81/144/36 84/147/36 71/127/36 68/108/36 
f 87/150/35 82/145/35 69/109/35 77/138/35 
f 83/146/35 78/141/35 61/65/35 70/110/35 
s 1
f 88/151/37 89/152/37 90/153/37 91/154/37 
s off
f 76/137/38 62/155/38 92/156/38 93/157/38 
f 92/156/39 62/155/39 79/158/39 94/159/39 
s 1
f 95/160/16 96/161/37 97/162/16 98/163/16 
f 99/164/37 82/165/37 87/166/37 100/167/37 
f 101/168/16 78/169/16 83/170/16 102/171/16 
s off
f 101/172/17 91/173/17 90/174/17 78/175/17 
f 79/158/40 89/176/40 88/177/40 94/159/40 
f 99/178/17 95/179/17 98/180/17 82/181/17 
f 83/182/29 97/183/29 96/184/29 102/185/29 
s 1
f 103/186/18 104/187/18 105/188/18 106/189/18 
s off
f 74/132/18 107/190/18 108/191/18 109/192/18 
f 108/191/41 110/193/41 80/194/41 109/192/41 
s 1
f 111/195/18 112/196/42 113/197/18 114/198/18 
f 115/199/42 116/200/42 86/201/42 85/202/18 
f 117/203/42 118/204/42 84/205/42 81/206/42 
s off
f 117/207/43 81/208/43 105/209/43 104/210/43 
f 80/194/44 110/193/44 103/211/44 106/212/44 
f 115/213/43 85/214/43 112/215/43 111/216/43 
f 84/217/45 118/218/45 114/219/45 113/220/45 
s 2
f 89/221/35 79/142/35 78/141/46 90/222/46 
f 97/223/35 83/146/35 82/145/46 98/224/46 
f 112/225/36 85/148/36 84/147/47 113/226/47 
f 105/227/36 81/144/36 80/143/47 106/228/47 
s off
f 56/229/48 55/230/48 119/231/48 120/232/48 
f 120/232/49 119/231/49 58/233/49 57/234/49 
f 119/235/50 55/236/50 53/237/50 121/238/50 
f 58/239/51 119/235/51 121/238/51 50/240/51 
f 51/241/45 50/242/45 122/243/45 123/244/45 
f 53/245/29 52/246/29 124/247/29 125/248/29 
f 52/246/29 51/241/29 123/244/29 124/247/29 
f 121/238/50 53/237/50 125/249/50 126/250/50 
f 50/240/51 121/238/51 126/250/51 122/251/51 
f 123/252/12 122/253/12 126/254/12 
f 125/255/10 124/256/10 123/252/10 126/254/10 
f 127/257/52 128/258/52 129/259/52 130/260/52 
f 131/261/1 132/262/1 133/263/1 134/264/1 
f 132/265/53 135/266/53 136/267/53 133/268/53 
f 130/269/17 129/270/17 137/271/17 135/272/17 
f 134/273/54 127/257/54 130/260/54 131/274/54 
f 131/275/17 130/269/17 135/272/17 132/276/17 
f 127/277/55 138/278/55 139/279/55 128/280/55 
f 140/281/1 141/282/1 133/283/1 142/284/1 
f 142/285/56 133/286/56 136/287/56 143/288/56 
f 138/289/43 143/290/43 144/291/43 139/292/43 
f 141/293/57 140/294/57 138/278/57 127/277/57 
f 140/295/43 142/296/43 143/290/43 138/289/43 
# 116 polygons - 1 triangles

