# 3ds Max Wavefront OBJ Exporter v0.97b - (c)2007 guruware
# File Created: 20.11.2013 16:21:57

#
# object e_porch02_asset_003
#

v  446.0023 10.5851 766.7687
v  446.0023 47.8522 766.7687
v  409.3777 47.8522 756.9552
v  409.3777 10.5851 756.9551
v  408.5036 7.1983 760.2173
v  444.9528 7.1983 769.9839
v  445.0405 10.7704 770.0074
v  408.5913 10.7704 760.2409
v  406.3708 10.7773 756.1495
v  406.3708 48.0443 756.1495
v  389.6973 48.0443 751.6818
v  389.6973 10.7773 751.6818
v  388.9031 7.1983 754.9654
v  405.4168 7.1983 759.3903
v  405.4568 10.8665 759.4010
v  388.8632 10.8665 754.9548
v  408.8827 10.7705 759.1535
v  408.7950 47.8522 759.1300
v  405.7881 48.0443 758.3243
v  405.7481 10.8665 758.3136
v  388.8232 48.0443 754.9441
v  384.6158 48.0447 753.8177
v  384.5661 10.8710 753.7974
v  384.5129 7.2065 753.7900
v  449.2923 10.8712 771.1404
v  449.2369 48.0447 771.1329
v  445.1282 47.8522 770.0309
v  449.3442 7.2068 771.1616
v  446.0023 86.8242 766.7687
v  409.3777 86.8242 756.9552
v  409.3777 51.2622 756.9552
v  446.0023 51.2622 766.7687
v  406.3708 86.6348 756.1495
v  389.6973 86.6348 751.6818
v  389.6973 51.0727 751.6818
v  406.3708 51.0727 756.1495
v  408.7950 86.8242 759.1300
v  405.7881 86.6348 758.3243
v  405.7881 51.0727 758.3243
v  408.7950 51.2622 759.1300
v  388.8232 86.6348 754.9441
v  384.6158 86.6348 753.8177
v  384.6158 51.0727 753.8177
v  388.8232 51.0727 754.9441
v  449.2369 86.6348 771.1329
v  445.1282 86.8242 770.0309
v  445.1282 51.2622 770.0309
v  449.2369 51.0727 771.1329
v  445.4196 86.8242 768.9435
v  445.4196 89.7351 768.9435
v  408.7950 89.7351 759.1300
v  405.7881 89.7351 758.3243
v  389.1146 89.7351 753.8566
v  389.1146 86.6348 753.8567
v  388.8232 89.7351 754.9441
v  384.6158 89.7351 753.8177
v  449.2369 89.7351 771.1329
v  445.1282 89.7351 770.0309
v  389.1146 51.0727 753.8567
v  389.1146 48.0443 753.8567
v  385.8723 48.0447 749.2898
v  385.8221 10.8893 749.2119
v  445.3318 10.7705 768.9200
v  445.4196 47.8522 768.9435
v  445.4196 51.2622 768.9435
v  389.1545 10.8665 753.8673
v  450.4412 10.8353 766.5763
v  450.4109 48.0447 766.5828
v  385.8723 86.6348 749.2898
v  385.8723 51.0727 749.2898
v  450.4109 51.0727 766.5828
v  450.4109 86.6348 766.5828
v  450.4109 89.7351 766.5829
v  450.5323 7.2113 766.5579
v  385.8505 10.8467 749.2696
v  385.7819 7.2108 749.2080
v  385.8723 89.7351 749.2898
v  386.9597 48.0443 749.5812
v  386.9468 10.7996 749.5777
v  449.3369 10.7996 766.2951
v  449.3235 48.0444 766.2915
v  386.9597 86.6348 749.5812
v  386.9597 51.0727 749.5812
v  449.3235 51.0727 766.2915
v  449.3235 86.6348 766.2915
v  449.3235 89.7351 766.2915
v  386.9597 89.7351 749.5812
v  400.6963 10.7773 707.0150
v  389.1346 10.7773 750.1639
v  389.1346 48.0444 750.1639
v  400.6963 48.0444 707.0150
v  397.2983 10.9559 706.2195
v  397.3271 7.1984 706.1122
v  398.5215 10.7773 706.4322
v  400.6963 86.6348 707.0150
v  400.6963 51.0728 707.0150
v  389.1346 51.0728 750.1639
v  389.1346 86.6348 750.1639
v  398.5215 86.6348 706.4322
v  398.5215 89.7351 706.4322
v  398.5215 48.0444 706.4322
v  398.5215 51.0728 706.4322
v  458.7104 10.7773 722.5598
v  458.7104 48.0444 722.5598
v  447.1487 48.0444 765.7088
v  447.1487 10.7773 765.7088
v  462.0797 7.1984 723.4626
v  462.0509 10.9559 723.5699
v  450.5467 10.9559 766.5042
v  460.8853 10.7773 723.1425
v  458.7104 86.6348 722.5598
v  447.1487 86.6348 765.7087
v  447.1487 51.0728 765.7088
v  458.7104 51.0728 722.5598
v  460.8853 86.6348 723.1425
v  460.8853 89.7351 723.1425
v  460.8853 48.0444 723.1425
v  460.8853 51.0728 723.1425
v  416.9286 118.5991 762.4749
v  416.9285 123.1487 762.4758
v  417.2201 118.5991 761.3875
v  446.0023 89.7351 766.7686
v  409.3777 89.7351 756.9551
v  406.3708 89.7351 756.1494
v  389.6974 89.7351 751.6818
v  417.8028 118.5991 759.2125
v  419.3834 127.3012 753.3141
v  431.5345 127.3013 707.9654
v  393.5209 88.6244 697.7796
v  381.3697 88.6243 743.1284
v  377.9343 88.6243 755.9496
v  382.3041 88.6243 757.1205
v  415.9479 123.1487 766.1353
v  415.9479 127.3013 766.1353
v  385.7396 88.6243 744.2993
v  419.3834 123.1486 753.3141
v  397.8908 88.6243 698.9505
v  419.3835 127.3012 753.3142
v  457.3972 88.6243 763.4999
v  469.5483 88.6244 718.1511
v  431.5346 127.3013 707.9654
v  453.9617 88.6243 776.3210
v  415.9480 127.3013 766.1353
v  415.9480 123.1487 766.1353
v  449.5919 88.6243 775.1501
v  419.3835 123.1486 753.3142
v  453.0272 88.6243 762.3290
v  465.1784 88.6243 716.9802
# 148 vertices

vn -0.2588 -0.0000 0.9659
vn -0.2600 -0.0002 0.9656
vn -0.2586 -0.0000 0.9660
vn -0.2587 -0.0000 0.9660
vn -0.2601 -0.0002 0.9656
vn -0.2593 0.0009 0.9658
vn -0.2576 -0.0000 0.9662
vn -0.2590 -0.0001 0.9659
vn -0.2575 -0.0000 0.9663
vn -0.2583 0.0010 0.9661
vn -0.2588 0.0000 0.9659
vn -0.2591 -0.0000 0.9659
vn -0.9640 0.0016 -0.2658
vn 0.0212 0.9966 -0.0793
vn -0.9605 0.0012 -0.2783
vn -0.9659 0.0000 -0.2588
vn 0.0000 -1.0000 -0.0000
vn 0.9659 0.0000 0.2588
vn 0.9710 0.0012 0.2392
vn -0.9635 0.0006 -0.2677
vn 0.9683 0.0006 0.2499
vn 0.0103 0.9992 -0.0383
vn 0.9690 0.0011 0.2470
vn -0.9636 0.0000 -0.2674
vn 0.0000 1.0000 -0.0000
vn 0.9683 0.0000 0.2498
vn 0.9689 0.0191 0.2469
vn -0.9627 0.0186 -0.2699
vn -0.0000 1.0000 0.0000
vn 0.0286 0.9996 0.0077
vn 0.9659 0.0011 0.2588
vn -0.9659 0.0024 -0.2588
vn 0.2848 0.0008 -0.9586
vn 0.2528 0.0002 -0.9675
vn 0.2588 0.0000 -0.9659
vn -0.9659 -0.0000 -0.2588
vn -0.9660 0.0054 -0.2583
vn 0.1064 0.9939 0.0290
vn 0.0000 -1.0000 0.0000
vn 0.0048 1.0000 0.0010
vn -0.0000 1.0000 -0.0000
vn -0.1302 0.9909 -0.0351
vn 0.9659 -0.0000 0.2588
vn -0.0000 -1.0000 -0.0000
vn -0.0047 1.0000 -0.0015
vn 0.0000 1.0000 0.0000
vn 0.2588 -0.0000 -0.9659
vn -0.2586 -0.0002 0.9660
vn -0.2590 -0.0002 0.9659
vn 0.6803 -0.7099 0.1823
vn -0.6791 -0.7111 -0.1820
vn -0.6771 0.7132 -0.1814
vn 0.6800 -0.7102 0.1822
vn 0.6771 0.7132 0.1814
vn -0.6800 -0.7102 -0.1822
# 55 vertex normals

vt 0.5400 0.6348 0.0000
vt 0.5400 0.8064 0.0000
vt 0.3316 0.8064 0.0000
vt 0.3316 0.6348 0.0000
vt 0.4531 0.6047 0.7518
vt 0.6728 0.6047 0.7518
vt 0.6734 0.5896 0.7875
vt 0.4536 0.5896 0.7875
vt 0.3216 0.6348 0.0000
vt 0.3216 0.8065 0.0000
vt 0.2267 0.8065 0.0000
vt 0.2267 0.6348 0.0000
vt 0.3349 0.6047 0.7518
vt 0.4345 0.6047 0.7518
vt 0.4347 0.5894 0.8094
vt 0.3346 0.5894 0.8094
vt 0.6180 0.0340 0.0000
vt 0.6176 0.2271 0.0000
vt 0.6024 0.2281 0.0000
vt 0.6022 0.0345 0.0000
vt 0.9648 0.5910 0.7306
vt 0.9647 0.7719 0.7238
vt 0.9419 0.7719 0.7220
vt 0.9417 0.5910 0.7297
vt 0.3084 0.6047 0.7503
vt 0.3087 0.5893 0.8091
vt 0.8476 0.5963 0.7353
vt 0.8474 0.7755 0.7283
vt 0.8267 0.7746 0.6949
vt 0.8263 0.5958 0.7077
vt 0.6993 0.6047 0.7502
vt 0.6990 0.5893 0.8091
vt 0.5400 0.9859 0.0000
vt 0.3316 0.9859 0.0000
vt 0.3316 0.8221 0.0000
vt 0.5400 0.8221 0.0000
vt 0.3222 0.9866 0.0000
vt 0.2273 0.9866 0.0000
vt 0.2273 0.8228 0.0000
vt 0.3222 0.8228 0.0000
vt 0.6176 0.4301 0.0000
vt 0.6024 0.4292 0.0000
vt 0.6024 0.2439 0.0000
vt 0.6176 0.2449 0.0000
vt 0.9647 0.9597 0.7238
vt 0.9419 0.9597 0.7220
vt 0.9419 0.7866 0.7220
vt 0.9647 0.7866 0.7238
vt 0.8474 0.9615 0.7283
vt 0.8267 0.9624 0.6949
vt 0.8267 0.7910 0.6949
vt 0.8474 0.7901 0.7283
vt 0.8019 0.4301 0.0000
vt 0.8019 0.4453 0.0000
vt 0.6176 0.4453 0.0000
vt 0.6024 0.4453 0.0000
vt 0.5185 0.4453 0.0000
vt 0.5185 0.4292 0.0000
vt 0.9647 0.9747 0.7238
vt 0.9419 0.9747 0.7220
vt 0.8474 0.9765 0.7283
vt 0.8267 0.9765 0.6949
vt 0.5185 0.2439 0.0000
vt 0.5185 0.2281 0.0000
vt 0.9185 0.7719 0.7056
vt 0.9186 0.5911 0.7264
vt 0.4536 0.5855 0.5767
vt 0.6734 0.5855 0.5767
vt 0.6739 0.5740 0.6933
vt 0.4531 0.5740 0.6933
vt 0.8216 0.5958 0.5531
vt 0.8219 0.7746 0.5361
vt 0.8074 0.7746 0.5347
vt 0.8074 0.5949 0.5347
vt 0.8219 0.7910 0.5361
vt 0.8074 0.7910 0.5347
vt 0.8219 0.9624 0.5361
vt 0.8074 0.9624 0.5347
vt 0.6398 0.3303 0.0000
vt 0.8306 0.3303 0.0000
vt 0.8306 0.3416 0.0000
vt 0.6398 0.3416 0.0000
vt 0.9569 0.1000 0.0000
vt 0.9569 0.2790 0.0000
vt 0.9455 0.2790 0.0000
vt 0.9455 0.1000 0.0000
vt 0.9569 0.2962 0.0000
vt 0.9455 0.2962 0.0000
vt 0.9569 0.4828 0.0000
vt 0.9455 0.4837 0.0000
vt 0.6395 0.3538 0.0000
vt 0.8266 0.3538 0.0000
vt 0.8266 0.3651 0.0000
vt 0.6390 0.3651 0.0000
vt 0.7556 0.4833 0.0000
vt 0.8425 0.4833 0.0000
vt 0.8425 0.4946 0.0000
vt 0.7556 0.4946 0.0000
vt 0.9691 0.7719 0.5755
vt 0.9692 0.5910 0.5840
vt 0.9823 0.5905 0.5514
vt 0.9823 0.7719 0.5514
vt 0.3346 0.5853 0.6049
vt 0.4347 0.5853 0.6049
vt 0.4349 0.5746 0.7321
vt 0.3344 0.5746 0.7321
vt 0.8725 0.5961 0.6771
vt 0.8725 0.7755 0.6710
vt 0.9185 0.9597 0.7056
vt 0.9185 0.7866 0.7056
vt 0.7556 0.5351 0.0000
vt 0.8425 0.5351 0.0000
vt 0.8425 0.5465 0.0000
vt 0.7556 0.5465 0.0000
vt 0.9691 0.9597 0.5755
vt 0.9691 0.7866 0.5755
vt 0.9823 0.7866 0.5514
vt 0.9823 0.9597 0.5514
vt 0.7556 0.5092 0.0000
vt 0.8425 0.5092 0.0000
vt 0.8425 0.5205 0.0000
vt 0.7556 0.5205 0.0000
vt 0.6372 0.3773 0.0000
vt 0.8162 0.3773 0.0000
vt 0.8162 0.3886 0.0000
vt 0.6372 0.3886 0.0000
vt 0.8725 0.7901 0.6710
vt 0.8725 0.9615 0.6710
vt 0.8725 0.9765 0.6710
vt 0.3738 0.5374 1.9525
vt 0.3738 0.5543 1.9063
vt 0.3997 0.5545 1.8816
vt 0.3995 0.5373 1.8929
vt 0.3735 0.4683 1.2693
vt 0.3735 0.4841 1.2241
vt 0.3999 0.4843 1.1911
vt 0.4002 0.4682 1.2535
vt 0.9185 0.9747 0.7056
vt 0.9691 0.9747 0.5755
vt 0.8219 0.9765 0.5361
vt 0.9135 0.7719 0.5546
vt 0.9136 0.5906 0.5559
vt 0.8776 0.5959 0.5526
vt 0.8777 0.7755 0.5517
vt 0.9135 0.9597 0.5546
vt 0.9135 0.7866 0.5546
vt 0.8777 0.7901 0.5517
vt 0.8777 0.9615 0.5517
vt 0.8777 0.9765 0.5517
vt 0.9135 0.9747 0.5546
vt 0.2169 0.6349 0.0000
vt 0.0139 0.6349 0.0000
vt 0.0139 0.8064 0.0000
vt 0.2169 0.8064 0.0000
vt 0.4002 0.4843 1.2207
vt 0.6501 0.4843 1.2585
vt 0.6507 0.4682 1.2585
vt 0.3998 0.4891 0.8635
vt 0.6507 0.4892 0.8513
vt 0.2183 0.9855 0.0000
vt 0.2183 0.8219 0.0000
vt 0.0152 0.8219 0.0000
vt 0.0152 0.9855 0.0000
vt 0.0252 0.5307 0.0000
vt 0.2424 0.5307 0.0000
vt 0.2424 0.5468 0.0000
vt 0.0252 0.5468 0.0000
vt 0.0250 0.5014 0.0000
vt 0.2422 0.5014 0.0000
vt 0.2422 0.5172 0.0000
vt 0.0250 0.5172 0.0000
vt 0.6471 0.1860 0.0000
vt 0.6471 0.1747 0.0000
vt 0.8719 0.1747 0.0000
vt 0.8719 0.1860 0.0000
vt 0.3998 0.5007 1.2132
vt 0.6507 0.5007 1.2132
vt 0.6471 0.2119 0.0000
vt 0.6471 0.2006 0.0000
vt 0.8719 0.2006 0.0000
vt 0.8719 0.2119 0.0000
vt 0.8719 0.2265 0.0000
vt 0.8719 0.2379 0.0000
vt 0.6471 0.2379 0.0000
vt 0.6471 0.2265 0.0000
vt 0.7596 0.6338 0.0000
vt 0.7596 0.8053 0.0000
vt 0.5566 0.8053 0.0000
vt 0.5566 0.6338 0.0000
vt 0.6430 0.5545 1.8886
vt 0.6424 0.5372 2.0069
vt 0.4000 0.5372 2.0069
vt 0.6430 0.5326 1.3681
vt 0.3994 0.5326 1.3880
vt 0.7590 0.9857 0.0000
vt 0.5559 0.9857 0.0000
vt 0.5559 0.8221 0.0000
vt 0.7590 0.8221 0.0000
vt 0.0270 0.5895 0.0000
vt 0.0270 0.6056 0.0000
vt 0.2442 0.6056 0.0000
vt 0.2442 0.5895 0.0000
vt 0.0270 0.5635 0.0000
vt 0.0270 0.5793 0.0000
vt 0.2442 0.5793 0.0000
vt 0.2442 0.5635 0.0000
vt 0.6471 0.2784 0.0000
vt 0.8719 0.2784 0.0000
vt 0.8719 0.2897 0.0000
vt 0.6471 0.2897 0.0000
vt 0.6430 0.5208 1.8178
vt 0.3994 0.5208 1.8178
vt 0.6471 0.2525 0.0000
vt 0.8719 0.2525 0.0000
vt 0.8719 0.2638 0.0000
vt 0.6471 0.2638 0.0000
vt 0.8719 0.3157 0.0000
vt 0.6471 0.3157 0.0000
vt 0.6471 0.3043 0.0000
vt 0.8719 0.3043 0.0000
vt 0.8995 0.5905 0.5806
vt 0.8995 0.7719 0.5806
vt 0.8995 0.7866 0.5806
vt 0.8995 0.9597 0.5806
vt 0.8903 0.9615 0.6139
vt 0.8903 0.7901 0.6139
vt 0.8903 0.7755 0.6139
vt 0.8903 0.5958 0.6139
vt 0.5877 0.1667 0.0000
vt 0.5670 0.1667 0.0000
vt 0.4287 0.0295 0.0000
vt 0.4287 0.0079 0.0000
vt 0.2899 0.1667 0.0000
vt 0.2697 0.1667 0.0000
vt 0.7885 0.1168 0.0000
vt 0.9292 0.1168 0.0000
vt 0.9292 0.1223 0.0000
vt 0.7885 0.1223 0.0000
vt 0.6474 0.1168 0.0000
vt 0.6474 0.1223 0.0000
vt 0.7454 0.1469 0.0000
vt 0.9287 0.1469 0.0000
vt 0.9287 0.1578 0.0000
vt 0.7454 0.1578 0.0000
vt 0.6469 0.1469 0.0000
vt 0.7304 0.1469 0.0000
vt 0.7304 0.1578 0.0000
vt 0.6469 0.1578 0.0000
vt 0.9292 0.1332 0.0000
vt 0.7885 0.1332 0.0000
vt 0.6474 0.1332 0.0000
vt 0.1267 0.0136 0.0000
vt 0.3301 0.0136 0.0000
vt 0.1735 0.1586 0.0000
vt 0.0175 0.0136 0.0000
vt 0.1101 0.0136 0.0000
vt 0.2163 0.4882 0.0000
vt 0.0106 0.4882 0.0000
vt 0.0106 0.1759 0.0000
vt 0.2163 0.1759 0.0000
vt 0.3889 0.1581 0.0000
vt 0.3780 0.1690 0.0000
vt 0.3774 0.4404 0.0000
vt 0.3871 0.4500 0.0000
vt 0.2886 0.2112 0.0000
vt 0.3501 0.2112 0.0000
vt 0.3501 0.4854 0.0000
vt 0.2886 0.4854 0.0000
vt 0.4210 0.2154 0.0000
vt 0.4210 0.4577 0.0000
vt 0.4369 0.4577 0.0000
vt 0.4369 0.2154 0.0000
vt 0.2744 0.4882 0.0000
vt 0.2744 0.1759 0.0000
vt 0.4210 0.1470 0.0000
vt 0.4369 0.1470 0.0000
vt 1.2163 0.4882 0.0000
vt 1.2163 0.1759 0.0000
vt 1.0106 0.1759 0.0000
vt 1.0106 0.4882 0.0000
vt 1.3889 0.1581 0.0000
vt 1.3871 0.4500 0.0000
vt 1.3774 0.4404 0.0000
vt 1.3780 0.1690 0.0000
vt 1.2886 0.2112 0.0000
vt 1.2886 0.4854 0.0000
vt 1.3501 0.4854 0.0000
vt 1.3501 0.2112 0.0000
vt 1.4210 0.2154 0.0000
vt 1.4369 0.2154 0.0000
vt 1.4369 0.4577 0.0000
vt 1.4210 0.4577 0.0000
vt 1.2744 0.4882 0.0000
vt 1.2744 0.1759 0.0000
vt 1.4210 0.1470 0.0000
vt 1.4369 0.1470 0.0000
# 296 texture coords

g e_porch02_asset_003
s 1
f 1/1/1 2/2/1 3/3/1 4/4/1 
s off
f 5/5/1 6/6/1 7/7/1 8/8/1 
s 1
f 9/9/1 10/10/1 11/11/1 12/12/1 
s off
f 13/13/1 14/14/1 15/15/1 16/16/1 
s 1
f 17/17/1 18/18/1 19/19/1 20/20/1 
s off
f 14/14/1 5/5/1 8/8/1 15/15/1 
s 1
f 16/21/2 21/22/3 22/23/4 23/24/5 
s off
f 24/25/6 13/13/6 16/16/6 23/26/6 
s 1
f 25/27/7 26/28/8 27/29/8 7/30/9 
s off
f 6/6/10 28/31/10 25/32/10 7/7/10 
s 1
f 29/33/1 30/34/1 31/35/1 32/36/1 
f 33/37/1 34/38/1 35/39/1 36/40/1 
f 37/41/1 38/42/11 39/43/1 40/44/1 
f 41/45/3 42/46/3 43/47/3 44/48/3 
f 45/49/12 46/50/12 47/51/12 48/52/12 
f 49/53/11 50/54/11 51/55/1 37/41/1 
f 38/42/11 52/56/1 53/57/11 54/58/11 
f 37/41/1 51/55/1 52/56/1 38/42/11 
f 41/45/3 55/59/3 56/60/3 42/46/3 
f 45/49/12 57/61/12 58/62/12 46/50/12 
f 2/2/1 32/36/1 31/35/1 3/3/1 
f 19/19/1 39/43/1 59/63/1 60/64/1 
f 18/18/1 40/44/1 39/43/1 19/19/1 
f 21/22/3 44/48/3 43/47/3 22/23/4 
f 26/28/8 48/52/12 47/51/12 27/29/8 
s off
f 23/24/13 22/23/13 61/65/13 62/66/13 
f 17/67/14 63/68/14 1/69/14 4/70/14 
f 63/71/15 64/72/15 2/73/15 1/74/15 
f 64/72/16 65/75/16 32/76/16 2/73/16 
f 65/75/16 49/77/16 29/78/16 32/76/16 
f 49/79/17 37/80/17 30/81/17 29/82/17 
f 37/83/18 40/84/18 31/85/18 30/86/18 
f 40/84/18 18/87/18 3/88/18 31/85/18 
f 18/87/19 17/89/19 4/90/19 3/88/19 
f 20/91/20 19/92/20 10/93/20 9/94/20 
f 19/95/17 60/96/17 11/97/17 10/98/17 
f 60/99/21 66/100/21 12/101/21 11/102/21 
f 66/103/22 20/104/22 9/105/22 12/106/22 
f 26/28/23 25/27/23 67/107/23 68/108/23 
f 43/47/24 42/46/24 69/109/24 70/110/24 
f 38/111/17 54/112/17 34/113/17 33/114/17 
f 54/115/18 59/116/18 35/117/18 34/118/18 
f 59/119/25 39/120/25 36/121/25 35/122/25 
f 39/123/16 38/124/16 33/125/16 36/126/16 
f 45/49/26 48/52/26 71/127/26 72/128/26 
f 73/129/26 57/61/26 45/49/26 72/128/26 
s 2
f 48/52/26 26/28/26 68/108/26 71/127/26 
s off
f 25/130/27 28/131/27 74/132/27 67/133/27 
f 24/134/28 23/135/28 75/136/28 76/137/28 
s 2
f 42/46/24 56/60/24 77/138/24 69/109/24 
f 70/110/24 61/65/24 22/23/24 43/47/24 
s off
f 63/68/29 17/67/29 8/8/29 7/7/29 
f 20/104/29 66/103/29 16/16/29 15/15/29 
f 17/67/30 20/104/30 15/15/30 8/8/30 
f 66/100/31 60/99/31 21/22/31 16/21/31 
f 64/72/32 63/71/32 7/30/32 27/29/32 
f 59/116/18 54/115/18 41/45/18 44/48/18 
f 49/77/16 65/75/16 47/51/16 46/50/16 
f 54/115/18 53/139/18 55/59/18 41/45/18 
f 50/140/16 49/77/16 46/50/16 58/62/16 
f 60/99/18 59/116/18 44/48/18 21/22/18 
f 65/75/16 64/72/16 27/29/16 47/51/16 
f 78/141/33 79/142/33 62/66/33 61/65/33 
f 80/143/34 81/144/34 68/108/34 67/107/34 
f 82/145/35 83/146/35 70/110/35 69/109/35 
f 84/147/35 85/148/35 72/128/35 71/127/35 
f 85/148/35 86/149/35 73/129/35 72/128/35 
f 81/144/35 84/147/35 71/127/35 68/108/35 
f 87/150/35 82/145/35 69/109/35 77/138/35 
f 83/146/35 78/141/35 61/65/35 70/110/35 
s 1
f 88/151/36 89/152/36 90/153/36 91/154/36 
s off
f 76/137/37 62/155/37 92/156/37 93/157/37 
f 92/156/38 62/155/38 79/158/38 94/159/38 
s 1
f 95/160/16 96/161/36 97/162/16 98/163/16 
f 99/164/36 82/165/36 87/166/36 100/167/36 
f 101/168/16 78/169/16 83/170/16 102/171/16 
s off
f 101/172/39 91/173/39 90/174/39 78/175/39 
f 79/158/40 89/176/40 88/177/40 94/159/40 
f 99/178/39 95/179/39 98/180/39 82/181/39 
f 83/182/41 97/183/41 96/184/41 102/185/41 
s 1
f 103/186/18 104/187/18 105/188/18 106/189/18 
s off
f 74/132/18 107/190/18 108/191/18 109/192/18 
f 108/191/42 110/193/42 80/194/42 109/192/42 
s 1
f 111/195/18 112/196/43 113/197/18 114/198/18 
f 115/199/43 116/200/43 86/201/43 85/202/18 
f 117/203/43 118/204/43 84/205/43 81/206/43 
s off
f 117/207/44 81/208/44 105/209/44 104/210/44 
f 80/194/45 110/193/45 103/211/45 106/212/45 
f 115/213/44 85/214/44 112/215/44 111/216/44 
f 84/217/46 118/218/46 114/219/46 113/220/46 
s 2
f 89/221/35 79/142/35 78/141/47 90/222/47 
f 97/223/35 83/146/35 82/145/47 98/224/47 
f 112/225/35 85/148/35 84/147/47 113/226/47 
f 105/227/35 81/144/35 80/143/47 106/228/47 
s off
f 56/229/48 55/230/48 119/231/48 120/232/48 
f 120/232/49 119/231/49 58/233/49 57/234/49 
f 119/235/50 55/236/50 53/237/50 121/238/50 
f 58/239/51 119/235/51 121/238/51 50/240/51 
f 51/241/46 50/242/46 122/243/46 123/244/46 
f 53/245/29 52/246/29 124/247/29 125/248/29 
f 52/246/29 51/241/29 123/244/29 124/247/29 
f 121/238/50 53/237/50 125/249/50 126/250/50 
f 50/240/51 121/238/51 126/250/51 122/251/51 
f 123/252/11 122/253/11 126/254/11 
f 125/255/11 124/256/11 123/252/11 126/254/11 
f 127/257/52 128/258/52 129/259/52 130/260/52 
f 131/261/1 132/262/1 133/263/1 134/264/1 
f 132/265/53 135/266/53 136/267/53 133/268/53 
f 130/269/17 129/270/17 137/271/17 135/272/17 
f 134/273/52 127/257/52 130/260/52 131/274/52 
f 131/275/39 130/269/39 135/272/39 132/276/39 
f 138/277/54 139/278/54 140/279/54 141/280/54 
f 142/281/1 143/282/1 144/283/1 145/284/1 
f 145/285/55 144/286/55 146/287/55 147/288/55 
f 139/289/17 147/290/17 148/291/17 140/292/17 
f 143/293/54 142/294/54 139/278/54 138/277/54 
f 142/295/44 145/296/44 147/290/44 139/289/44 
# 116 polygons - 1 triangles

