# 3ds Max Wavefront OBJ Exporter v0.97b - (c)2007 guruware
# File Created: 20.11.2013 16:19:45

#
# object e_porch01_asset_001
#

v  467.1713 10.5850 1202.7444
v  467.1713 47.8521 1202.7444
v  432.8072 47.8521 1186.7202
v  432.8072 10.5850 1186.7202
v  431.3799 7.1982 1189.7810
v  465.5794 7.1982 1205.7285
v  465.6617 10.7704 1205.7670
v  431.4622 10.7704 1189.8195
v  429.9859 10.7772 1185.4045
v  429.9859 48.0443 1185.4045
v  414.3416 48.0443 1178.1095
v  414.3416 10.7772 1178.1095
v  412.9892 7.1983 1181.2053
v  428.4837 7.1983 1188.4305
v  428.5211 10.8665 1188.4480
v  412.9517 10.8665 1181.1879
v  431.9380 10.7704 1188.7992
v  431.8557 47.8521 1188.7607
v  429.0344 48.0443 1187.4452
v  428.9969 10.8665 1187.4277
v  412.9142 48.0443 1181.1704
v  408.9663 48.0447 1179.3304
v  408.9209 10.8710 1179.3019
v  408.8698 7.2064 1179.2854
v  469.6522 10.8712 1207.6211
v  469.5989 48.0447 1207.6040
v  465.7440 47.8521 1205.8053
v  469.6996 7.2068 1207.6509
v  467.1713 86.8242 1202.7444
v  432.8072 86.8242 1186.7202
v  432.8072 51.2621 1186.7202
v  467.1713 51.2621 1202.7444
v  429.9859 86.6347 1185.4047
v  414.3416 86.6347 1178.1095
v  414.3416 51.0727 1178.1095
v  429.9859 51.0727 1185.4045
v  431.8557 86.8242 1188.7607
v  429.0344 86.6347 1187.4452
v  429.0344 51.0727 1187.4452
v  431.8557 51.2621 1188.7607
v  412.9142 86.6347 1181.1704
v  408.9663 86.6347 1179.3304
v  408.9663 51.0727 1179.3304
v  412.9142 51.0727 1181.1704
v  469.5989 86.6347 1207.6040
v  465.7440 86.8242 1205.8053
v  465.7440 51.2621 1205.8053
v  469.5989 51.0727 1207.6040
v  466.2198 86.8242 1204.7850
v  466.2198 89.7350 1204.7850
v  431.8557 89.7350 1188.7607
v  429.0344 89.7350 1187.4452
v  413.3900 89.7350 1180.1501
v  413.3900 86.6347 1180.1501
v  412.9142 89.7350 1181.1704
v  408.9663 89.7350 1179.3304
v  469.5989 89.7350 1207.6040
v  465.7440 89.7350 1205.8053
v  413.3900 51.0727 1180.1501
v  413.3900 48.0443 1180.1501
v  410.9900 48.0447 1175.0896
v  410.9541 10.8892 1175.0042
v  466.1375 10.7704 1204.7466
v  466.2198 47.8521 1204.7850
v  466.2198 51.2621 1204.7850
v  413.4275 10.8665 1180.1676
v  471.5762 10.8352 1203.3258
v  471.5453 48.0447 1203.3269
v  410.9900 86.6347 1175.0896
v  410.9900 51.0727 1175.0896
v  471.5453 51.0727 1203.3269
v  471.5453 86.6347 1203.3269
v  471.5453 89.7350 1203.3269
v  471.6691 7.2112 1203.3235
v  410.9720 10.8467 1175.0659
v  410.9151 7.2107 1174.9934
v  410.9900 89.7350 1175.0896
v  412.0103 48.0443 1175.5654
v  411.9982 10.7996 1175.5597
v  470.5375 10.7996 1202.8571
v  470.5250 48.0443 1202.8512
v  412.0103 86.6348 1175.5654
v  412.0103 51.0727 1175.5654
v  470.5250 51.0727 1202.8512
v  470.5250 86.6348 1202.8512
v  470.5250 89.7350 1202.8512
v  412.0103 89.7350 1175.5654
v  432.9297 10.7773 1136.0311
v  414.0509 10.7773 1176.5170
v  414.0509 48.0443 1176.5170
v  432.9297 48.0443 1136.0311
v  429.7215 10.9558 1134.6577
v  429.7684 7.1983 1134.5570
v  430.8891 10.7773 1135.0796
v  432.9297 86.6348 1136.0311
v  432.9297 51.0727 1136.0311
v  414.0509 51.0727 1176.5170
v  414.0509 86.6348 1176.5170
v  430.8891 86.6348 1135.0796
v  430.8891 89.7351 1135.0796
v  430.8891 48.0443 1135.0796
v  430.8891 51.0727 1135.0796
v  487.3632 10.7773 1161.4139
v  487.3632 48.0443 1161.4139
v  468.4843 48.0443 1201.8997
v  468.4843 10.7773 1201.8997
v  490.5244 7.1983 1162.8881
v  490.4775 10.9558 1162.9888
v  471.6926 10.9558 1203.2731
v  489.4038 10.7773 1162.3655
v  487.3632 86.6348 1161.4138
v  468.4843 86.6348 1201.8997
v  468.4843 51.0727 1201.8997
v  487.3632 51.0727 1161.4139
v  489.4038 86.6348 1162.3655
v  489.4038 89.7351 1162.3655
v  489.4038 48.0443 1162.3655
v  489.4038 51.0727 1162.3655
v  414.0608 104.0593 1176.2523
v  426.9556 104.1912 1149.1461
v  414.7389 89.6958 1147.8198
v  400.6500 89.6873 1178.0337
v  436.2101 127.7727 1172.1451
v  446.3542 128.1152 1150.3910
v  445.4383 128.9534 1150.3091
v  435.1468 128.6226 1172.3792
v  447.9019 137.4637 1171.3654
v  456.9441 137.8903 1151.9744
v  468.1830 137.1447 1127.8724
v  458.4744 139.0511 1152.3157
v  469.5924 138.3180 1128.4731
v  402.2600 89.6931 1184.7666
v  435.4309 91.3859 1201.7328
v  438.4786 104.1059 1195.1969
v  415.6064 104.0462 1183.0231
v  444.0082 127.7673 1183.3386
v  437.6244 127.7230 1179.2410
v  443.7286 128.6208 1183.9382
v  436.5807 128.5747 1179.4412
v  447.0693 137.3589 1176.7739
v  431.0258 88.4288 1112.8925
v  442.0848 103.0691 1117.3441
v  458.6956 127.2557 1123.9248
v  457.9271 128.0787 1123.5267
v  449.5532 138.6156 1171.4474
v  415.3710 87.4059 1148.7646
v  401.8897 87.3977 1177.6753
v  403.5009 87.4035 1184.4063
v  435.8147 89.0937 1200.9097
v  431.8640 86.1021 1113.3954
v  438.6252 87.5826 1146.2723
v  432.0175 87.5786 1160.4425
v  432.8071 87.5823 1165.1997
v  448.6820 88.8134 1173.3156
v  450.4921 86.5667 1120.8235
v  468.6865 104.0593 1201.7246
v  475.9421 89.6873 1213.1429
v  490.0311 89.6958 1182.9291
v  481.1623 104.1912 1174.4231
v  467.7396 128.1152 1160.3630
v  457.5955 127.7727 1182.1172
v  468.3911 128.9534 1161.0121
v  459.7195 137.8903 1153.2686
v  450.6774 137.4637 1172.6595
v  458.0996 128.6226 1183.0823
v  470.9585 137.1447 1129.1666
v  469.7495 89.6931 1216.2374
v  462.5062 104.0462 1204.8928
v  451.2506 127.7230 1185.5950
v  451.7681 128.5747 1186.5232
v  506.3180 88.4288 1148.0017
v  495.7992 103.0691 1142.3915
v  480.0810 127.2557 1133.8970
v  480.8799 128.0787 1134.2299
v  475.4197 87.3977 1211.9629
v  488.9010 87.4059 1183.0522
v  469.2280 87.4035 1215.0553
v  505.3940 86.1021 1147.6830
v  469.2551 87.5786 1177.8066
v  475.8628 87.5826 1163.6365
v  465.1033 87.5823 1180.2596
v  487.7297 86.5667 1138.1876
# 182 vertices

vn -0.4226 -0.0000 0.9063
vn -0.4237 -0.0002 0.9058
vn -0.4224 -0.0000 0.9064
vn -0.4225 -0.0000 0.9064
vn -0.4238 -0.0002 0.9058
vn -0.4231 0.0009 0.9061
vn -0.4215 -0.0000 0.9068
vn -0.4228 -0.0001 0.9062
vn -0.4214 -0.0000 0.9069
vn -0.4221 0.0010 0.9065
vn -0.4228 -0.0000 0.9062
vn -0.9032 0.0016 -0.4291
vn 0.0347 0.9966 -0.0744
vn -0.8976 0.0012 -0.4409
vn -0.9063 0.0000 -0.4226
vn 0.0000 -1.0000 -0.0000
vn 0.9063 0.0000 0.4226
vn 0.9147 0.0012 0.4042
vn -0.9024 0.0006 -0.4309
vn 0.9102 0.0006 0.4143
vn 0.0167 0.9992 -0.0359
vn 0.9114 0.0011 0.4115
vn -0.9025 0.0000 -0.4307
vn 0.0000 1.0000 -0.0000
vn 0.9102 0.0000 0.4142
vn 0.9113 0.0191 0.4114
vn -0.9012 0.0186 -0.4330
vn -0.0000 1.0000 0.0000
vn 0.0268 0.9996 0.0125
vn 0.9063 0.0011 0.4226
vn -0.9063 0.0024 -0.4226
vn 0.4469 0.0008 -0.8946
vn 0.4169 0.0002 -0.9089
vn 0.4226 0.0000 -0.9063
vn -0.9063 -0.0000 -0.4226
vn -0.9065 0.0054 -0.4222
vn 0.0998 0.9939 0.0470
vn 0.0000 -1.0000 0.0000
vn 0.0046 1.0000 0.0019
vn -0.0000 1.0000 -0.0000
vn -0.1222 0.9909 -0.0572
vn 0.9063 -0.0000 0.4226
vn -0.0000 -1.0000 -0.0000
vn -0.0044 1.0000 -0.0023
vn 0.0000 1.0000 0.0000
vn 0.4226 -0.0000 -0.9063
vn -0.7116 0.6183 -0.3338
vn -0.7099 0.6145 -0.3441
vn -0.7044 0.6233 -0.3396
vn -0.7101 0.6215 -0.3309
vn -0.7211 0.6077 -0.3329
vn -0.7213 0.6000 -0.3460
vn -0.5658 0.7805 -0.2660
vn -0.5715 0.8195 -0.0436
vn -0.5796 0.8008 -0.1510
vn -0.5566 0.7879 -0.2634
vn -0.6362 -0.7609 -0.1278
vn -0.6317 -0.7731 -0.0572
vn -0.6317 -0.7184 -0.2913
vn -0.6328 -0.7195 -0.2861
vn -0.5528 0.7842 -0.2820
vn 0.0027 1.0000 -0.0057
vn 0.0118 0.9996 -0.0252
vn -0.4146 0.4841 0.7706
vn -0.3676 0.4932 0.7884
vn -0.3692 0.4868 0.7917
vn -0.4158 0.4833 0.7704
vn -0.3623 0.5148 0.7770
vn -0.4578 0.5387 0.7073
vn -0.4047 -0.6441 0.6491
vn -0.3340 -0.6127 0.7163
vn -0.3328 -0.6163 0.7137
vn -0.4033 -0.6464 0.6477
vn -0.3995 0.6677 0.6281
vn -0.3134 0.6709 0.6721
vn -0.6950 0.6276 -0.3509
vn -0.7058 0.6129 -0.3553
vn -0.7223 0.5929 -0.3561
vn -0.5628 0.7753 -0.2868
vn -0.6342 -0.7237 -0.2722
vn -0.6341 -0.7238 -0.2722
vn -0.0393 0.9957 0.0844
vn -0.8379 -0.3892 -0.3827
vn -0.8370 -0.3895 -0.3843
vn -0.8342 -0.3908 -0.3891
vn -0.4104 -0.3554 0.8398
vn -0.4105 -0.3547 0.8401
vn -0.3930 -0.3678 0.8428
vn -0.3929 -0.3683 0.8426
vn -0.8417 -0.3852 -0.3783
vn -0.8418 -0.3850 -0.3783
vn 0.0093 -0.9998 0.0162
vn 0.0099 -0.9995 0.0299
vn 0.0073 -1.0000 0.0023
vn 0.0063 -1.0000 0.0005
vn 0.0219 -0.9996 0.0176
vn 0.0265 -0.9992 0.0312
vn -0.0089 -0.9998 0.0191
vn -0.0039 -1.0000 0.0083
vn 0.0094 -0.9990 0.0431
vn 0.0076 -0.9990 0.0434
vn -0.7095 0.6854 0.1639
vn -0.7100 0.6835 0.1692
vn -0.7105 0.6833 0.1681
vn -0.7099 0.6853 0.1622
vn -0.7118 0.6864 0.1490
vn -0.7126 0.6861 0.1468
vn -0.1044 0.9690 0.2238
vn -0.6128 -0.7813 0.1188
vn -0.6139 -0.7803 0.1194
vn -0.5813 0.8101 0.0768
vn -0.8473 -0.4907 0.2032
vn -0.8473 -0.4906 0.2032
vn -0.8472 -0.4910 0.2031
vn -0.8471 -0.4911 0.2030
vn 0.7131 0.6183 0.3305
vn 0.7099 0.6215 0.3312
vn 0.7129 0.6233 0.3213
vn 0.7199 0.6145 0.3226
vn 0.7287 0.6000 0.3302
vn 0.7185 0.6077 0.3384
vn 0.5674 0.7805 0.2624
vn 0.5596 0.7879 0.2570
vn 0.4882 0.8008 0.3469
vn 0.4007 0.8195 0.4097
vn 0.5069 -0.7609 0.4052
vn 0.6259 -0.7195 0.3009
vn 0.6292 -0.7184 0.2966
vn 0.4499 -0.7731 0.4471
vn 0.5713 0.7842 0.2422
vn -0.3238 0.4841 0.8129
vn -0.3229 0.4833 0.8137
vn -0.2476 0.5387 0.8053
vn -0.2371 -0.6441 0.7273
vn -0.2369 -0.6464 0.7253
vn -0.2244 0.6677 0.7098
vn 0.7155 0.6276 0.3068
vn 0.7258 0.6129 0.3123
vn 0.7370 0.5929 0.3244
vn 0.5815 0.7753 0.2467
vn 0.6161 -0.7238 0.3108
vn 0.6162 -0.7237 0.3108
vn 0.8318 -0.3892 0.3958
vn 0.8343 -0.3908 0.3889
vn 0.8324 -0.3895 0.3942
vn -0.3795 -0.3554 0.8542
vn -0.3797 -0.3547 0.8544
vn 0.8309 -0.3852 0.4016
vn 0.8309 -0.3850 0.4017
vn -0.0184 -0.9998 0.0033
vn -0.0044 -1.0000 -0.0045
vn -0.0064 -1.0000 -0.0041
vn -0.0292 -0.9995 0.0117
vn -0.0275 -0.9996 -0.0055
vn -0.0409 -0.9992 -0.0003
vn -0.0390 -0.9990 0.0205
vn -0.0382 -0.9990 0.0221
vn 0.3305 0.6854 0.6488
vn 0.3321 0.6853 0.6481
vn 0.3280 0.6833 0.6524
vn 0.3268 0.6835 0.6527
vn 0.3434 0.6864 0.6410
vn 0.3455 0.6861 0.6402
vn 0.3032 -0.7803 0.5470
vn 0.3029 -0.7813 0.5458
vn 0.3148 0.8101 0.4946
vn 0.3890 -0.4907 0.7797
vn 0.3890 -0.4911 0.7794
vn 0.3890 -0.4910 0.7795
vn 0.3890 -0.4906 0.7797
# 170 vertex normals

vt 0.5400 0.6348 0.0000
vt 0.5400 0.8064 0.0000
vt 0.3316 0.8064 0.0000
vt 0.3316 0.6348 0.0000
vt 0.4531 0.6047 0.7518
vt 0.6728 0.6047 0.7518
vt 0.6734 0.5896 0.7875
vt 0.4536 0.5896 0.7875
vt 0.3216 0.6348 0.0000
vt 0.3216 0.8065 0.0000
vt 0.2267 0.8065 0.0000
vt 0.2267 0.6348 0.0000
vt 0.3349 0.6047 0.7518
vt 0.4345 0.6047 0.7518
vt 0.4347 0.5894 0.8094
vt 0.3346 0.5894 0.8094
vt 0.6180 0.0340 0.0000
vt 0.6176 0.2271 0.0000
vt 0.6024 0.2281 0.0000
vt 0.6022 0.0345 0.0000
vt 0.9648 0.5910 0.7306
vt 0.9647 0.7719 0.7238
vt 0.9419 0.7719 0.7220
vt 0.9417 0.5910 0.7297
vt 0.3084 0.6047 0.7503
vt 0.3087 0.5893 0.8091
vt 0.8476 0.5963 0.7353
vt 0.8474 0.7755 0.7283
vt 0.8267 0.7746 0.6949
vt 0.8263 0.5958 0.7077
vt 0.6993 0.6047 0.7502
vt 0.6990 0.5893 0.8091
vt 0.5400 0.9859 0.0000
vt 0.3316 0.9859 0.0000
vt 0.3316 0.8221 0.0000
vt 0.5400 0.8221 0.0000
vt 0.3222 0.9866 0.0000
vt 0.2273 0.9866 0.0000
vt 0.2273 0.8228 0.0000
vt 0.3222 0.8228 0.0000
vt 0.6176 0.4301 0.0000
vt 0.6024 0.4292 0.0000
vt 0.6024 0.2439 0.0000
vt 0.6176 0.2449 0.0000
vt 0.9647 0.9597 0.7238
vt 0.9419 0.9597 0.7220
vt 0.9419 0.7866 0.7220
vt 0.9647 0.7866 0.7238
vt 0.8474 0.9615 0.7283
vt 0.8267 0.9624 0.6949
vt 0.8267 0.7910 0.6949
vt 0.8474 0.7901 0.7283
vt 0.8019 0.4301 0.0000
vt 0.8019 0.4453 0.0000
vt 0.6176 0.4453 0.0000
vt 0.6024 0.4453 0.0000
vt 0.5185 0.4453 0.0000
vt 0.5185 0.4292 0.0000
vt 0.9647 0.9747 0.7238
vt 0.9419 0.9747 0.7220
vt 0.8474 0.9765 0.7283
vt 0.8267 0.9765 0.6949
vt 0.5185 0.2439 0.0000
vt 0.5185 0.2281 0.0000
vt 0.9185 0.7719 0.7056
vt 0.9186 0.5911 0.7264
vt 0.4536 0.5855 0.5767
vt 0.6734 0.5855 0.5767
vt 0.6739 0.5740 0.6933
vt 0.4531 0.5740 0.6933
vt 0.8216 0.5958 0.5531
vt 0.8219 0.7746 0.5361
vt 0.8074 0.7746 0.5347
vt 0.8074 0.5949 0.5347
vt 0.8219 0.7910 0.5361
vt 0.8074 0.7910 0.5347
vt 0.8219 0.9624 0.5361
vt 0.8074 0.9624 0.5347
vt 0.6398 0.3303 0.0000
vt 0.8306 0.3303 0.0000
vt 0.8306 0.3416 0.0000
vt 0.6398 0.3416 0.0000
vt 0.9569 0.1000 0.0000
vt 0.9569 0.2790 0.0000
vt 0.9455 0.2790 0.0000
vt 0.9455 0.1000 0.0000
vt 0.9569 0.2962 0.0000
vt 0.9455 0.2962 0.0000
vt 0.9569 0.4828 0.0000
vt 0.9455 0.4837 0.0000
vt 0.6395 0.3538 0.0000
vt 0.8266 0.3538 0.0000
vt 0.8266 0.3651 0.0000
vt 0.6390 0.3651 0.0000
vt 0.7556 0.4833 0.0000
vt 0.8425 0.4833 0.0000
vt 0.8425 0.4946 0.0000
vt 0.7556 0.4946 0.0000
vt 0.9691 0.7719 0.5755
vt 0.9692 0.5910 0.5840
vt 0.9823 0.5905 0.5514
vt 0.9823 0.7719 0.5514
vt 0.3346 0.5853 0.6049
vt 0.4347 0.5853 0.6049
vt 0.4349 0.5746 0.7321
vt 0.3344 0.5746 0.7321
vt 0.8725 0.5961 0.6771
vt 0.8725 0.7755 0.6710
vt 0.9185 0.9597 0.7056
vt 0.9185 0.7866 0.7056
vt 0.7556 0.5351 0.0000
vt 0.8425 0.5351 0.0000
vt 0.8425 0.5465 0.0000
vt 0.7556 0.5465 0.0000
vt 0.9691 0.9597 0.5755
vt 0.9691 0.7866 0.5755
vt 0.9823 0.7866 0.5514
vt 0.9823 0.9597 0.5514
vt 0.7556 0.5092 0.0000
vt 0.8425 0.5092 0.0000
vt 0.8425 0.5205 0.0000
vt 0.7556 0.5205 0.0000
vt 0.6372 0.3773 0.0000
vt 0.8162 0.3773 0.0000
vt 0.8162 0.3886 0.0000
vt 0.6372 0.3886 0.0000
vt 0.8725 0.7901 0.6710
vt 0.8725 0.9615 0.6710
vt 0.8725 0.9765 0.6710
vt 0.3738 0.5374 1.9525
vt 0.3738 0.5543 1.9063
vt 0.3997 0.5545 1.8816
vt 0.3995 0.5373 1.8929
vt 0.3735 0.4683 1.2693
vt 0.3735 0.4841 1.2241
vt 0.3999 0.4843 1.1911
vt 0.4002 0.4682 1.2535
vt 0.9185 0.9747 0.7056
vt 0.9691 0.9747 0.5755
vt 0.8219 0.9765 0.5361
vt 0.9135 0.7719 0.5546
vt 0.9136 0.5906 0.5559
vt 0.8776 0.5959 0.5526
vt 0.8777 0.7755 0.5517
vt 0.9135 0.9597 0.5546
vt 0.9135 0.7866 0.5546
vt 0.8777 0.7901 0.5517
vt 0.8777 0.9615 0.5517
vt 0.8777 0.9765 0.5517
vt 0.9135 0.9747 0.5546
vt 0.2169 0.6349 0.0000
vt 0.0139 0.6349 0.0000
vt 0.0139 0.8064 0.0000
vt 0.2169 0.8064 0.0000
vt 0.4002 0.4843 1.2207
vt 0.6501 0.4843 1.2585
vt 0.6507 0.4682 1.2585
vt 0.3998 0.4891 0.8635
vt 0.6507 0.4892 0.8513
vt 0.2183 0.9855 0.0000
vt 0.2183 0.8219 0.0000
vt 0.0152 0.8219 0.0000
vt 0.0152 0.9855 0.0000
vt 0.0252 0.5307 0.0000
vt 0.2424 0.5307 0.0000
vt 0.2424 0.5468 0.0000
vt 0.0252 0.5468 0.0000
vt 0.0250 0.5014 0.0000
vt 0.2422 0.5014 0.0000
vt 0.2422 0.5172 0.0000
vt 0.0250 0.5172 0.0000
vt 0.6471 0.1860 0.0000
vt 0.6471 0.1747 0.0000
vt 0.8719 0.1747 0.0000
vt 0.8719 0.1860 0.0000
vt 0.3998 0.5007 1.2132
vt 0.6507 0.5007 1.2132
vt 0.6471 0.2119 0.0000
vt 0.6471 0.2006 0.0000
vt 0.8719 0.2006 0.0000
vt 0.8719 0.2119 0.0000
vt 0.8719 0.2265 0.0000
vt 0.8719 0.2379 0.0000
vt 0.6471 0.2379 0.0000
vt 0.6471 0.2265 0.0000
vt 0.7596 0.6338 0.0000
vt 0.7596 0.8053 0.0000
vt 0.5566 0.8053 0.0000
vt 0.5566 0.6338 0.0000
vt 0.6430 0.5545 1.8886
vt 0.6424 0.5372 2.0069
vt 0.4000 0.5372 2.0069
vt 0.6430 0.5326 1.3681
vt 0.3994 0.5326 1.3880
vt 0.7590 0.9857 0.0000
vt 0.5559 0.9857 0.0000
vt 0.5559 0.8221 0.0000
vt 0.7590 0.8221 0.0000
vt 0.0270 0.5895 0.0000
vt 0.0270 0.6056 0.0000
vt 0.2442 0.6056 0.0000
vt 0.2442 0.5895 0.0000
vt 0.0270 0.5635 0.0000
vt 0.0270 0.5793 0.0000
vt 0.2442 0.5793 0.0000
vt 0.2442 0.5635 0.0000
vt 0.6471 0.2784 0.0000
vt 0.8719 0.2784 0.0000
vt 0.8719 0.2897 0.0000
vt 0.6471 0.2897 0.0000
vt 0.6430 0.5208 1.8178
vt 0.3994 0.5208 1.8178
vt 0.6471 0.2525 0.0000
vt 0.8719 0.2525 0.0000
vt 0.8719 0.2638 0.0000
vt 0.6471 0.2638 0.0000
vt 0.8719 0.3157 0.0000
vt 0.6471 0.3157 0.0000
vt 0.6471 0.3043 0.0000
vt 0.8719 0.3043 0.0000
vt 0.8995 0.5905 0.5806
vt 0.8995 0.7719 0.5806
vt 0.8995 0.7866 0.5806
vt 0.8995 0.9597 0.5806
vt 0.8903 0.9615 0.6139
vt 0.8903 0.7901 0.6139
vt 0.8903 0.7755 0.6139
vt 0.8903 0.5958 0.6139
vt 0.2795 0.0943 0.0000
vt 0.1692 0.0996 0.0000
vt 0.1815 0.0190 0.0000
vt 0.3041 0.0143 0.0000
vt 0.2353 0.2251 0.0000
vt 0.1471 0.2296 0.0000
vt 0.1342 0.2632 0.0000
vt 0.2233 0.2598 0.0000
vt 0.2021 0.3223 0.0000
vt 0.1234 0.3262 0.0000
vt 0.2241 0.2551 0.0000
vt 0.1330 0.2579 0.0000
vt 0.0247 0.3274 0.0000
vt 0.1224 0.3347 0.0000
vt 0.0247 0.3359 0.0000
vt 0.3286 0.0274 0.0000
vt 0.4215 0.1667 0.0000
vt 0.3726 0.2011 0.0000
vt 0.3042 0.1071 0.0000
vt 0.2820 0.2646 0.0000
vt 0.2613 0.2377 0.0000
vt 0.2513 0.2727 0.0000
vt 0.2688 0.3045 0.0000
vt 0.2649 0.3070 0.0000
vt 0.2467 0.2745 0.0000
vt 0.2223 0.3270 0.0000
vt 0.0396 0.0203 0.0000
vt 0.0396 0.1017 0.0000
vt 0.0396 0.2310 0.0000
vt 0.0247 0.2642 0.0000
vt 0.0247 0.2589 0.0000
vt 0.2001 0.3308 0.0000
vt 0.2763 0.4471 0.0000
vt 0.2792 0.4322 0.0000
vt 0.4407 0.4331 0.0000
vt 0.4477 0.4462 0.0000
vt 0.4786 0.4176 0.0000
vt 0.4674 0.4083 0.0000
vt 0.4858 0.1892 0.0000
vt 0.4996 0.1897 0.0000
vt 0.0758 0.4472 0.0000
vt 0.0758 0.4321 0.0000
vt 0.2748 0.3810 0.0000
vt 0.3835 0.3822 0.0000
vt 0.4120 0.3565 0.0000
vt 0.4260 0.1859 0.0000
vt 0.0758 0.3804 0.0000
vt 1.2795 0.0943 0.0000
vt 1.3041 0.0143 0.0000
vt 1.1815 0.0190 0.0000
vt 1.1692 0.0996 0.0000
vt 1.1471 0.2296 0.0000
vt 1.2353 0.2251 0.0000
vt 1.1342 0.2632 0.0000
vt 1.1234 0.3262 0.0000
vt 1.2021 0.3223 0.0000
vt 1.2233 0.2598 0.0000
vt 1.2241 0.2551 0.0000
vt 1.1330 0.2579 0.0000
vt 1.0247 0.3274 0.0000
vt 1.0247 0.3359 0.0000
vt 1.1224 0.3347 0.0000
vt 1.3286 0.0274 0.0000
vt 1.3042 0.1071 0.0000
vt 1.3726 0.2011 0.0000
vt 1.4215 0.1667 0.0000
vt 1.2613 0.2377 0.0000
vt 1.2820 0.2646 0.0000
vt 1.2513 0.2727 0.0000
vt 1.2467 0.2745 0.0000
vt 1.2649 0.3070 0.0000
vt 1.2688 0.3045 0.0000
vt 1.2223 0.3270 0.0000
vt 1.0396 0.0203 0.0000
vt 1.0396 0.1017 0.0000
vt 1.0396 0.2310 0.0000
vt 1.0247 0.2642 0.0000
vt 1.0247 0.2589 0.0000
vt 1.2001 0.3308 0.0000
vt 1.2763 0.4471 0.0000
vt 1.4477 0.4462 0.0000
vt 1.4407 0.4331 0.0000
vt 1.2792 0.4322 0.0000
vt 1.4786 0.4176 0.0000
vt 1.4996 0.1897 0.0000
vt 1.4858 0.1892 0.0000
vt 1.4674 0.4083 0.0000
vt 1.0758 0.4472 0.0000
vt 1.0758 0.4321 0.0000
vt 1.3835 0.3822 0.0000
vt 1.2748 0.3810 0.0000
vt 1.4260 0.1859 0.0000
vt 1.4120 0.3565 0.0000
vt 1.0758 0.3804 0.0000
# 322 texture coords

g e_porch01_asset_001
s 1
f 1/1/1 2/2/1 3/3/1 4/4/1 
s off
f 5/5/1 6/6/1 7/7/1 8/8/1 
s 1
f 9/9/1 10/10/1 11/11/1 12/12/1 
s off
f 13/13/1 14/14/1 15/15/1 16/16/1 
s 1
f 17/17/1 18/18/1 19/19/1 20/20/1 
s off
f 14/14/1 5/5/1 8/8/1 15/15/1 
s 1
f 16/21/2 21/22/3 22/23/4 23/24/5 
s off
f 24/25/6 13/13/6 16/16/6 23/26/6 
s 1
f 25/27/7 26/28/8 27/29/8 7/30/9 
s off
f 6/6/10 28/31/10 25/32/10 7/7/10 
s 1
f 29/33/1 30/34/1 31/35/1 32/36/1 
f 33/37/1 34/38/1 35/39/1 36/40/1 
f 37/41/1 38/42/1 39/43/1 40/44/1 
f 41/45/3 42/46/3 43/47/3 44/48/3 
f 45/49/11 46/50/11 47/51/11 48/52/11 
f 49/53/1 50/54/1 51/55/1 37/41/1 
f 38/42/1 52/56/1 53/57/1 54/58/1 
f 37/41/1 51/55/1 52/56/1 38/42/1 
f 41/45/3 55/59/3 56/60/3 42/46/3 
f 45/49/11 57/61/11 58/62/11 46/50/11 
f 2/2/1 32/36/1 31/35/1 3/3/1 
f 19/19/1 39/43/1 59/63/1 60/64/1 
f 18/18/1 40/44/1 39/43/1 19/19/1 
f 21/22/3 44/48/3 43/47/3 22/23/4 
f 26/28/8 48/52/11 47/51/11 27/29/8 
s off
f 23/24/12 22/23/12 61/65/12 62/66/12 
f 17/67/13 63/68/13 1/69/13 4/70/13 
f 63/71/14 64/72/14 2/73/14 1/74/14 
f 64/72/15 65/75/15 32/76/15 2/73/15 
f 65/75/15 49/77/15 29/78/15 32/76/15 
f 49/79/16 37/80/16 30/81/16 29/82/16 
f 37/83/17 40/84/17 31/85/17 30/86/17 
f 40/84/17 18/87/17 3/88/17 31/85/17 
f 18/87/18 17/89/18 4/90/18 3/88/18 
f 20/91/19 19/92/19 10/93/19 9/94/19 
f 19/95/16 60/96/16 11/97/16 10/98/16 
f 60/99/20 66/100/20 12/101/20 11/102/20 
f 66/103/21 20/104/21 9/105/21 12/106/21 
f 26/28/22 25/27/22 67/107/22 68/108/22 
f 43/47/23 42/46/23 69/109/23 70/110/23 
f 38/111/16 54/112/16 34/113/16 33/114/16 
f 54/115/17 59/116/17 35/117/17 34/118/17 
f 59/119/24 39/120/24 36/121/24 35/122/24 
f 39/123/15 38/124/15 33/125/15 36/126/15 
f 45/49/25 48/52/25 71/127/25 72/128/25 
f 73/129/25 57/61/25 45/49/25 72/128/25 
s 2
f 48/52/25 26/28/25 68/108/25 71/127/25 
s off
f 25/130/26 28/131/26 74/132/26 67/133/26 
f 24/134/27 23/135/27 75/136/27 76/137/27 
s 2
f 42/46/23 56/60/23 77/138/23 69/109/23 
f 70/110/23 61/65/23 22/23/23 43/47/23 
s off
f 63/68/28 17/67/28 8/8/28 7/7/28 
f 20/104/28 66/103/28 16/16/28 15/15/28 
f 17/67/29 20/104/29 15/15/29 8/8/29 
f 66/100/30 60/99/30 21/22/30 16/21/30 
f 64/72/31 63/71/31 7/30/31 27/29/31 
f 59/116/17 54/115/17 41/45/17 44/48/17 
f 49/77/15 65/75/15 47/51/15 46/50/15 
f 54/115/17 53/139/17 55/59/17 41/45/17 
f 50/140/15 49/77/15 46/50/15 58/62/15 
f 60/99/17 59/116/17 44/48/17 21/22/17 
f 65/75/15 64/72/15 27/29/15 47/51/15 
f 78/141/32 79/142/32 62/66/32 61/65/32 
f 80/143/33 81/144/33 68/108/33 67/107/33 
f 82/145/34 83/146/34 70/110/34 69/109/34 
f 84/147/34 85/148/34 72/128/34 71/127/34 
f 85/148/34 86/149/34 73/129/34 72/128/34 
f 81/144/34 84/147/34 71/127/34 68/108/34 
f 87/150/34 82/145/34 69/109/34 77/138/34 
f 83/146/34 78/141/34 61/65/34 70/110/34 
s 1
f 88/151/35 89/152/35 90/153/35 91/154/35 
s off
f 76/137/36 62/155/36 92/156/36 93/157/36 
f 92/156/37 62/155/37 79/158/37 94/159/37 
s 1
f 95/160/15 96/161/35 97/162/15 98/163/15 
f 99/164/35 82/165/35 87/166/35 100/167/35 
f 101/168/15 78/169/15 83/170/15 102/171/15 
s off
f 101/172/38 91/173/38 90/174/38 78/175/38 
f 79/158/39 89/176/39 88/177/39 94/159/39 
f 99/178/38 95/179/38 98/180/38 82/181/38 
f 83/182/40 97/183/40 96/184/40 102/185/40 
s 1
f 103/186/17 104/187/17 105/188/17 106/189/17 
s off
f 74/132/17 107/190/17 108/191/17 109/192/17 
f 108/191/41 110/193/41 80/194/41 109/192/41 
s 1
f 111/195/17 112/196/42 113/197/17 114/198/17 
f 115/199/42 116/200/42 86/201/42 85/202/17 
f 117/203/42 118/204/42 84/205/42 81/206/42 
s off
f 117/207/43 81/208/43 105/209/43 104/210/43 
f 80/194/44 110/193/44 103/211/44 106/212/44 
f 115/213/43 85/214/43 112/215/43 111/216/43 
f 84/217/45 118/218/45 114/219/45 113/220/45 
s 2
f 89/221/34 79/142/34 78/141/46 90/222/46 
f 97/223/34 83/146/34 82/145/46 98/224/46 
f 112/225/34 85/148/34 84/147/46 113/226/46 
f 105/227/34 81/144/34 80/143/46 106/228/46 
s 1
f 119/229/47 120/230/48 121/231/49 122/232/50 
f 120/230/48 119/229/47 123/233/51 124/234/52 
f 125/235/53 126/236/54 127/237/55 128/238/56 
s 2
f 123/239/57 126/236/58 125/235/59 124/240/60 
s 1
f 129/241/61 128/238/56 130/242/62 131/243/63 
f 132/244/64 133/245/65 134/246/66 135/247/67 
f 135/247/67 134/246/66 136/248/68 137/249/69 
s 4
f 137/250/70 136/251/71 138/252/72 139/253/73 
s 8
f 139/253/74 138/252/75 140/254/75 
s 1
f 141/255/76 121/231/49 120/230/48 142/256/77 
f 142/256/77 120/230/48 124/234/52 143/257/78 
f 144/258/79 125/235/53 128/238/56 129/241/61 
s 2
f 124/240/60 125/235/59 144/258/80 143/259/81 
s 1
f 145/260/82 130/242/62 128/238/56 127/237/55 
s 2
f 121/261/83 146/262/84 147/263/85 122/264/85 
f 132/265/86 148/266/87 149/267/88 133/268/89 
f 141/269/90 150/270/91 146/262/84 121/261/83 
s 1
f 146/262/92 151/271/93 152/272/94 147/263/95 
f 148/266/96 153/273/97 154/274/98 149/267/99 
f 150/270/100 155/275/101 151/271/93 146/262/92 
s 8
f 119/229/102 122/232/103 132/244/104 135/247/105 
f 123/233/106 119/229/102 135/247/105 137/249/107 
s 1
f 145/260/82 127/237/55 140/254/108 
s 2
f 126/236/58 123/239/57 137/250/109 139/253/110 
s 1
f 127/237/55 126/236/54 139/253/111 140/254/108 
s 4
f 122/264/112 147/263/113 148/266/114 132/265/115 
s 1
f 147/263/95 152/272/94 153/273/97 148/266/96 
f 156/276/116 157/277/117 158/278/118 159/279/119 
f 159/279/119 160/280/120 161/281/121 156/276/116 
f 162/282/122 163/283/123 164/284/124 165/285/125 
s 2
f 161/286/126 160/287/127 162/282/128 165/285/129 
s 1
f 166/288/130 131/289/63 130/290/62 163/283/123 
f 167/291/131 168/292/132 134/293/66 133/294/65 
f 168/292/132 169/295/133 136/296/68 134/293/66 
s 4
f 169/297/134 170/298/135 138/299/72 136/300/71 
s 8
f 170/298/136 140/301/75 138/299/75 
s 1
f 171/302/137 172/303/138 159/279/119 158/278/118 
f 172/303/138 173/304/139 160/280/120 159/279/119 
f 174/305/140 166/288/130 163/283/123 162/282/122 
s 2
f 160/287/127 173/306/141 174/305/142 162/282/128 
s 1
f 145/307/82 164/284/124 163/283/123 130/290/62 
s 2
f 158/308/143 157/309/144 175/310/144 176/311/145 
f 167/312/146 133/313/89 149/314/88 177/315/147 
f 171/316/148 158/308/143 176/311/145 178/317/149 
s 1
f 176/311/150 175/310/151 179/318/152 180/319/153 
f 177/315/154 149/314/99 154/320/98 181/321/155 
f 178/317/156 176/311/150 180/319/153 182/322/157 
s 8
f 156/276/158 168/292/159 167/291/160 157/277/161 
f 161/281/162 169/295/163 168/292/159 156/276/158 
s 1
f 145/307/82 140/301/108 164/284/124 
s 2
f 165/285/129 170/298/164 169/297/165 161/286/126 
s 1
f 164/284/124 140/301/108 170/298/166 165/285/125 
s 4
f 157/309/167 167/312/168 177/315/169 175/310/170 
s 1
f 175/310/151 177/315/154 181/321/155 179/318/152 
# 144 polygons - 4 triangles

