# 3ds Max Wavefront OBJ Exporter v0.97b - (c)2007 guruware
# File Created: 20.11.2013 16:12:14

#
# object e_roof01_asset_004
#

v  831.4695 125.9800 1546.0222
v  806.9126 102.2166 1541.4574
v  820.8702 104.5849 1593.5477
v  844.4756 128.3131 1592.7963
v  881.5731 167.5134 1592.9471
v  871.5297 165.2642 1555.4648
v  879.7757 168.8473 1592.8435
v  902.2715 183.5408 1591.7781
v  893.3214 181.3397 1558.3760
v  869.5861 166.5923 1554.8156
v  913.4194 184.2128 1633.3824
v  916.3431 186.1145 1632.5990
v  905.3153 185.4425 1591.4427
v  812.8621 101.8432 1530.7830
v  837.3126 125.5715 1535.2745
v  886.1445 125.5715 1519.8965
v  883.3577 104.4856 1509.4958
v  877.2620 164.7718 1544.1633
v  891.1901 164.7718 1538.7268
v  875.3412 166.1056 1543.5731
v  890.8975 166.1056 1537.6348
v  894.0474 180.7992 1549.3904
v  837.0285 105.2569 1653.8513
v  859.7591 128.9851 1647.7606
v  893.8152 168.1854 1638.6354
v  892.1641 169.5192 1639.0778
v  896.4851 183.2472 1558.4882
v  809.1662 98.5729 1542.4424
v  822.5217 100.8390 1592.2859
v  883.7798 100.8419 1511.0712
v  815.1168 98.1995 1531.7715
v  838.8848 101.4859 1653.3539
v  829.5150 99.6650 1556.3467
v  838.4043 101.1733 1589.5220
v  888.8038 101.9340 1529.8212
v  835.4738 99.2916 1545.7032
v  854.3945 101.6345 1649.1981
v  886.1288 125.9800 1750.0135
v  874.0054 128.3131 1703.0029
v  853.1868 104.5849 1714.1549
v  867.1443 102.2166 1766.2452
v  916.1007 165.2642 1721.8059
v  906.0573 167.5134 1684.3235
v  904.5525 168.8473 1685.3120
v  914.7421 166.5923 1723.3400
v  933.5173 181.3397 1708.3889
v  924.5672 183.5408 1674.9868
v  927.3708 185.4425 1673.7552
v  877.6340 101.8432 1772.5149
v  949.3285 104.4856 1755.7023
v  946.5416 125.5715 1745.3016
v  896.5629 125.5715 1756.3997
v  941.4961 164.7718 1726.4713
v  926.7157 164.7718 1728.7272
v  941.7887 166.1056 1727.5634
v  925.3474 166.1056 1730.1987
v  938.6388 180.7992 1715.8077
v  936.2010 183.2472 1706.7098
v  855.2480 100.8390 1714.4220
v  868.6035 98.5729 1764.2655
v  879.0923 98.1995 1770.5314
v  948.9064 100.8419 1754.1268
v  870.3846 101.1733 1708.8741
v  879.2739 99.6650 1742.0496
v  889.7561 99.2916 1748.2876
v  943.8823 101.9340 1735.3768
v  946.5574 125.9801 1515.1846
v  958.6808 128.3132 1562.1951
v  979.4994 104.5849 1551.0431
v  965.5418 102.2166 1498.9529
v  916.5854 165.2642 1543.3922
v  926.6288 167.5134 1580.8745
v  928.1337 168.8473 1579.8861
v  917.9441 166.5923 1541.8582
v  899.1688 181.3397 1556.8091
v  908.1190 183.5408 1590.2113
v  919.2668 184.2128 1631.8157
v  955.0521 101.8432 1492.6832
v  936.1232 125.5715 1508.7983
v  905.9705 164.7718 1536.4709
v  907.3388 166.1056 1534.9994
v  995.6577 105.2569 1611.3468
v  972.9270 128.9851 1617.4374
v  938.8709 168.1854 1626.5627
v  940.5221 169.5192 1626.1202
v  977.4382 100.8390 1550.7761
v  964.0826 98.5729 1500.9326
v  953.5939 98.1995 1494.6667
v  993.8013 101.4859 1611.8441
v  962.3015 101.1733 1556.3239
v  953.4122 99.6650 1523.1486
v  942.9301 99.2916 1516.9105
v  978.2917 101.6345 1616.0000
v  1001.2167 125.9801 1719.1758
v  1025.7736 102.2167 1723.7406
v  1011.8160 104.5849 1671.6504
v  988.2106 128.3132 1672.4017
v  951.1130 167.5134 1672.2509
v  961.1564 165.2642 1709.7333
v  952.9105 168.8473 1672.3545
v  930.4147 183.5408 1673.4199
v  939.3647 181.3397 1706.8221
v  963.1000 166.5923 1710.3824
v  1019.8240 101.8432 1734.4152
v  995.3735 125.5715 1729.9235
v  955.4242 164.7718 1721.0348
v  957.3450 166.1056 1721.6250
v  1023.5200 98.5729 1722.7557
v  1010.1645 100.8390 1672.9122
v  1017.5694 98.1995 1733.4265
v  1003.1711 99.6650 1708.8513
v  994.2819 101.1733 1675.6760
v  997.2123 99.2916 1719.4948
# 113 vertices

vn -0.7460 0.6441 0.1692
vn -0.7440 0.6473 0.1658
vn -0.7394 0.6495 0.1772
vn -0.7456 0.6411 0.1818
vn -0.7582 0.6263 0.1811
vn -0.7561 0.6332 0.1656
vn -0.5874 0.8005 0.1192
vn -0.5781 0.8074 0.1176
vn -0.5860 0.8102 -0.0144
vn -0.5622 0.8190 -0.1146
vn -0.6158 -0.7878 0.0095
vn -0.6390 -0.7428 0.2000
vn -0.6386 -0.7417 0.2051
vn -0.6076 -0.7936 -0.0330
vn -0.5732 0.8049 0.1536
vn -0.5619 0.8134 0.1506
vn -0.5672 0.8154 0.1158
vn -0.2774 0.4006 -0.8733
vn -0.2785 0.4000 -0.8732
vn -0.2368 0.4032 -0.8839
vn -0.2362 0.4093 -0.8813
vn -0.3238 0.4551 -0.8295
vn -0.2338 0.4286 -0.8727
vn -0.2774 -0.6294 -0.7259
vn -0.2766 -0.6314 -0.7245
vn -0.2070 -0.6003 -0.7725
vn -0.2076 -0.5972 -0.7748
vn -0.2889 0.5863 -0.7568
vn -0.2093 0.5883 -0.7811
vn -0.7306 0.6541 0.1958
vn -0.7422 0.6400 0.1989
vn -0.7579 0.6199 0.2031
vn -0.5839 0.7966 0.1565
vn -0.6415 -0.7476 0.1719
vn -0.6416 -0.7475 0.1719
vn -0.5664 0.8240 0.0162
vn -0.8767 -0.4127 0.2472
vn -0.8737 -0.4140 0.2555
vn -0.8761 -0.4129 0.2491
vn -0.2557 -0.3541 -0.8996
vn -0.2409 -0.3659 -0.8989
vn -0.2409 -0.3654 -0.8991
vn -0.2558 -0.3535 -0.8998
vn -0.8816 -0.4087 0.2362
vn -0.8816 -0.4086 0.2362
vn 0.0284 -0.9993 0.0254
vn 0.0265 -0.9984 0.0504
vn 0.0288 -0.9985 0.0471
vn 0.0270 -0.9994 0.0232
vn 0.0371 -0.9985 0.0402
vn 0.0165 -0.9980 0.0617
vn 0.0147 -0.9984 0.0547
vn 0.0436 -0.9987 0.0255
vn 0.0121 -0.9999 -0.0032
vn 0.0102 -0.9999 -0.0027
vn -0.6498 0.6569 -0.3824
vn -0.6502 0.6575 -0.3806
vn -0.6496 0.6545 -0.3869
vn -0.6490 0.6545 -0.3878
vn -0.6551 0.6602 -0.3673
vn -0.6561 0.6602 -0.3656
vn -0.6299 0.7698 -0.1036
vn -0.5540 -0.7958 -0.2444
vn -0.5530 -0.7969 -0.2434
vn -0.5445 0.7943 -0.2692
vn -0.7603 -0.5090 -0.4036
vn -0.7602 -0.5093 -0.4034
vn -0.7602 -0.5092 -0.4035
vn -0.7603 -0.5089 -0.4037
vn -0.7306 0.6441 0.2265
vn -0.7366 0.6411 0.2154
vn -0.7290 0.6495 0.2162
vn -0.7272 0.6473 0.2284
vn -0.7376 0.6332 0.2347
vn -0.7472 0.6263 0.2222
vn -0.5683 0.8005 0.1905
vn -0.4295 0.8190 0.3804
vn -0.5003 0.8102 0.3055
vn -0.5595 0.8074 0.1872
vn -0.5381 -0.7878 0.2997
vn -0.5097 -0.7936 0.3323
vn -0.6557 -0.7417 0.1417
vn -0.6534 -0.7428 0.1463
vn -0.5491 0.8154 0.1833
vn 0.1964 0.4006 0.8950
vn 0.2362 0.4093 0.8813
vn 0.2368 0.4032 0.8839
vn 0.1954 0.4000 0.8955
vn 0.2338 0.4286 0.8727
vn 0.1344 0.4551 0.8803
vn 0.1227 -0.6294 0.7673
vn 0.2076 -0.5972 0.7748
vn 0.2070 -0.6003 0.7725
vn 0.1227 -0.6314 0.7657
vn 0.1282 0.5863 0.7999
vn 0.2093 0.5883 0.7811
vn -0.4986 0.8240 0.2692
vn -0.8828 -0.4127 0.2243
vn -0.8832 -0.4129 0.2223
vn -0.8844 -0.4140 0.2155
vn 0.2283 -0.3541 0.9069
vn 0.2284 -0.3535 0.9071
vn 0.2409 -0.3654 0.8991
vn 0.2409 -0.3659 0.8989
vn 0.0119 -0.9993 -0.0362
vn 0.0117 -0.9994 -0.0336
vn 0.0014 -0.9985 -0.0552
vn -0.0022 -0.9984 -0.0569
vn 0.0120 -0.9985 -0.0534
vn 0.0250 -0.9987 -0.0438
vn -0.0147 -0.9984 -0.0547
vn -0.0165 -0.9980 -0.0617
vn -0.3715 0.6569 0.6561
vn -0.3682 0.6545 0.6603
vn -0.3692 0.6545 0.6599
vn -0.3728 0.6575 0.6547
vn -0.3837 0.6602 0.6457
vn -0.3855 0.6602 0.6447
vn -0.4937 0.7698 0.4047
vn -0.3572 -0.7969 0.4873
vn -0.3576 -0.7958 0.4887
vn -0.3370 0.7943 0.5054
vn -0.4566 -0.5090 0.7297
vn -0.4566 -0.5089 0.7298
vn -0.4566 -0.5092 0.7295
vn -0.4566 -0.5093 0.7294
vn 0.7306 0.6441 -0.2265
vn 0.7366 0.6411 -0.2154
vn 0.7290 0.6495 -0.2162
vn 0.7272 0.6473 -0.2284
vn 0.7376 0.6332 -0.2347
vn 0.7472 0.6263 -0.2222
vn 0.5683 0.8005 -0.1905
vn 0.4295 0.8190 -0.3804
vn 0.5003 0.8102 -0.3055
vn 0.5595 0.8074 -0.1872
vn 0.5381 -0.7878 -0.2997
vn 0.5097 -0.7936 -0.3323
vn 0.6557 -0.7417 -0.1417
vn 0.6534 -0.7428 -0.1463
vn 0.5732 0.8049 -0.1536
vn 0.5491 0.8154 -0.1833
vn 0.5619 0.8134 -0.1506
vn -0.1964 0.4006 -0.8950
vn -0.1954 0.4000 -0.8955
vn -0.1344 0.4551 -0.8803
vn -0.1227 -0.6294 -0.7673
vn -0.1227 -0.6314 -0.7657
vn -0.1282 0.5863 -0.7999
vn 0.7306 0.6541 -0.1958
vn 0.7422 0.6400 -0.1989
vn 0.7579 0.6199 -0.2031
vn 0.5839 0.7966 -0.1565
vn 0.6416 -0.7475 -0.1719
vn 0.6415 -0.7476 -0.1719
vn 0.4986 0.8240 -0.2692
vn 0.8828 -0.4127 -0.2243
vn 0.8832 -0.4129 -0.2223
vn 0.8844 -0.4140 -0.2155
vn -0.2283 -0.3541 -0.9069
vn -0.2284 -0.3535 -0.9071
vn 0.8816 -0.4087 -0.2362
vn 0.8816 -0.4086 -0.2362
vn -0.0119 -0.9993 0.0362
vn -0.0117 -0.9994 0.0336
vn -0.0014 -0.9985 0.0552
vn 0.0022 -0.9984 0.0569
vn -0.0120 -0.9985 0.0534
vn -0.0250 -0.9987 0.0438
vn -0.0121 -0.9999 0.0032
vn -0.0102 -0.9999 0.0027
vn 0.3715 0.6569 -0.6561
vn 0.3682 0.6545 -0.6603
vn 0.3692 0.6545 -0.6599
vn 0.3728 0.6575 -0.6547
vn 0.3837 0.6602 -0.6457
vn 0.3855 0.6602 -0.6447
vn 0.4937 0.7698 -0.4047
vn 0.3572 -0.7969 -0.4873
vn 0.3576 -0.7958 -0.4887
vn 0.3370 0.7943 -0.5054
vn 0.4566 -0.5090 -0.7297
vn 0.4566 -0.5089 -0.7298
vn 0.4566 -0.5092 -0.7295
vn 0.4566 -0.5093 -0.7294
vn 0.7460 0.6441 -0.1692
vn 0.7440 0.6473 -0.1658
vn 0.7394 0.6495 -0.1772
vn 0.7456 0.6411 -0.1818
vn 0.7582 0.6263 -0.1811
vn 0.7561 0.6332 -0.1656
vn 0.5874 0.8005 -0.1192
vn 0.5781 0.8074 -0.1176
vn 0.5860 0.8102 0.0144
vn 0.5622 0.8190 0.1146
vn 0.6158 -0.7878 -0.0095
vn 0.6390 -0.7428 -0.2000
vn 0.6386 -0.7417 -0.2051
vn 0.6076 -0.7936 0.0330
vn 0.5672 0.8154 -0.1158
vn 0.2774 0.4006 0.8733
vn 0.2785 0.4000 0.8732
vn 0.3238 0.4551 0.8295
vn 0.2774 -0.6294 0.7259
vn 0.2766 -0.6314 0.7245
vn 0.2889 0.5863 0.7568
vn 0.5664 0.8240 -0.0162
vn 0.8767 -0.4127 -0.2472
vn 0.8737 -0.4140 -0.2555
vn 0.8761 -0.4129 -0.2491
vn 0.2557 -0.3541 0.8996
vn 0.2558 -0.3535 0.8998
vn -0.0284 -0.9993 -0.0254
vn -0.0265 -0.9984 -0.0504
vn -0.0288 -0.9985 -0.0471
vn -0.0270 -0.9994 -0.0232
vn -0.0371 -0.9985 -0.0402
vn -0.0436 -0.9987 -0.0255
vn 0.6498 0.6569 0.3824
vn 0.6502 0.6575 0.3806
vn 0.6496 0.6545 0.3869
vn 0.6490 0.6545 0.3878
vn 0.6551 0.6602 0.3673
vn 0.6561 0.6602 0.3656
vn 0.6299 0.7698 0.1036
vn 0.5540 -0.7958 0.2444
vn 0.5530 -0.7969 0.2434
vn 0.5445 0.7943 0.2692
vn 0.7603 -0.5090 0.4036
vn 0.7602 -0.5093 0.4034
vn 0.7602 -0.5092 0.4035
vn 0.7603 -0.5089 0.4037
# 232 vertex normals

vt 0.1833 0.1033 0.0000
vt 0.1517 0.0000 0.0000
vt 0.3100 0.0060 0.0000
vt 0.3258 0.1101 0.0000
vt 0.3544 0.2780 0.0000
vt 0.2404 0.2722 0.0000
vt 0.2746 0.6639 0.0000
vt 0.2967 0.7925 0.0000
vt 0.1361 0.7845 0.0000
vt 0.0929 0.6570 0.0000
vt 0.0913 0.6474 0.0000
vt 0.2771 0.6531 0.0000
vt 0.4980 0.7949 0.0000
vt 0.4980 0.8123 0.0000
vt 0.2988 0.8098 0.0000
vt 0.1199 0.0169 0.0000
vt 0.1515 0.1198 0.0000
vt 0.0631 0.2411 0.0000
vt 0.0000 0.1968 0.0000
vt 0.2069 0.2884 0.0000
vt 0.1801 0.3232 0.0000
vt 0.0357 0.6834 0.0000
vt 0.0451 0.6870 0.0000
vt 0.0079 0.7534 0.0000
vt 0.0000 0.7483 0.0000
vt 0.0948 0.7942 0.0000
vt 0.4932 0.0077 0.0000
vt 0.4932 0.1129 0.0000
vt 0.4932 0.2797 0.0000
vt 0.4980 0.6659 0.0000
vt 0.4980 0.6553 0.0000
vt 0.1402 0.8019 0.0000
vt 0.2738 0.5995 0.0000
vt 0.0839 0.5985 0.0000
vt 0.0916 0.5839 0.0000
vt 0.2705 0.5830 0.0000
vt 0.0497 0.5669 0.0000
vt 0.0264 0.3144 0.0000
vt 0.0417 0.3138 0.0000
vt 0.0621 0.5565 0.0000
vt 0.4959 0.5996 0.0000
vt 0.4959 0.5828 0.0000
vt 0.1550 0.5276 0.0000
vt 0.2755 0.5263 0.0000
vt 0.1079 0.3101 0.0000
vt 0.1234 0.4991 0.0000
vt 0.4959 0.5256 0.0000
vt 0.8031 0.1033 0.0000
vt 0.6606 0.1101 0.0000
vt 0.6764 0.0060 0.0000
vt 0.8347 0.0000 0.0000
vt 0.7459 0.2722 0.0000
vt 0.6320 0.2780 0.0000
vt 0.7214 0.6639 0.0000
vt 0.9031 0.6570 0.0000
vt 0.8599 0.7845 0.0000
vt 0.6993 0.7925 0.0000
vt 0.9047 0.6474 0.0000
vt 0.7188 0.6531 0.0000
vt 0.6972 0.8098 0.0000
vt 0.8664 0.0169 0.0000
vt 0.9864 0.1968 0.0000
vt 0.9232 0.2411 0.0000
vt 0.8349 0.1198 0.0000
vt 0.8063 0.3232 0.0000
vt 0.7794 0.2884 0.0000
vt 0.9603 0.6834 0.0000
vt 0.9960 0.7483 0.0000
vt 0.9881 0.7534 0.0000
vt 0.9509 0.6870 0.0000
vt 0.9012 0.7942 0.0000
vt 0.8558 0.8019 0.0000
vt 0.7180 0.5995 0.0000
vt 0.7212 0.5830 0.0000
vt 0.9001 0.5839 0.0000
vt 0.9079 0.5985 0.0000
vt 0.9421 0.5669 0.0000
vt 0.9296 0.5565 0.0000
vt 0.9500 0.3138 0.0000
vt 0.9653 0.3144 0.0000
vt 0.7163 0.5263 0.0000
vt 0.8367 0.5276 0.0000
vt 0.8683 0.4991 0.0000
vt 0.8838 0.3101 0.0000
vt 1.1833 0.1033 0.0000
vt 1.3258 0.1101 0.0000
vt 1.3100 0.0060 0.0000
vt 1.1517 0.0000 0.0000
vt 1.2404 0.2722 0.0000
vt 1.3544 0.2780 0.0000
vt 1.2746 0.6639 0.0000
vt 1.0929 0.6570 0.0000
vt 1.1361 0.7845 0.0000
vt 1.2967 0.7925 0.0000
vt 1.0913 0.6474 0.0000
vt 1.2771 0.6531 0.0000
vt 1.4980 0.7949 0.0000
vt 1.2988 0.8098 0.0000
vt 1.4980 0.8123 0.0000
vt 1.1199 0.0169 0.0000
vt 1.0000 0.1968 0.0000
vt 1.0631 0.2411 0.0000
vt 1.1515 0.1198 0.0000
vt 1.1801 0.3232 0.0000
vt 1.2069 0.2884 0.0000
vt 1.0357 0.6834 0.0000
vt 1.0000 0.7483 0.0000
vt 1.0079 0.7534 0.0000
vt 1.0451 0.6870 0.0000
vt 1.0948 0.7942 0.0000
vt 1.4932 0.0077 0.0000
vt 1.4932 0.1129 0.0000
vt 1.4932 0.2797 0.0000
vt 1.4980 0.6659 0.0000
vt 1.4980 0.6553 0.0000
vt 1.1402 0.8019 0.0000
vt 1.2738 0.5995 0.0000
vt 1.2705 0.5830 0.0000
vt 1.0916 0.5839 0.0000
vt 1.0839 0.5985 0.0000
vt 1.0497 0.5669 0.0000
vt 1.0621 0.5565 0.0000
vt 1.0417 0.3138 0.0000
vt 1.0264 0.3144 0.0000
vt 1.4959 0.5996 0.0000
vt 1.4959 0.5828 0.0000
vt 1.2755 0.5263 0.0000
vt 1.1550 0.5276 0.0000
vt 1.1234 0.4991 0.0000
vt 1.1079 0.3101 0.0000
vt 1.4959 0.5256 0.0000
vt 1.8031 0.1033 0.0000
vt 1.8347 0.0000 0.0000
vt 1.6764 0.0060 0.0000
vt 1.6606 0.1101 0.0000
vt 1.6320 0.2780 0.0000
vt 1.7459 0.2722 0.0000
vt 1.7214 0.6639 0.0000
vt 1.6993 0.7925 0.0000
vt 1.8599 0.7845 0.0000
vt 1.9031 0.6570 0.0000
vt 1.9047 0.6474 0.0000
vt 1.7188 0.6531 0.0000
vt 1.6972 0.8098 0.0000
vt 1.8664 0.0169 0.0000
vt 1.8349 0.1198 0.0000
vt 1.9232 0.2411 0.0000
vt 1.9864 0.1968 0.0000
vt 1.7794 0.2884 0.0000
vt 1.8063 0.3232 0.0000
vt 1.9603 0.6834 0.0000
vt 1.9509 0.6870 0.0000
vt 1.9881 0.7534 0.0000
vt 1.9960 0.7483 0.0000
vt 1.9012 0.7942 0.0000
vt 1.8558 0.8019 0.0000
vt 1.7180 0.5995 0.0000
vt 1.9079 0.5985 0.0000
vt 1.9001 0.5839 0.0000
vt 1.7212 0.5830 0.0000
vt 1.9421 0.5669 0.0000
vt 1.9653 0.3144 0.0000
vt 1.9500 0.3138 0.0000
vt 1.9296 0.5565 0.0000
vt 1.8367 0.5276 0.0000
vt 1.7163 0.5263 0.0000
vt 1.8838 0.3101 0.0000
vt 1.8683 0.4991 0.0000
# 168 texture coords

g e_roof01_asset_004
s 1
f 1/1/1 2/2/2 3/3/3 4/4/4 
f 4/4/4 5/5/5 6/6/6 1/1/1 
f 7/7/7 8/8/8 9/9/9 10/10/10 
s 2
f 6/11/11 5/12/12 7/7/13 10/10/14 
s 1
f 11/13/15 12/14/16 13/15/17 8/8/8 
f 14/16/18 15/17/19 16/18/20 17/19/21 
f 15/17/19 18/20/22 19/21/23 16/18/20 
s 4
f 18/22/24 20/23/25 21/24/26 19/25/27 
s 8
f 20/23/28 22/26/29 21/24/29 
s 1
f 23/27/30 24/28/31 4/4/4 3/3/3 
f 24/28/31 25/29/32 5/5/5 4/4/4 
f 26/30/33 11/13/15 8/8/8 7/7/7 
s 2
f 5/12/12 25/31/34 26/30/35 7/7/13 
s 1
f 27/32/36 9/9/9 8/8/8 13/15/17 
s 2
f 3/33/37 2/34/38 28/35/38 29/36/39 
f 14/37/40 17/38/41 30/39/42 31/40/43 
f 23/41/44 3/33/37 29/36/39 32/42/45 
s 1
f 29/36/46 28/35/47 33/43/48 34/44/49 
f 31/40/50 30/39/51 35/45/52 36/46/53 
f 32/42/54 29/36/46 34/44/49 37/47/55 
s 8
f 1/1/56 15/17/57 14/16/58 2/2/59 
f 6/6/60 18/20/61 15/17/57 1/1/56 
s 1
f 27/32/36 22/26/62 9/9/9 
s 2
f 10/10/14 20/23/63 18/22/64 6/11/11 
s 1
f 9/9/9 22/26/62 20/23/65 10/10/10 
s 4
f 2/34/66 14/37/67 31/40/68 28/35/69 
s 1
f 28/35/47 31/40/50 36/46/53 33/43/48 
f 38/48/70 39/49/71 40/50/72 41/51/73 
f 39/49/71 38/48/70 42/52/74 43/53/75 
f 44/54/76 45/55/77 46/56/78 47/57/79 
s 2
f 42/58/80 45/55/81 44/54/82 43/59/83 
s 1
f 11/13/15 47/57/79 48/60/84 12/14/16 
f 49/61/85 50/62/86 51/63/87 52/64/88 
f 52/64/88 51/63/87 53/65/89 54/66/90 
s 4
f 54/67/91 53/68/92 55/69/93 56/70/94 
s 8
f 56/70/95 55/69/96 57/71/96 
s 1
f 23/27/30 40/50/72 39/49/71 24/28/31 
f 24/28/31 39/49/71 43/53/75 25/29/32 
f 26/30/33 44/54/76 47/57/79 11/13/15 
s 2
f 43/59/83 44/54/82 26/30/35 25/31/34 
s 1
f 58/72/97 48/60/84 47/57/79 46/56/78 
s 2
f 40/73/98 59/74/99 60/75/100 41/76/100 
f 49/77/101 61/78/102 62/79/103 50/80/104 
f 23/41/44 32/42/45 59/74/99 40/73/98 
s 1
f 59/74/105 63/81/106 64/82/107 60/75/108 
f 61/78/109 65/83/110 66/84/111 62/79/112 
f 32/42/54 37/47/55 63/81/106 59/74/105 
s 8
f 38/48/113 41/51/114 49/61/115 52/64/116 
f 42/52/117 38/48/113 52/64/116 54/66/118 
s 1
f 58/72/97 46/56/78 57/71/119 
s 2
f 45/55/81 42/58/80 54/67/120 56/70/121 
s 1
f 46/56/78 45/55/77 56/70/122 57/71/119 
s 4
f 41/76/123 60/75/124 61/78/125 49/77/126 
s 1
f 60/75/108 64/82/107 65/83/110 61/78/109 
f 67/85/127 68/86/128 69/87/129 70/88/130 
f 68/86/128 67/85/127 71/89/131 72/90/132 
s 2
f 73/91/133 74/92/134 75/93/135 76/94/136 
s 16
f 71/95/137 74/92/138 73/91/139 72/96/140 
s 2
f 77/97/141 76/94/136 13/98/142 12/99/143 
s 1
f 78/100/144 17/101/21 16/102/20 79/103/145 
f 79/103/145 16/102/20 19/104/23 80/105/146 
s 4
f 80/106/147 19/107/27 21/108/26 81/109/148 
s 8
f 81/109/149 21/108/29 22/110/29 
s 1
f 82/111/150 69/87/129 68/86/128 83/112/151 
f 83/112/151 68/86/128 72/90/132 84/113/152 
s 2
f 85/114/153 73/91/133 76/94/136 77/97/141 
s 16
f 72/96/140 73/91/139 85/114/154 84/115/155 
s 2
f 27/116/156 13/98/142 76/94/136 75/93/135 
f 69/117/157 86/118/158 87/119/159 70/120/159 
f 78/121/160 88/122/161 30/123/42 17/124/41 
f 82/125/162 89/126/163 86/118/158 69/117/157 
s 1
f 86/118/164 90/127/165 91/128/166 87/119/167 
f 88/122/168 92/129/169 35/130/52 30/123/51 
f 89/126/170 93/131/171 90/127/165 86/118/164 
s 8
f 67/85/172 70/88/173 78/100/174 79/103/175 
f 71/89/176 67/85/172 79/103/175 80/105/177 
s 2
f 27/116/156 75/93/135 22/110/178 
s 16
f 74/92/138 71/95/137 80/106/179 81/109/180 
s 2
f 75/93/135 74/92/134 81/109/181 22/110/178 
s 4
f 70/120/182 87/119/183 88/122/184 78/121/185 
s 1
f 87/119/167 91/128/166 92/129/169 88/122/168 
f 94/132/186 95/133/187 96/134/188 97/135/189 
f 97/135/189 98/136/190 99/137/191 94/132/186 
s 2
f 100/138/192 101/139/193 102/140/194 103/141/195 
s 16
f 99/142/196 98/143/197 100/138/198 103/141/199 
s 2
f 77/97/141 12/99/143 48/144/200 101/139/193 
s 1
f 104/145/201 105/146/202 51/147/87 50/148/86 
f 105/146/202 106/149/203 53/150/89 51/147/87 
s 4
f 106/151/204 107/152/205 55/153/93 53/154/92 
s 8
f 107/152/206 57/155/96 55/153/96 
s 1
f 82/111/150 83/112/151 97/135/189 96/134/188 
f 83/112/151 84/113/152 98/136/190 97/135/189 
s 2
f 85/114/153 77/97/141 101/139/193 100/138/192 
s 16
f 98/143/197 84/115/155 85/114/154 100/138/198 
s 2
f 58/156/207 102/140/194 101/139/193 48/144/200 
f 96/157/208 95/158/209 108/159/209 109/160/210 
f 104/161/211 50/162/104 62/163/103 110/164/212 
f 82/125/162 96/157/208 109/160/210 89/126/163 
s 1
f 109/160/213 108/159/214 111/165/215 112/166/216 
f 110/164/217 62/163/112 66/167/111 113/168/218 
f 89/126/170 109/160/213 112/166/216 93/131/171 
s 8
f 94/132/219 105/146/220 104/145/221 95/133/222 
f 99/137/223 106/149/224 105/146/220 94/132/219 
s 2
f 58/156/207 57/155/225 102/140/194 
s 16
f 103/141/199 107/152/226 106/151/227 99/142/196 
s 2
f 102/140/194 57/155/225 107/152/228 103/141/195 
s 4
f 95/158/229 104/161/230 110/164/231 108/159/232 
s 1
f 108/159/214 110/164/217 113/168/218 111/165/215 
# 100 polygons - 8 triangles

